<svg xmlns="http://www.w3.org/2000/svg" xmlns:xlink="http://www.w3.org/1999/xlink" width="111.423" height="92.191" viewBox="0 0 111.423 92.191"><defs><clipPath id="a"><rect width="111.423" height="92.191" fill="none"/></clipPath></defs><g transform="translate(0 0)" clip-path="url(#a)"><path d="M1223.327,34.3a11.009,11.009,0,0,0-1.449.507,1.334,1.334,0,0,1-1.543-.342l-1.017-1.139a1.282,1.282,0,0,0-1.8-.1l-1.971,1.76a1.282,1.282,0,0,0-.1,1.8l1.016,1.139a1.333,1.333,0,0,1,.166,1.572,10.905,10.905,0,0,0-.667,1.383,1.335,1.335,0,0,1-1.333.849l-1.524-.086a1.282,1.282,0,0,0-1.349,1.2l-.15,2.639a1.283,1.283,0,0,0,1.2,1.348l1.525.086a1.334,1.334,0,0,1,1.228.994,10.977,10.977,0,0,0,.507,1.449,1.335,1.335,0,0,1-.342,1.543l-1.139,1.017a1.281,1.281,0,0,0-.1,1.8l1.76,1.971a1.282,1.282,0,0,0,1.8.1l1.14-1.017a1.334,1.334,0,0,1,1.572-.165,11.046,11.046,0,0,0,1.383.668,1.333,1.333,0,0,1,.849,1.332l-.087,1.524a1.283,1.283,0,0,0,1.2,1.348l2.638.15a1.282,1.282,0,0,0,1.348-1.2l.087-1.524a1.333,1.333,0,0,1,.994-1.228,11.048,11.048,0,0,0,1.449-.507,1.333,1.333,0,0,1,1.543.342l1.017,1.139a1.282,1.282,0,0,0,1.805.1l1.971-1.76a1.282,1.282,0,0,0,.1-1.8l-1.017-1.139a1.334,1.334,0,0,1-.166-1.572,10.884,10.884,0,0,0,.668-1.382,1.334,1.334,0,0,1,1.333-.849l1.524.086a1.282,1.282,0,0,0,1.349-1.2l.149-2.638a1.282,1.282,0,0,0-1.2-1.348l-1.524-.086a1.334,1.334,0,0,1-1.228-.994,10.954,10.954,0,0,0-.507-1.45,1.335,1.335,0,0,1,.342-1.544l1.14-1.017a1.283,1.283,0,0,0,.1-1.8l-1.76-1.971a1.282,1.282,0,0,0-1.8-.1l-1.14,1.017a1.334,1.334,0,0,1-1.572.165,11.075,11.075,0,0,0-1.382-.667,1.335,1.335,0,0,1-.849-1.333l.087-1.525a1.282,1.282,0,0,0-1.2-1.349l-2.638-.149a1.283,1.283,0,0,0-1.349,1.2l-.086,1.525a1.334,1.334,0,0,1-.994,1.228m3.288,4.238a6.466,6.466,0,1,0,6.089,6.821,6.465,6.465,0,0,0-6.089-6.821" transform="translate(-1129.478 -28.284)" fill="#cce9ff" fill-rule="evenodd"/><path d="M16.06,313.7a12.361,12.361,0,0,0-1.721.129,1.5,1.5,0,0,1-1.576-.82l-.773-1.533a1.442,1.442,0,0,0-1.93-.636l-2.652,1.337a1.441,1.441,0,0,0-.636,1.93l.773,1.533a1.5,1.5,0,0,1-.278,1.755A12.328,12.328,0,0,0,6.14,318.7a1.5,1.5,0,0,1-1.694.534l-1.63-.537A1.441,1.441,0,0,0,1,319.615l-.93,2.821a1.441,1.441,0,0,0,.915,1.814l1.63.537a1.5,1.5,0,0,1,1.044,1.437,12.357,12.357,0,0,0,.129,1.721,1.5,1.5,0,0,1-.82,1.576l-1.533.773a1.441,1.441,0,0,0-.636,1.93l1.337,2.652a1.44,1.44,0,0,0,1.93.636l1.533-.773a1.5,1.5,0,0,1,1.755.278,12.382,12.382,0,0,0,1.307,1.127,1.5,1.5,0,0,1,.534,1.693l-.537,1.63a1.441,1.441,0,0,0,.915,1.814l2.821.93a1.441,1.441,0,0,0,1.814-.915l.537-1.63a1.5,1.5,0,0,1,1.437-1.045,12.345,12.345,0,0,0,1.721-.128,1.5,1.5,0,0,1,1.576.82l.773,1.533a1.441,1.441,0,0,0,1.93.636l2.652-1.337a1.442,1.442,0,0,0,.636-1.93l-.773-1.533a1.5,1.5,0,0,1,.278-1.755,12.318,12.318,0,0,0,1.127-1.307,1.5,1.5,0,0,1,1.694-.534l1.63.537a1.441,1.441,0,0,0,1.815-.915l.93-2.821a1.441,1.441,0,0,0-.915-1.815l-1.629-.537a1.5,1.5,0,0,1-1.044-1.436,12.347,12.347,0,0,0-.129-1.721,1.5,1.5,0,0,1,.82-1.577l1.533-.773a1.441,1.441,0,0,0,.636-1.93l-1.337-2.652a1.441,1.441,0,0,0-1.93-.636l-1.533.773a1.5,1.5,0,0,1-1.755-.278,12.383,12.383,0,0,0-1.307-1.126,1.5,1.5,0,0,1-.534-1.694l.537-1.63a1.441,1.441,0,0,0-.915-1.814l-2.821-.93a1.441,1.441,0,0,0-1.814.915l-.537,1.63A1.5,1.5,0,0,1,16.06,313.7M18.4,319.26a7.267,7.267,0,1,0,4.627,9.177A7.267,7.267,0,0,0,18.4,319.26" transform="translate(0 -289.027)" fill="#cce9ff" fill-rule="evenodd"/><path d="M117.574,982.109h94.532c3.78,0,2.9-1.789,2.749-2.383-1.055-4.221-1.776-7.138-2.834-11.359s-2.115-8.445-3.171-12.67a1.487,1.487,0,0,0-1.355-1.078H123.047a1.453,1.453,0,0,0-1.335,1.078q-1.583,6.338-3.171,12.67c-1.058,4.221-1.778,7.133-2.833,11.355-.148.594-.719,2.387,1.866,2.387" transform="translate(-107.719 -889.918)" fill="#191467" fill-rule="evenodd"/><path d="M121.435,980.055h38.316l.149-.185.619-.772a.418.418,0,0,1,.261-.065h16.494a.439.439,0,0,1,.265.065l.619.772.148.185h37.406c1.7,0,2.45-.361,2.754-.812-.991-3.965-1.7-6.818-2.714-10.876q-1.588-6.335-3.171-12.67a1.487,1.487,0,0,0-1.355-1.078H126.779a1.453,1.453,0,0,0-1.335,1.078q-1.583,6.337-3.171,12.67c-1.02,4.068-1.725,6.92-2.719,10.9.219.44.743.789,1.881.789" transform="translate(-111.451 -889.918)" fill="#383097" fill-rule="evenodd"/><path d="M659,1188.531h24.484c.981,0,.827-.469.813-.625-.051-.554-.093-1.023-.137-1.491s-.087-.937-.148-1.492-.12-1.11-.183-1.665-.135-1.109-.2-1.664a.34.34,0,0,0-.337-.283H659.412a.341.341,0,0,0-.339.283q-.107.833-.2,1.664t-.18,1.665c-.059.555-.107,1.023-.151,1.491s-.085.937-.134,1.491c-.014.156-.077.626.591.626" transform="translate(-613.776 -1101.245)" fill="#e9522a" fill-rule="evenodd"/><path d="M412.119,949.635h58.826a.233.233,0,0,1,.232.232v.464a.233.233,0,0,1-.232.232H412.119a.233.233,0,0,1-.232-.232v-.464a.233.233,0,0,1,.232-.232" transform="translate(-383.97 -885.272)" fill="#cce9ff" fill-rule="evenodd"/><path d="M212.5,184.48h82.514a2.047,2.047,0,0,1,2.041,2.041v48.116a2.047,2.047,0,0,1-2.041,2.041H212.5a2.047,2.047,0,0,1-2.041-2.041V186.521a2.047,2.047,0,0,1,2.041-2.041" transform="translate(-196.19 -171.977)" fill="#191467" fill-rule="evenodd"/><path d="M271.883,244.709h75.06a1.727,1.727,0,0,1,1.722,1.722v40.59a1.727,1.727,0,0,1-1.722,1.722h-75.06a1.727,1.727,0,0,1-1.721-1.722v-40.59a1.727,1.727,0,0,1,1.721-1.722" transform="translate(-251.851 -228.124)" fill="#e6ebf4" fill-rule="evenodd"/><path d="M551.129,244.709h50.889l.007,44.033H551.108Z" transform="translate(-513.756 -228.124)" fill="#fff" fill-rule="evenodd"/><path d="M753.122,632.781l-1.643,1.643,2.437,2.437,2.02,2.02,9.706-9.706L764,627.531l-8.063,8.063-2.02-2.02Z" transform="translate(-700.545 -584.999)" fill="#191467" fill-rule="evenodd"/><path d="M277.832,1006.431H281.1a.241.241,0,0,1,.237.311q-.122.645-.253,1.3a.4.4,0,0,1-.376.311h-3.3a.239.239,0,0,1-.237-.311c.1-.432.193-.865.286-1.3a.412.412,0,0,1,.376-.311" transform="translate(-258.377 -938.218)" fill="#cce9ff" fill-rule="evenodd"/><path d="M373.4,1006.431h3.26a.253.253,0,0,1,.253.311c-.07.431-.128.864-.2,1.3a.389.389,0,0,1-.367.311h-3.3a.252.252,0,0,1-.253-.311c.082-.432.155-.865.237-1.3a.4.4,0,0,1,.376-.311" transform="translate(-347.52 -938.218)" fill="#cce9ff" fill-rule="evenodd"/><path d="M469.072,1006.431h3.26a.267.267,0,0,1,.27.311c-.053.431-.1.864-.155,1.3a.373.373,0,0,1-.359.311h-3.3a.26.26,0,0,1-.261-.311c.064-.432.124-.865.188-1.3a.376.376,0,0,1,.359-.311" transform="translate(-436.767 -938.218)" fill="#cce9ff" fill-rule="evenodd"/><path d="M564.724,1006.431h3.268a.277.277,0,0,1,.278.311q-.052.647-.114,1.3a.353.353,0,0,1-.343.311h-3.3a.267.267,0,0,1-.27-.311c.052-.432.092-.864.139-1.3a.36.36,0,0,1,.343-.311" transform="translate(-525.997 -938.218)" fill="#cce9ff" fill-rule="evenodd"/><path d="M660.384,1006.431h3.26a.293.293,0,0,1,.294.311c-.017.432-.042.864-.065,1.3a.34.34,0,0,1-.335.311h-3.292a.279.279,0,0,1-.286-.311c.035-.432.061-.864.09-1.3a.341.341,0,0,1,.335-.311" transform="translate(-615.228 -938.218)" fill="#cce9ff" fill-rule="evenodd"/><path d="M755.924,1006.431h3.267a.307.307,0,0,1,.3.311q-.008.648-.016,1.3a.32.32,0,0,1-.319.311h-3.3a.3.3,0,0,1-.3-.311c.012-.432.032-.864.049-1.3a.323.323,0,0,1,.319-.311" transform="translate(-704.347 -938.218)" fill="#cce9ff" fill-rule="evenodd"/><path d="M851.572,1006.431h3.26a.327.327,0,0,1,.327.311c.006.432.021.864.033,1.3a.316.316,0,0,1-.319.311h-3.3a.311.311,0,0,1-.31-.311v-1.3a.311.311,0,0,1,.31-.311" transform="translate(-793.566 -938.218)" fill="#cce9ff" fill-rule="evenodd"/><path d="M946.538,1006.431H949.8a.342.342,0,0,1,.344.311c.023.432.044.864.073,1.3a.293.293,0,0,1-.3.311h-3.3a.323.323,0,0,1-.318-.311c-.017-.432-.031-.864-.049-1.3a.293.293,0,0,1,.294-.311" transform="translate(-882.11 -938.218)" fill="#cce9ff" fill-rule="evenodd"/><path d="M1041.487,1006.431h3.268a.361.361,0,0,1,.351.311q.062.648.122,1.3a.283.283,0,0,1-.294.311h-3.3a.334.334,0,0,1-.327-.311q-.044-.648-.1-1.3a.281.281,0,0,1,.277-.311" transform="translate(-970.639 -938.218)" fill="#cce9ff" fill-rule="evenodd"/><path d="M1136.444,1006.431h3.268a.375.375,0,0,1,.359.311c.058.431.113.864.171,1.3a.272.272,0,0,1-.277.311h-3.309a.356.356,0,0,1-.343-.311c-.053-.432-.092-.864-.139-1.3a.269.269,0,0,1,.27-.311" transform="translate(-1059.166 -938.218)" fill="#cce9ff" fill-rule="evenodd"/><path d="M1231.4,1006.431h3.26a.4.4,0,0,1,.375.311c.07.431.151.863.221,1.3a.265.265,0,0,1-.27.311h-3.292a.379.379,0,0,1-.367-.311c-.071-.431-.13-.864-.188-1.3a.257.257,0,0,1,.261-.311" transform="translate(-1147.692 -938.218)" fill="#cce9ff" fill-rule="evenodd"/><path d="M1326.342,1006.431h5.955a.423.423,0,0,1,.392.311c.093.431.186.864.286,1.3a.243.243,0,0,1-.245.311h-6.021a.4.4,0,0,1-.376-.311q-.122-.648-.236-1.3a.251.251,0,0,1,.245-.311" transform="translate(-1236.213 -938.218)" fill="#cce9ff" fill-rule="evenodd"/><path d="M1376.883,1043.908h-3.309a.246.246,0,0,0-.253.312c.087.431.166.865.253,1.3a.413.413,0,0,0,.392.31h3.349a.243.243,0,0,0,.245-.31c-.093-.431-.192-.865-.285-1.3a.417.417,0,0,0-.392-.312" transform="translate(-1280.235 -973.155)" fill="#cce9ff" fill-rule="evenodd"/><path d="M1280.5,1043.908h-3.317a.26.26,0,0,0-.262.312c.071.432.143.865.213,1.3a.389.389,0,0,0,.376.31h3.349a.252.252,0,0,0,.261-.31q-.122-.647-.245-1.3a.393.393,0,0,0-.375-.312" transform="translate(-1190.375 -973.155)" fill="#cce9ff" fill-rule="evenodd"/><path d="M1184.232,1043.908h-3.316a.268.268,0,0,0-.27.312c.053.432.111.864.163,1.3a.365.365,0,0,0,.36.31h3.341a.262.262,0,0,0,.277-.31c-.064-.431-.129-.864-.188-1.3a.377.377,0,0,0-.368-.312" transform="translate(-1100.622 -973.155)" fill="#cce9ff" fill-rule="evenodd"/><path d="M1087.954,1043.908h-3.317a.277.277,0,0,0-.278.312q.052.647.114,1.3a.352.352,0,0,0,.343.31h3.35a.275.275,0,0,0,.286-.31c-.047-.431-.092-.865-.139-1.3a.364.364,0,0,0-.359-.312" transform="translate(-1010.864 -973.155)" fill="#cce9ff" fill-rule="evenodd"/><path d="M991.552,1043.908h-3.309a.294.294,0,0,0-.3.312c.023.432.042.864.065,1.3a.338.338,0,0,0,.335.31h3.349a.3.3,0,0,0,.3-.31c-.029-.432-.063-.864-.1-1.3a.351.351,0,0,0-.343-.312" transform="translate(-920.98 -973.155)" fill="#cce9ff" fill-rule="evenodd"/><path d="M895.26,1043.908h-3.309a.3.3,0,0,0-.31.312c.011.432.01.864.016,1.3a.321.321,0,0,0,.327.31h3.341a.3.3,0,0,0,.31-.31c-.012-.432-.031-.864-.049-1.3a.331.331,0,0,0-.327-.312" transform="translate(-831.208 -973.155)" fill="#cce9ff" fill-rule="evenodd"/><path d="M798.509,1043.908H795.2a.329.329,0,0,0-.327.312c-.012.432-.013.864-.025,1.3a.3.3,0,0,0,.311.31h3.349a.31.31,0,0,0,.31-.31v-1.3a.311.311,0,0,0-.31-.312" transform="translate(-740.976 -973.155)" fill="#cce9ff" fill-rule="evenodd"/><path d="M701.534,1043.908h-3.308a.339.339,0,0,0-.335.312c-.023.432-.044.864-.073,1.3a.29.29,0,0,0,.294.31h3.349a.33.33,0,0,0,.327-.31c.018-.432.031-.864.049-1.3a.3.3,0,0,0-.3-.312" transform="translate(-650.521 -973.155)" fill="#cce9ff" fill-rule="evenodd"/><path d="M604.438,1043.908H601.13a.353.353,0,0,0-.343.312c-.041.432-.09.864-.131,1.3a.282.282,0,0,0,.286.31h3.349a.351.351,0,0,0,.343-.31c.035-.432.061-.864.09-1.3a.285.285,0,0,0-.286-.312" transform="translate(-559.944 -973.155)" fill="#cce9ff" fill-rule="evenodd"/><path d="M507.447,1043.908h-3.309a.373.373,0,0,0-.36.312c-.053.432-.113.864-.171,1.3a.268.268,0,0,0,.278.31h3.341a.363.363,0,0,0,.359-.31c.047-.431.092-.865.139-1.3a.274.274,0,0,0-.278-.312" transform="translate(-469.472 -973.155)" fill="#cce9ff" fill-rule="evenodd"/><path d="M410.457,1043.908h-3.308a.39.39,0,0,0-.368.312c-.076.432-.151.865-.221,1.3a.258.258,0,0,0,.261.31h3.35a.376.376,0,0,0,.359-.31c.064-.432.132-.864.2-1.3a.266.266,0,0,0-.27-.312" transform="translate(-379.001 -973.155)" fill="#cce9ff" fill-rule="evenodd"/><path d="M275.57,1043.908h-6.037a.415.415,0,0,0-.384.312c-.093.431-.193.865-.286,1.3a.239.239,0,0,0,.237.31h6.111a.4.4,0,0,0,.376-.31c.076-.432.161-.864.237-1.3a.252.252,0,0,0-.253-.312" transform="translate(-250.633 -973.155)" fill="#cce9ff" fill-rule="evenodd"/><path d="M1217.538,1081.939h-3.357a.267.267,0,0,0-.277.311c.064.432.121.864.18,1.3a.368.368,0,0,0,.359.311h3.4a.271.271,0,0,0,.278-.311c-.071-.433-.142-.863-.213-1.3a.381.381,0,0,0-.368-.311" transform="translate(-1131.625 -1008.609)" fill="#cce9ff" fill-rule="evenodd"/><path d="M1119.814,1081.939h-3.357a.281.281,0,0,0-.286.311q.07.649.13,1.3a.355.355,0,0,0,.352.311h3.391a.275.275,0,0,0,.286-.311c-.052-.432-.1-.863-.155-1.3a.367.367,0,0,0-.359-.311" transform="translate(-1040.518 -1008.609)" fill="#cce9ff" fill-rule="evenodd"/><path d="M1022.094,1081.939h-3.365a.292.292,0,0,0-.294.311c.023.432.053.864.082,1.3a.335.335,0,0,0,.335.311h3.4a.29.29,0,0,0,.294-.311c-.035-.432-.066-.864-.106-1.3a.353.353,0,0,0-.344-.311" transform="translate(-949.407 -1008.609)" fill="#cce9ff" fill-rule="evenodd"/><path d="M924.24,1081.939h-3.357a.311.311,0,0,0-.319.311c.012.432.021.864.033,1.3a.331.331,0,0,0,.335.311h3.39a.3.3,0,0,0,.311-.311c-.018-.432-.04-.864-.057-1.3a.338.338,0,0,0-.335-.311" transform="translate(-858.17 -1008.609)" fill="#cce9ff" fill-rule="evenodd"/><path d="M826.278,1081.939H822.92a.327.327,0,0,0-.327.311c-.005.432-.016.864-.016,1.3a.318.318,0,0,0,.318.311h3.4a.312.312,0,0,0,.319-.311c-.006-.432,0-.864-.009-1.3a.321.321,0,0,0-.327-.311" transform="translate(-766.825 -1008.609)" fill="#cce9ff" fill-rule="evenodd"/><path d="M727.854,1081.939H724.5a.332.332,0,0,0-.335.311c-.017.432-.048.864-.065,1.3a.3.3,0,0,0,.311.311h3.39a.331.331,0,0,0,.335-.311c.012-.432.029-.864.041-1.3a.31.31,0,0,0-.319-.311" transform="translate(-675.019 -1008.609)" fill="#cce9ff" fill-rule="evenodd"/><path d="M629.435,1081.939h-3.366a.346.346,0,0,0-.343.311c-.035.432-.079.864-.114,1.3a.283.283,0,0,0,.286.311H629.3a.344.344,0,0,0,.343-.311c.029-.432.052-.865.082-1.3a.291.291,0,0,0-.294-.311" transform="translate(-583.208 -1008.609)" fill="#cce9ff" fill-rule="evenodd"/><path d="M530.988,1081.939h-3.358a.368.368,0,0,0-.359.311c-.058.432-.1.864-.156,1.3a.27.27,0,0,0,.278.311h3.4a.365.365,0,0,0,.359-.311q.07-.649.13-1.3a.284.284,0,0,0-.294-.311" transform="translate(-491.387 -1008.609)" fill="#cce9ff" fill-rule="evenodd"/><path d="M432.548,1081.939h-3.358a.388.388,0,0,0-.368.311c-.07.432-.134.865-.2,1.3a.259.259,0,0,0,.261.311h3.4a.381.381,0,0,0,.376-.311c.064-.432.115-.864.18-1.3a.269.269,0,0,0-.286-.311" transform="translate(-399.564 -1008.609)" fill="#cce9ff" fill-rule="evenodd"/><path d="M269.055,1081.939h-8.088a.409.409,0,0,0-.376.311c-.1.433-.195.864-.294,1.3a.24.24,0,0,0,.245.311h8.178a.4.4,0,0,0,.376-.311q.114-.648.229-1.3a.26.26,0,0,0-.27-.311" transform="translate(-242.648 -1008.609)" fill="#cce9ff" fill-rule="evenodd"/><path d="M1319.4,1081.939h-8.088a.262.262,0,0,0-.278.311q.114.649.229,1.3a.393.393,0,0,0,.384.311h8.17a.25.25,0,0,0,.261-.311c-.1-.432-.194-.863-.294-1.3a.419.419,0,0,0-.384-.311" transform="translate(-1222.171 -1008.609)" fill="#cce9ff" fill-rule="evenodd"/><path d="M251.949,1122.628h3.415a.249.249,0,0,1,.253.312c-.093.431-.172.865-.253,1.3a.41.41,0,0,1-.392.31h-3.448a.245.245,0,0,1-.253-.31c.093-.431.187-.864.286-1.3a.419.419,0,0,1,.392-.312" transform="translate(-234.234 -1046.54)" fill="#cce9ff" fill-rule="evenodd"/><path d="M351.85,1122.628h3.415a.261.261,0,0,1,.27.312c-.07.432-.143.864-.212,1.3a.388.388,0,0,1-.376.31H351.5a.258.258,0,0,1-.27-.31q.114-.647.237-1.3a.411.411,0,0,1,.384-.312" transform="translate(-327.419 -1046.54)" fill="#cce9ff" fill-rule="evenodd"/><path d="M451.845,1122.628h3.415a.269.269,0,0,1,.278.312c-.052.431-.1.864-.155,1.3a.374.374,0,0,1-.368.31h-3.447a.266.266,0,0,1-.278-.31c.064-.431.124-.864.188-1.3a.386.386,0,0,1,.368-.312" transform="translate(-420.699 -1046.54)" fill="#cce9ff" fill-rule="evenodd"/><path d="M622.573,1122.628h30.292a.36.36,0,0,1,.352.312q.053.647.106,1.3a.284.284,0,0,1-.294.31H622.418a.29.29,0,0,1-.3-.31q.053-.647.106-1.3a.359.359,0,0,1,.351-.312" transform="translate(-579.949 -1046.54)" fill="#cce9ff" fill-rule="evenodd"/><path d="M1102.967,1122.628h3.407a.375.375,0,0,1,.368.312c.052.431.1.863.147,1.3a.275.275,0,0,1-.286.31h-3.447a.362.362,0,0,1-.359-.31q-.062-.649-.123-1.3a.284.284,0,0,1,.294-.312" transform="translate(-1027.936 -1046.54)" fill="#cce9ff" fill-rule="evenodd"/><path d="M1301.427,1122.628h3.415a.413.413,0,0,1,.392.312q.122.647.245,1.3a.258.258,0,0,1-.27.31h-3.447a.4.4,0,0,1-.384-.31c-.07-.432-.15-.863-.221-1.3a.265.265,0,0,1,.269-.312" transform="translate(-1212.965 -1046.54)" fill="#cce9ff" fill-rule="evenodd"/><path d="M541.622,1122.628h3.407a.29.29,0,0,1,.3.312l-.123,1.3a.362.362,0,0,1-.359.31H541.4a.282.282,0,0,1-.294-.31c.047-.432.094-.864.147-1.3a.374.374,0,0,1,.367-.312" transform="translate(-504.431 -1046.54)" fill="#cce9ff" fill-rule="evenodd"/><path d="M1403.3,1132.321h2.884a.275.275,0,0,1,.261.2c.065.284.124.569.188.852a.161.161,0,0,1-.172.2h-2.9a.278.278,0,0,1-.262-.2c-.058-.282-.113-.568-.171-.852a.167.167,0,0,1,.171-.2" transform="translate(-1308.026 -1055.576)" fill="#cce9ff" fill-rule="evenodd"/><path d="M1213.631,1132.321h2.868a.258.258,0,0,1,.253.2c.041.284.082.569.123.852a.171.171,0,0,1-.18.2H1213.8a.255.255,0,0,1-.254-.2q-.052-.426-.114-.852a.184.184,0,0,1,.2-.2" transform="translate(-1131.19 -1055.576)" fill="#cce9ff" fill-rule="evenodd"/><path d="M274.878,1002.366h3.268a.241.241,0,0,1,.237.312c-.082.43-.165.864-.253,1.3a.4.4,0,0,1-.376.311h-3.3a.239.239,0,0,1-.237-.311c.1-.432.193-.865.286-1.3a.413.413,0,0,1,.376-.312" transform="translate(-255.623 -934.429)" fill="#191467" fill-rule="evenodd"/><path d="M370.451,1002.366h3.26a.253.253,0,0,1,.253.312c-.07.431-.128.864-.2,1.3a.39.39,0,0,1-.368.311h-3.3a.252.252,0,0,1-.253-.311c.082-.432.155-.866.237-1.3a.4.4,0,0,1,.376-.312" transform="translate(-344.767 -934.429)" fill="#191467" fill-rule="evenodd"/><path d="M466.117,1002.366h3.259a.268.268,0,0,1,.27.312c-.052.431-.1.864-.156,1.3a.372.372,0,0,1-.359.311h-3.3a.26.26,0,0,1-.261-.311c.065-.432.124-.865.188-1.3a.376.376,0,0,1,.359-.312" transform="translate(-434.011 -934.429)" fill="#191467" fill-rule="evenodd"/><path d="M561.771,1002.366h3.268a.278.278,0,0,1,.278.312q-.053.648-.114,1.3a.353.353,0,0,1-.343.311h-3.3a.267.267,0,0,1-.269-.311c.052-.432.092-.865.139-1.3a.361.361,0,0,1,.343-.312" transform="translate(-523.244 -934.429)" fill="#191467" fill-rule="evenodd"/><path d="M657.432,1002.366h3.26a.294.294,0,0,1,.294.312c-.018.432-.042.864-.065,1.3a.34.34,0,0,1-.335.311h-3.292a.279.279,0,0,1-.286-.311c.035-.432.061-.864.09-1.3a.341.341,0,0,1,.335-.312" transform="translate(-612.476 -934.429)" fill="#191467" fill-rule="evenodd"/><path d="M752.972,1002.366h3.268a.308.308,0,0,1,.3.312c-.006.432-.01.864-.016,1.3a.32.32,0,0,1-.319.311h-3.3a.3.3,0,0,1-.3-.311c.012-.432.031-.864.049-1.3a.323.323,0,0,1,.319-.312" transform="translate(-701.595 -934.429)" fill="#191467" fill-rule="evenodd"/><path d="M848.62,1002.366h3.259a.328.328,0,0,1,.327.312c.005.432.021.864.032,1.3a.315.315,0,0,1-.319.311h-3.3a.311.311,0,0,1-.31-.311v-1.3a.311.311,0,0,1,.31-.312" transform="translate(-790.813 -934.429)" fill="#191467" fill-rule="evenodd"/><path d="M943.581,1002.366h3.26a.342.342,0,0,1,.343.312c.023.432.045.864.073,1.3a.293.293,0,0,1-.3.311h-3.3a.323.323,0,0,1-.319-.311c-.017-.432-.031-.864-.049-1.3a.293.293,0,0,1,.294-.312" transform="translate(-879.354 -934.429)" fill="#191467" fill-rule="evenodd"/><path d="M1038.532,1002.366h3.268a.36.36,0,0,1,.351.312q.062.648.123,1.3a.284.284,0,0,1-.294.311h-3.3a.334.334,0,0,1-.327-.311c-.029-.432-.063-.864-.1-1.3a.282.282,0,0,1,.278-.312" transform="translate(-967.883 -934.429)" fill="#191467" fill-rule="evenodd"/><path d="M1133.489,1002.366h3.268a.376.376,0,0,1,.36.312c.058.432.112.864.171,1.3a.273.273,0,0,1-.278.311H1133.7a.356.356,0,0,1-.343-.311c-.052-.432-.093-.864-.139-1.3a.269.269,0,0,1,.27-.312" transform="translate(-1056.411 -934.429)" fill="#191467" fill-rule="evenodd"/><path d="M1228.447,1002.366h3.26a.4.4,0,0,1,.376.312c.07.431.15.864.22,1.3a.265.265,0,0,1-.269.311h-3.292a.381.381,0,0,1-.368-.311c-.07-.431-.129-.864-.188-1.3a.257.257,0,0,1,.261-.312" transform="translate(-1144.939 -934.429)" fill="#191467" fill-rule="evenodd"/><path d="M1323.385,1002.366h5.955a.424.424,0,0,1,.392.312c.093.431.187.864.286,1.3a.244.244,0,0,1-.245.311h-6.021a.4.4,0,0,1-.376-.311c-.082-.432-.161-.865-.237-1.3a.251.251,0,0,1,.245-.312" transform="translate(-1233.456 -934.429)" fill="#191467" fill-rule="evenodd"/><path d="M1373.925,1039.852h-3.308a.247.247,0,0,0-.254.312c.087.431.166.865.254,1.3a.412.412,0,0,0,.392.31h3.35a.243.243,0,0,0,.245-.31c-.093-.431-.193-.865-.286-1.3a.415.415,0,0,0-.392-.312" transform="translate(-1277.478 -969.374)" fill="#191467" fill-rule="evenodd"/><path d="M1277.553,1039.852h-3.317a.259.259,0,0,0-.261.312c.07.432.142.864.213,1.3a.387.387,0,0,0,.375.31h3.349a.253.253,0,0,0,.262-.31q-.123-.648-.245-1.3a.394.394,0,0,0-.376-.312" transform="translate(-1187.624 -969.374)" fill="#191467" fill-rule="evenodd"/><path d="M1181.275,1039.852h-3.317a.268.268,0,0,0-.27.312c.053.431.111.864.163,1.3a.366.366,0,0,0,.36.31h3.341a.262.262,0,0,0,.278-.31c-.065-.431-.13-.864-.188-1.3a.376.376,0,0,0-.367-.312" transform="translate(-1097.866 -969.374)" fill="#191467" fill-rule="evenodd"/><path d="M1085,1039.852h-3.316a.277.277,0,0,0-.278.312q.053.647.114,1.3a.353.353,0,0,0,.344.31h3.349a.276.276,0,0,0,.286-.31c-.047-.431-.092-.865-.139-1.3a.364.364,0,0,0-.36-.312" transform="translate(-1008.109 -969.374)" fill="#191467" fill-rule="evenodd"/><path d="M988.594,1039.852h-3.309a.294.294,0,0,0-.3.312c.024.432.043.864.065,1.3a.338.338,0,0,0,.335.31h3.35a.3.3,0,0,0,.3-.31q-.044-.648-.1-1.3a.35.35,0,0,0-.343-.312" transform="translate(-918.223 -969.374)" fill="#191467" fill-rule="evenodd"/><path d="M892.306,1039.852H889a.3.3,0,0,0-.311.312c.012.432.011.863.016,1.3a.321.321,0,0,0,.327.31h3.341a.3.3,0,0,0,.31-.31c-.011-.432-.031-.864-.049-1.3a.331.331,0,0,0-.327-.312" transform="translate(-828.454 -969.374)" fill="#191467" fill-rule="evenodd"/><path d="M795.557,1039.852h-3.309a.328.328,0,0,0-.327.312c-.012.432-.013.863-.024,1.3a.3.3,0,0,0,.31.31h3.349a.31.31,0,0,0,.311-.31v-1.3a.311.311,0,0,0-.311-.312" transform="translate(-738.225 -969.374)" fill="#191467" fill-rule="evenodd"/><path d="M698.577,1039.852h-3.308a.339.339,0,0,0-.335.312c-.023.432-.044.864-.074,1.3a.289.289,0,0,0,.294.31H698.5a.329.329,0,0,0,.327-.31c.018-.432.031-.864.049-1.3a.3.3,0,0,0-.3-.312" transform="translate(-647.764 -969.374)" fill="#191467" fill-rule="evenodd"/><path d="M601.485,1039.852h-3.308a.353.353,0,0,0-.343.312c-.041.432-.09.863-.131,1.3a.281.281,0,0,0,.286.31h3.35a.35.35,0,0,0,.343-.31c.035-.431.06-.864.09-1.3a.284.284,0,0,0-.286-.312" transform="translate(-557.191 -969.374)" fill="#191467" fill-rule="evenodd"/><path d="M504.493,1039.852h-3.308a.373.373,0,0,0-.36.312c-.053.431-.113.864-.172,1.3a.267.267,0,0,0,.277.31h3.341a.363.363,0,0,0,.359-.31c.047-.431.092-.865.139-1.3a.274.274,0,0,0-.278-.312" transform="translate(-466.718 -969.374)" fill="#191467" fill-rule="evenodd"/><path d="M407.5,1039.852H404.2a.389.389,0,0,0-.367.312c-.076.431-.151.864-.221,1.3a.258.258,0,0,0,.261.31h3.349a.376.376,0,0,0,.359-.31c.064-.432.132-.864.2-1.3a.266.266,0,0,0-.27-.312" transform="translate(-376.248 -969.374)" fill="#191467" fill-rule="evenodd"/><path d="M272.617,1039.852h-6.037a.413.413,0,0,0-.384.312c-.094.431-.193.864-.286,1.3a.238.238,0,0,0,.237.31h6.111a.4.4,0,0,0,.376-.31c.076-.431.161-.864.237-1.3a.252.252,0,0,0-.253-.312" transform="translate(-247.88 -969.374)" fill="#191467" fill-rule="evenodd"/><path d="M1214.582,1077.875h-3.358a.267.267,0,0,0-.277.312c.064.432.121.864.179,1.3a.369.369,0,0,0,.359.311h3.4a.27.27,0,0,0,.278-.311c-.07-.432-.142-.864-.213-1.3a.381.381,0,0,0-.367-.312" transform="translate(-1128.869 -1004.82)" fill="#191467" fill-rule="evenodd"/><path d="M1116.859,1077.875H1113.5a.281.281,0,0,0-.286.312q.07.648.131,1.3a.355.355,0,0,0,.351.311h3.391a.276.276,0,0,0,.286-.311c-.053-.431-.1-.863-.155-1.3a.367.367,0,0,0-.36-.312" transform="translate(-1037.763 -1004.82)" fill="#191467" fill-rule="evenodd"/><path d="M1019.144,1077.875h-3.366a.292.292,0,0,0-.294.312c.023.432.052.863.082,1.3a.335.335,0,0,0,.335.311h3.4a.289.289,0,0,0,.294-.311c-.035-.432-.065-.864-.106-1.3a.353.353,0,0,0-.343-.312" transform="translate(-946.657 -1004.82)" fill="#191467" fill-rule="evenodd"/><path d="M921.292,1077.875h-3.358a.31.31,0,0,0-.318.312c.012.432.021.863.032,1.3a.331.331,0,0,0,.335.311h3.39a.3.3,0,0,0,.31-.311c-.018-.432-.039-.864-.057-1.3a.338.338,0,0,0-.335-.312" transform="translate(-855.423 -1004.82)" fill="#191467" fill-rule="evenodd"/><path d="M823.324,1077.875h-3.358a.327.327,0,0,0-.327.312c-.006.432-.016.864-.016,1.3a.318.318,0,0,0,.319.311h3.4a.312.312,0,0,0,.319-.311c-.006-.432,0-.864-.008-1.3a.321.321,0,0,0-.327-.312" transform="translate(-764.071 -1004.82)" fill="#191467" fill-rule="evenodd"/><path d="M724.9,1077.875h-3.358a.332.332,0,0,0-.335.312c-.017.432-.048.864-.066,1.3a.3.3,0,0,0,.311.311h3.39a.331.331,0,0,0,.335-.311c.012-.432.029-.864.041-1.3a.31.31,0,0,0-.318-.312" transform="translate(-672.265 -1004.82)" fill="#191467" fill-rule="evenodd"/><path d="M626.482,1077.875h-3.366a.345.345,0,0,0-.343.312c-.035.432-.079.864-.115,1.3a.283.283,0,0,0,.286.311h3.407a.344.344,0,0,0,.343-.311c.029-.432.052-.864.081-1.3a.291.291,0,0,0-.294-.312" transform="translate(-580.455 -1004.82)" fill="#191467" fill-rule="evenodd"/><path d="M528.036,1077.875h-3.357a.368.368,0,0,0-.36.312c-.058.432-.1.864-.155,1.3a.269.269,0,0,0,.278.311h3.4a.365.365,0,0,0,.359-.311q.07-.648.131-1.3a.284.284,0,0,0-.294-.312" transform="translate(-488.635 -1004.82)" fill="#191467" fill-rule="evenodd"/><path d="M429.6,1077.875h-3.358a.388.388,0,0,0-.367.312c-.07.432-.134.864-.2,1.3a.259.259,0,0,0,.261.311h3.4a.381.381,0,0,0,.376-.311c.064-.432.115-.864.18-1.3a.27.27,0,0,0-.286-.312" transform="translate(-396.812 -1004.82)" fill="#191467" fill-rule="evenodd"/><path d="M266.1,1077.875h-8.088a.409.409,0,0,0-.376.312c-.1.433-.195.864-.294,1.3a.24.24,0,0,0,.245.311h8.178a.4.4,0,0,0,.376-.311q.114-.647.229-1.3a.26.26,0,0,0-.27-.312" transform="translate(-239.894 -1004.82)" fill="#191467" fill-rule="evenodd"/><path d="M1316.444,1077.875h-8.088a.262.262,0,0,0-.278.312q.114.649.229,1.3a.393.393,0,0,0,.384.311h8.169a.25.25,0,0,0,.261-.311c-.1-.432-.194-.863-.294-1.3a.418.418,0,0,0-.383-.312" transform="translate(-1219.416 -1004.82)" fill="#191467" fill-rule="evenodd"/><path d="M249,1118.564h3.415a.249.249,0,0,1,.253.312c-.093.431-.172.865-.253,1.3a.41.41,0,0,1-.392.31h-3.448a.245.245,0,0,1-.253-.31c.093-.431.186-.864.286-1.3a.419.419,0,0,1,.392-.312" transform="translate(-231.482 -1042.751)" fill="#191467" fill-rule="evenodd"/><path d="M348.9,1118.564h3.415a.261.261,0,0,1,.27.312c-.07.432-.143.865-.213,1.3a.388.388,0,0,1-.376.31h-3.447a.259.259,0,0,1-.27-.31c.076-.431.155-.864.237-1.3a.41.41,0,0,1,.384-.312" transform="translate(-324.666 -1042.751)" fill="#191467" fill-rule="evenodd"/><path d="M448.892,1118.564h3.415a.269.269,0,0,1,.278.312c-.052.432-.1.865-.155,1.3a.374.374,0,0,1-.368.31h-3.448a.266.266,0,0,1-.277-.31c.064-.431.124-.864.188-1.3a.386.386,0,0,1,.368-.312" transform="translate(-417.947 -1042.751)" fill="#191467" fill-rule="evenodd"/><path d="M619.619,1118.564h30.292a.359.359,0,0,1,.352.312q.053.648.106,1.3a.284.284,0,0,1-.294.31H619.464a.291.291,0,0,1-.3-.31q.052-.648.106-1.3a.359.359,0,0,1,.351-.312" transform="translate(-577.196 -1042.751)" fill="#191467" fill-rule="evenodd"/><path d="M1100.018,1118.564h3.407a.375.375,0,0,1,.368.312c.053.432.1.863.147,1.3a.276.276,0,0,1-.286.31h-3.447a.362.362,0,0,1-.36-.31q-.061-.648-.122-1.3a.283.283,0,0,1,.294-.312" transform="translate(-1025.187 -1042.751)" fill="#191467" fill-rule="evenodd"/><path d="M1298.477,1118.564h3.415a.412.412,0,0,1,.392.312q.123.648.245,1.3a.258.258,0,0,1-.27.31h-3.447a.4.4,0,0,1-.384-.31c-.07-.433-.15-.864-.22-1.3a.265.265,0,0,1,.269-.312" transform="translate(-1210.215 -1042.751)" fill="#191467" fill-rule="evenodd"/><path d="M538.669,1118.564h3.407a.29.29,0,0,1,.3.312q-.061.648-.122,1.3a.362.362,0,0,1-.359.31h-3.448a.282.282,0,0,1-.294-.31c.047-.433.095-.864.147-1.3a.375.375,0,0,1,.367-.312" transform="translate(-501.678 -1042.751)" fill="#191467" fill-rule="evenodd"/><path d="M1400.345,1128.265h2.884a.275.275,0,0,1,.262.2c.065.284.124.57.188.852a.162.162,0,0,1-.172.2h-2.9a.278.278,0,0,1-.261-.2c-.058-.282-.113-.568-.172-.852a.167.167,0,0,1,.172-.2" transform="translate(-1305.269 -1051.795)" fill="#191467" fill-rule="evenodd"/><path d="M1210.676,1128.265h2.868a.257.257,0,0,1,.253.2c.041.284.082.569.123.852a.171.171,0,0,1-.18.2h-2.892a.254.254,0,0,1-.253-.2q-.053-.425-.115-.852a.183.183,0,0,1,.2-.2" transform="translate(-1128.435 -1051.795)" fill="#191467" fill-rule="evenodd"/><path d="M524.914,0l0,56.88H474.009L474.036,0Z" transform="translate(-441.882 -0.005)" fill="#fff" fill-rule="evenodd"/><rect width="33.806" height="1.107" transform="translate(40.464 3.8)" fill="#cce9ff"/><rect width="40.822" height="1.487" transform="translate(36.956 23.392)" fill="#cce9ff"/><rect width="40.822" height="1.487" transform="translate(36.956 26.366)" fill="#cce9ff"/><rect width="40.822" height="1.487" transform="translate(36.956 32.313)" fill="#cce9ff"/><rect width="40.822" height="1.487" transform="translate(36.956 35.287)" fill="#cce9ff"/><rect width="27.877" height="1.487" transform="translate(36.956 38.26)" fill="#cce9ff"/><rect width="40.822" height="1.487" transform="translate(36.956 13.481)" fill="#cce9ff"/><rect width="40.822" height="1.487" transform="translate(36.956 16.455)" fill="#cce9ff"/><rect width="27.877" height="1.487" transform="translate(36.956 19.429)" fill="#cce9ff"/><rect width="22.053" height="1.069" transform="translate(46.341 5.877)" fill="#cce9ff"/><rect width="40.822" height="1.487" transform="translate(36.956 10.508)" fill="#cce9ff"/><path d="M538.757,570.812a5.8,5.8,0,1,0,4.4.58,5.78,5.78,0,0,0-4.4-.58m5.112,3.16-.384.1a3.986,3.986,0,0,0-7.19,1.926l-.556.149.737,2.749.556-.149a3.986,3.986,0,0,0,7.19-1.927l.556-.149-.737-2.749Zm-.755.2-6.449,1.728a3.631,3.631,0,0,1,6.449-1.728M537.4,578.65l6.449-1.728a3.63,3.63,0,0,1-6.449,1.728m-1.227-2.249,7.615-2.04.552,2.062-7.615,2.04Zm-.629-2.711a5.442,5.442,0,1,1-.544,4.13,5.427,5.427,0,0,1,.544-4.13" transform="translate(-498.235 -531.939)" fill="#e9522a"/><rect width="12.228" height="1.487" transform="translate(67.087 51.656)" fill="#cce9ff"/><rect width="12.228" height="1.487" transform="translate(35.847 51.656)" fill="#cce9ff"/><path d="M903.283,640.73l.614-.537a11.788,11.788,0,0,0-1.193.205l-1.86.473,1.792-.688c.656-.252,1.354-.5,2.082-.732l.206-.194c.462-.442.9-.9,1.5-1.547l.2-.215,0,.419c0,.179,0,.526-.012.961,1.369-.393,2.808-.755,4.26-1.082a83.58,83.58,0,0,1,9.414-1.573l.023.224a83.347,83.347,0,0,0-9.387,1.569c-1.471.33-2.929.7-4.314,1.1l-.015.574.52-.044a.387.387,0,0,1,.178-.06.242.242,0,0,1,.146.035c1.606-.125,3.153-.208,3.9-.208a3.6,3.6,0,0,1,.782.049c.327.093.265.2-.039.319a4.122,4.122,0,0,1-.532.138,9.393,9.393,0,0,1-1.589.177c-.066-.155-.118-.2-.159-.185-.134.057-.3.39-.471.719-.194.38-.386.757-.6.814-.19.049-.357-.1-.485-.6a6.692,6.692,0,0,0-.3-1.023c-.013,0-.036.373-.056.682a1.856,1.856,0,0,1-.066.51.113.113,0,0,1-.172.054l-.054-.03,0-.062a2.486,2.486,0,0,0-.205-1.13l-.194.015-.057.043a.453.453,0,0,1-.157.092c-.139.033-.271.069-.4.107-.057,1.548-.188,3.3-.492,3.319a1.576,1.576,0,0,1-1.374-.636,1.463,1.463,0,0,1-.275-.7,1.5,1.5,0,0,1,.138-.8,2.851,2.851,0,0,1,1.792-1.351v0l-.027,0c-.73.065-1.435.137-2.043.211-.255.227-.535.473-.862.758Zm.911-.8.118-.106-.426.146Zm.639-.278-.252.232c.534-.061,1.126-.12,1.735-.173l.052,0,.01-.529q-.791.231-1.545.474m1.559-1.574c-.453.487-.817.862-1.184,1.218q.576-.18,1.174-.354c.006-.356.009-.658.01-.864m-.324,5.122a10.258,10.258,0,0,0,.288-3.023,2.578,2.578,0,0,0-1.582,1.206,1.268,1.268,0,0,0-.118.679,1.245,1.245,0,0,0,.233.6,1.352,1.352,0,0,0,1.179.542m1.532-3.369a1.453,1.453,0,0,1,.086.246,1.709,1.709,0,0,1,.046-.256Zm.5-.037a4.641,4.641,0,0,1,.343,1c.087.335.154.449.211.434.12-.031.289-.363.459-.7.186-.365.374-.733.583-.823l.027-.011c-.5.026-1.049.061-1.623.1m1.775-.11c.1.028.194.127.277.321,0,0,.762-.188,1.335-.308.086-.018.167-.036.24-.054-.107,0-.24-.007-.4-.007-.34,0-.846.017-1.448.048" transform="translate(-839.786 -593.099)" fill="#191467"/></g></svg>