<svg xmlns="http://www.w3.org/2000/svg" xmlns:xlink="http://www.w3.org/1999/xlink" width="96.452" height="144.24" viewBox="0 0 96.452 144.24"><defs><clipPath id="a"><rect width="96.452" height="144.24" fill="none"/></clipPath></defs><g transform="translate(0 0)"><g transform="translate(0 0)" clip-path="url(#a)"><path d="M18.16,40.979a27.8,27.8,0,1,1,55.607,0V73.152H86.94V40.979a40.976,40.976,0,1,0-81.952,0V73.152H18.16Z" transform="translate(2.262 -0.001)" fill="#828282"/><path d="M0,40.242V80.354a48.227,48.227,0,0,0,96.454,0V40.242a5.711,5.711,0,0,0-5.712-5.707H5.71A5.712,5.712,0,0,0,0,40.242" transform="translate(0 15.663)" fill="#e79973"/><path d="M0,40.242V80.354a48.227,48.227,0,0,0,96.454,0V40.242a5.711,5.711,0,0,0-5.712-5.707H5.71A5.712,5.712,0,0,0,0,40.242" transform="translate(0 15.663)" fill="#383097"/><path d="M36.844,49.787a11.725,11.725,0,0,1,6.886,21.239L45.462,78.1c1.734,7.054-2.125,12.771-8.618,12.771S26.5,85.156,28.221,78.1l1.737-7.076a11.727,11.727,0,0,1,6.886-21.239" transform="translate(11.379 22.581)"/><path d="M37.642,94.23A11.206,11.206,0,0,1,28.6,90.009a13.594,13.594,0,0,1-2.066-11.714l1.356-5.524a14.317,14.317,0,1,1,19.5,0l1.352,5.521A13.582,13.582,0,0,1,46.692,90a11.21,11.21,0,0,1-9.05,4.227m0-41.086a9.2,9.2,0,0,0-9.2,9.192,9.1,9.1,0,0,0,3.816,7.42l1.388,1.01L31.5,79.511a8.543,8.543,0,0,0,1.122,7.338,6.107,6.107,0,0,0,5.016,2.263,6.112,6.112,0,0,0,5.022-2.266,8.539,8.539,0,0,0,1.112-7.333l-2.141-8.748,1.39-1.01a9.093,9.093,0,0,0,3.817-7.419,9.206,9.206,0,0,0-9.2-9.192" transform="translate(10.581 21.783)" fill="#191467"/><path d="M36.844,49.787a11.725,11.725,0,0,1,6.886,21.239L45.462,78.1c1.734,7.054-2.125,12.771-8.618,12.771S26.5,85.156,28.221,78.1l1.737-7.076a11.727,11.727,0,0,1,6.886-21.239" transform="translate(11.379 22.581)" fill="#fff"/><path d="M11.424,61.372a3.7,3.7,0,1,1-3.7,3.7,3.7,3.7,0,0,1,3.7-3.7" transform="translate(3.505 27.835)" fill="#828282"/><path d="M8.809,67.69l5.23-5.233a3.7,3.7,0,1,0-5.23,5.233" transform="translate(3.504 27.836)" fill="#ccc"/><path d="M10.933,62.461a2.121,2.121,0,1,1-2.122,2.121,2.121,2.121,0,0,1,2.122-2.121" transform="translate(3.996 28.329)" fill="#fff"/><path d="M6.4,80.356V40.932h83.59l4.755-4.755a5.686,5.686,0,0,0-4-1.643H5.708A5.712,5.712,0,0,0,0,40.243V80.356a48.035,48.035,0,0,0,15.351,35.212l4.537-4.537A41.672,41.672,0,0,1,6.4,80.356" transform="translate(0 15.663)" fill="#cce9ff"/><path d="M91.662,79.843V39.731a5.674,5.674,0,0,0-1.712-4.066L85.2,40.42h.071V79.843A41.762,41.762,0,0,1,15.1,110.519l-4.535,4.537a48.174,48.174,0,0,0,81.1-35.212" transform="translate(4.791 16.176)" fill="#a7d0ea"/></g></g></svg>