<svg xmlns="http://www.w3.org/2000/svg" xmlns:xlink="http://www.w3.org/1999/xlink" width="77.944" height="77.41" viewBox="0 0 77.944 77.41"><defs><clipPath id="a"><rect width="77.944" height="77.41" fill="#e9522a"/></clipPath></defs><g clip-path="url(#a)"><path d="M72.1,91.069a6.007,6.007,0,0,0-7.656,3.393c-.146.34-.275.688-.4,1.035-.091.247-.183.495-.281.739a26.632,26.632,0,0,1-27.491,16.626,26.02,26.02,0,0,1-14.29-5.954l.7-.254c1.376-.5,2.7-.974,4.024-1.46.85-.312,1.334-.769,1.438-1.358a1.945,1.945,0,0,0-.891-1.778Q17.472,93.776,7.679,85.5a2.088,2.088,0,0,0-1.94-.656c-.737.265-.977,1.143-1.093,1.781q-2.289,12.6-4.582,25.2A1.947,1.947,0,0,0,.5,113.768a1.933,1.933,0,0,0,1.97.126l1.344-.469c1.648-.574,3.352-1.167,5.009-1.818.542-.214.712-.165,1.141.319a37.787,37.787,0,0,0,24.9,12.893,40.215,40.215,0,0,0,4.341.238,37.643,37.643,0,0,0,19.144-5.224A38.376,38.376,0,0,0,75.668,98.742,5.994,5.994,0,0,0,72.1,91.069M22.39,103.446c-.435.157-.871.311-1.307.466-.769.272-1.563.552-2.34.848a1.759,1.759,0,0,0-1.267,1.255,1.783,1.783,0,0,0,.708,1.663c7.412,6.959,16.023,9.664,25.6,8.035,10.713-1.821,18.387-7.939,22.808-18.184.16-.37.3-.748.446-1.126.092-.244.185-.488.282-.73a2.887,2.887,0,1,1,5.4,2.052,35.38,35.38,0,0,1-9.946,15.092,34.155,34.155,0,0,1-19.7,8.854c-12.5,1.243-23.042-2.941-31.356-12.468-.723-.828-1.11-1.172-1.7-1.172a4.6,4.6,0,0,0-1.432.359c-1.459.525-2.919,1.049-4.439,1.594l-.623.223L7.292,89.259l16.273,13.752c-.4.151-.789.294-1.175.434" transform="translate(0 -47.649)" fill="#e9522a"/><path d="M80.245,11.262a1.945,1.945,0,0,0-1.979-.128c-.539.19-1.08.375-1.621.56-1.48.507-3.01,1.031-4.488,1.637-.7.288-.969.214-1.584-.443C60.1,1.707,47.22-2.226,32.283,1.2A37.079,37.079,0,0,0,12.922,12.907,35.271,35.271,0,0,0,5.28,25.921a5.539,5.539,0,0,0,1.67,6,5.723,5.723,0,0,0,6.462,1.117,6.249,6.249,0,0,0,3.451-3.918,25.437,25.437,0,0,1,8.385-11.357,26.677,26.677,0,0,1,33.5.34l-1.327.484q-1.655.6-3.308,1.209c-.335.123-1.354.5-1.509,1.372s.662,1.563.931,1.791q9.806,8.327,19.628,16.636a2.286,2.286,0,0,0,1.425.645,1.294,1.294,0,0,0,.424-.071,1.9,1.9,0,0,0,1.1-1.58l.033-.155c.034-.159.067-.318.1-.479l4.449-24.77a1.928,1.928,0,0,0-.441-1.921m-21.568,10.2c1.108-.393,2.215-.787,3.316-1.2a1.759,1.759,0,0,0,1.277-1.255,1.771,1.771,0,0,0-.7-1.661C55.21,10.45,46.628,7.742,37.064,9.3c-9.544,1.556-16.8,6.738-21.567,15.4-.418.759-.77,1.555-1.111,2.325-.282.636-.572,1.294-.893,1.911a2.746,2.746,0,0,1-1.764,1.408A2.883,2.883,0,0,1,8.305,26.54c3.508-9.216,9.583-15.908,18.054-19.891,10.72-5.04,21.566-4.826,32.237.639a33.827,33.827,0,0,1,10.061,8.072l.191.216c.152.171.3.333.421.5a2.012,2.012,0,0,0,2.561.7c1.482-.569,2.968-1.1,4.543-1.654l.866-.307-3.774,20.97-16.3-13.781q.758-.272,1.517-.541" transform="translate(-2.805 -0.001)" fill="#e9522a"/></g></svg>