<svg xmlns="http://www.w3.org/2000/svg" xmlns:xlink="http://www.w3.org/1999/xlink" width="30" height="30" viewBox="0 0 30 30"><defs><clipPath id="a"><rect width="30" height="30" transform="translate(0 0)" fill="none"/></clipPath></defs><g transform="translate(0 0.001)"><g transform="translate(0 -0.001)" clip-path="url(#a)"><path d="M30,15A15,15,0,1,1,15,0,15,15,0,0,1,30,15" transform="translate(0 0.001)" fill="#333d45" fill-rule="evenodd"/><path d="M111.813,103.982a1.374,1.374,0,0,1,.447-1.053,1.639,1.639,0,0,1,1.161-.415,1.59,1.59,0,0,1,1.136.408,1.439,1.439,0,0,1,.447,1.1,1.344,1.344,0,0,1-.434,1.021,1.641,1.641,0,0,1-1.174.421h-.013a1.562,1.562,0,0,1-1.136-.421,1.414,1.414,0,0,1-.434-1.059m.166,2.642h2.833v8.525h-2.833Zm4.4,8.525h2.833v-4.76a1.662,1.662,0,0,1,.644-1.423,1.387,1.387,0,0,1,.912-.3q1.429,0,1.429,1.927v4.556h2.833V110.26a4.108,4.108,0,0,0-.893-2.865,3.047,3.047,0,0,0-2.361-.976,2.9,2.9,0,0,0-2.565,1.417v.026H119.2l.013-.026v-1.212h-2.833q.026.408.026,2.54t-.026,5.985" transform="translate(-102.948 -94.386)" fill="#fff"/></g></g></svg>