<svg xmlns="http://www.w3.org/2000/svg" xmlns:xlink="http://www.w3.org/1999/xlink" width="136.098" height="108.208" viewBox="0 0 136.098 108.208"><defs><clipPath id="a"><rect width="124.538" height="91.768" fill="none"/></clipPath><clipPath id="c"><rect width="75.094" height="18.482" fill="none"/></clipPath><clipPath id="d"><rect width="83.334" height="17.492" fill="none"/></clipPath></defs><g transform="translate(0 17.332) rotate(-8)"><g clip-path="url(#a)"><g clip-path="url(#a)"><path d="M0,13.46l27.936,4.1,1.654-8.27S3.889-.128,3.87,0,0,13.46,0,13.46" transform="translate(4.315 34.838)" fill="#e9522a"/><path d="M1.844,0,.08,12.029a7.047,7.047,0,0,0,5.785,8.108l10.228,1.5a7.047,7.047,0,0,0,7.87-6.106l.713-4.861Z" transform="translate(1.609 57.081)" fill="#321e96"/><path d="M7.016,9.255a3.573,3.573,0,0,0,2.8-.687,7.427,7.427,0,0,1,1,2.97L14.25,8.866,11.722,3.217s-.569-1.16-.65-1.286A3.437,3.437,0,0,0,9.008.39C5.439-.425.63-.092.1,2.625-.5,5.684,1.563,8.207,7.016,9.255" transform="translate(7.614 9.962)" fill="#321e96"/><path d="M0,19.744,24.767,0,75.89,7.5,92.568,33.32Z" transform="translate(18.34 3)" fill="#cce9ff"/><g transform="translate(22.854 1.618)" opacity="0.1"><g clip-path="url(#c)"><path d="M2.815,18.438c20.165-4.969,53.522-4.752,72.25-3.372.4.03-3.487-7.568-3.487-7.568L20.456,0,0,17.686c1.151-.108,1.687,1.031,2.815.753" transform="translate(0 0)" fill="#fff"/></g></g><path d="M68.8,1.612l-.422-.062-1.406-.206c-1.494-.2-3.11-.4-4.774-.556-4.406-.4-7.975-.7-10.964-.77-6.072-.154-9.759.606-13.2,3.228A183.277,183.277,0,0,0,23.353,16c-.259.248-.953.961-1.912,1.884-.868.835-1.949,1.844-3.118,2.837-.779.663-1.6,1.32-2.417,1.917A27.919,27.919,0,0,1,9.413,25.98c-6.459,2.4-6.828,11.211-9.2,27.37-.655,4.467.305,6.625,1.327,7.8A7.207,7.207,0,0,0,2.7,62.222C5.034,64,9.718,66.006,17.614,68.051q3.677.942,8.345,1.917c1.161.243,2.368.48,3.622.722,3.746.706,7.377,1.328,11.007,1.918,4.991.8,9.994,1.55,15.338,2.357l2.113.31.322.047,6.883-46.931-.846-.124c-5.645-.837-11.264-1.857-16.864-3.022-7.311-1.52-14.592-3.282-21.856-5.185a.023.023,0,0,0,.008-.01c3.182-3.588,11.343-12.06,16.257-14.319,0,0,3.241.013,8.4.334,4.324.273,10,.761,16.247,1.637l1.649.242.92-6.278ZM8.256,39.173A2.472,2.472,0,0,1,11.487,37.2l18.449,6.243a.784.784,0,0,1,.4,1.232l-.216.295-3.195,4.323a1.2,1.2,0,0,1-.371.327,1.259,1.259,0,0,1-.872.15L8.992,46.231a1.875,1.875,0,0,1-1.463-2.107Z" transform="translate(0 0)" fill="#383097"/><path d="M27.936,14.01,0,9.913l.79-8.4S28.112-.122,28.093.007s-.157,14-.157,14" transform="translate(89.59 50.892)" fill="#e9522a"/><path d="M25.727,0,23.963,12.029a7.047,7.047,0,0,1-7.87,6.106l-10.228-1.5A7.047,7.047,0,0,1,.08,8.526L.793,3.665Z" transform="translate(90.103 73.562)" fill="#321e96"/><path d="M6.817,9.07A3.575,3.575,0,0,1,4.33,7.607a7.431,7.431,0,0,0-1.807,2.559L0,6.62,4.043,1.935S4.921.988,5.035.89A3.439,3.439,0,0,1,7.455.006c3.652.245,8.164,1.944,7.892,4.7-.309,3.1-3,4.926-8.529,4.364" transform="translate(109.179 25.014)" fill="#321e96"/><path d="M61.056,40.448A27.915,27.915,0,0,1,55.8,35.379c-.613-.806-1.208-1.671-1.764-2.53-.834-1.287-1.581-2.564-2.172-3.613-.654-1.159-1.114-2.042-1.29-2.354a183.31,183.31,0,0,0-10.4-16.428,15.183,15.183,0,0,0-1.829-2.095c-3.779-3.574-9.435-4.929-20.615-7.2C16.087.836,14.483.56,13,.323L11.589.116,11.168.054,10.8,0,9.882,6.278l1.649.242A203.425,203.425,0,0,1,35.71,11.71a13.816,13.816,0,0,1,1.109,1.108,27.031,27.031,0,0,1,1.747,2.161,101.779,101.779,0,0,1,8.612,15.128c-5.348-.186-10.679-.445-15.994-.814-7.862-.54-15.684-1.315-23.454-2.443l-.846-.124L0,73.656l.043.006.322.047,2.071.3c4.447.632,8.658,1.241,12.835,1.807,4.5.608,8.958,1.169,13.627,1.663,1.27.129,2.5.247,3.677.348,3.17.277,6.019.458,8.55.56,8.142.307,13.206-.271,15.956-1.3A7.074,7.074,0,0,0,58.5,76.4c1.316-.833,2.856-2.624,3.511-7.091,2.37-16.159,4.545-24.7-.952-28.859M37.589,57.75l-1.818-5.058-.123-.345a.785.785,0,0,1,.734-1.066L55.847,50.6a2.473,2.473,0,0,1,2.529,2.819l-.726,4.951a1.875,1.875,0,0,1-2,1.6l-17-1.4a1.253,1.253,0,0,1-.794-.4,1.187,1.187,0,0,1-.26-.417" transform="translate(57.996 1.612)" fill="#383097"/><path d="M81.507,19.2c-3.477-.14-7.546-.428-12.226-.909-9.007-.951-17.218-2.155-26.461-3.47l-2.071-.3-.322-.047-2.115-.31c-9.231-1.395-17.442-2.6-26.343-4.275C7.347,9,3.367,8.11,0,7.246L6.719,3.318A24.083,24.083,0,0,1,22.422.256L62.032,6.065a24.085,24.085,0,0,1,14.162,7.443Z" transform="translate(17.613 60.806)" fill="#321e96"/><g transform="translate(14.777 25.216)" opacity="0.2"><g clip-path="url(#d)"><path d="M7.413,0,0,6.094S42.176,22.23,83.334,16.1A568.488,568.488,0,0,1,7.413,0" transform="translate(0 0)" fill="#fff"/></g></g></g></g></g></svg>