<svg xmlns="http://www.w3.org/2000/svg" xmlns:xlink="http://www.w3.org/1999/xlink" width="263.769" height="108.208" viewBox="0 0 263.769 108.208"><defs><clipPath id="a"><rect width="98.616" height="72.666" fill="none"/></clipPath><clipPath id="c"><rect width="59.463" height="14.635" fill="none"/></clipPath><clipPath id="d"><rect width="65.988" height="13.851" fill="none"/></clipPath><clipPath id="i"><rect width="124.538" height="91.768" fill="none"/></clipPath><clipPath id="k"><rect width="75.094" height="18.482" fill="none"/></clipPath><clipPath id="l"><rect width="83.334" height="17.492" fill="none"/></clipPath></defs><g transform="translate(156 17.332) rotate(-8)" opacity="0.6"><g clip-path="url(#a)"><g clip-path="url(#a)"><path d="M0,10.658,22.121,13.9l1.31-6.549S3.08-.1,3.065,0,0,10.658,0,10.658" transform="translate(3.417 27.587)" fill="#e9522a"/><path d="M1.46,0,.063,9.525a5.58,5.58,0,0,0,4.581,6.421l8.1,1.188A5.58,5.58,0,0,0,18.975,12.3l.565-3.849Z" transform="translate(1.274 45.199)" fill="#321e96"/><path d="M5.556,7.328a2.829,2.829,0,0,0,2.219-.544,5.881,5.881,0,0,1,.789,2.352l2.72-2.116-2-4.473s-.45-.918-.514-1.018A2.721,2.721,0,0,0,7.133.309C4.307-.336.5-.073.078,2.079-.392,4.5,1.238,6.5,5.556,7.328" transform="translate(6.029 7.888)" fill="#321e96"/><path d="M0,15.634,19.612,0,60.094,5.937,73.3,26.385Z" transform="translate(14.523 2.376)" fill="#cce9ff"/><g transform="translate(18.097 1.281)" opacity="0.1"><g clip-path="url(#c)"><path d="M2.229,14.6C18.2,10.666,44.61,10.838,59.44,11.93c.318.023-2.761-5.993-2.761-5.993L16.2,0,0,14c.912-.086,1.336.816,2.229.6" transform="translate(0 0)" fill="#fff"/></g></g><path d="M54.479,1.277l-.334-.049-1.113-.163c-1.183-.158-2.462-.313-3.78-.44C45.763.305,42.936.074,40.57.015c-4.808-.122-7.728.48-10.455,2.556a145.128,145.128,0,0,0-11.623,10.1c-.205.2-.755.761-1.514,1.492-.687.661-1.544,1.46-2.469,2.247-.617.525-1.265,1.045-1.914,1.518a22.108,22.108,0,0,1-5.142,2.649C2.339,22.477,2.047,29.45.17,42.246c-.519,3.537.242,5.246,1.051,6.177a5.707,5.707,0,0,0,.917.848c1.849,1.406,5.558,3,11.811,4.616q2.911.746,6.608,1.518c.919.192,1.875.38,2.868.572,2.966.559,5.841,1.051,8.716,1.518,3.952.637,7.914,1.227,12.145,1.866l1.673.245.255.037,5.45-37.162-.67-.1c-4.47-.663-8.919-1.47-13.354-2.393-5.789-1.2-11.555-2.6-17.306-4.106a.018.018,0,0,0,.006-.008c2.519-2.841,8.982-9.55,12.873-11.339,0,0,2.566.01,6.654.264,3.424.216,7.919.6,12.865,1.3l1.306.191.729-4.971ZM6.537,31.019A1.958,1.958,0,0,1,9.1,29.456L23.7,34.4a.621.621,0,0,1,.315.975l-.171.233-2.53,3.423a.952.952,0,0,1-.294.259,1,1,0,0,1-.69.118L7.12,36.608A1.484,1.484,0,0,1,5.962,34.94Z" transform="translate(0 0)" fill="#383097"/><path d="M22.121,11.094,0,7.849.626,1.2S22.261-.1,22.246.006s-.124,11.088-.124,11.088" transform="translate(70.942 40.299)" fill="#e9522a"/><path d="M20.372,0l-1.4,9.525a5.58,5.58,0,0,1-6.232,4.835l-8.1-1.188A5.58,5.58,0,0,1,.063,6.751L.628,2.9Z" transform="translate(71.348 58.25)" fill="#321e96"/><path d="M5.4,7.182A2.831,2.831,0,0,1,3.429,6.024,5.885,5.885,0,0,0,2,8.05L0,5.242l3.2-3.71S3.9.782,3.987.7A2.723,2.723,0,0,1,5.9.005C8.8.2,12.368,1.545,12.152,3.727c-.244,2.455-2.379,3.9-6.754,3.455" transform="translate(86.454 19.807)" fill="#321e96"/><path d="M48.347,32.029a22.1,22.1,0,0,1-4.164-4.014c-.485-.639-.957-1.323-1.4-2-.661-1.019-1.252-2.03-1.72-2.861-.517-.918-.882-1.617-1.022-1.864A145.159,145.159,0,0,0,31.81,8.278a12.023,12.023,0,0,0-1.448-1.659c-2.992-2.83-7.471-3.9-16.324-5.7-1.3-.257-2.569-.475-3.743-.663L9.177.091,8.843.042,8.554,0,7.825,4.971l1.306.192a161.082,161.082,0,0,1,19.146,4.11,10.943,10.943,0,0,1,.878.877,21.408,21.408,0,0,1,1.383,1.711,80.6,80.6,0,0,1,6.82,11.979c-4.235-.147-8.456-.352-12.665-.645-6.226-.428-12.42-1.041-18.572-1.934l-.67-.1L0,58.325l.034,0,.255.037,1.64.24c3.522.5,6.856.983,10.163,1.431,3.563.481,7.093.926,10.791,1.317,1.006.1,1.976.2,2.912.276,2.51.22,4.766.363,6.77.444,6.447.243,10.457-.215,12.634-1.032A5.6,5.6,0,0,0,46.32,60.5c1.042-.66,2.261-2.078,2.78-5.615,1.877-12.8,3.6-19.559-.754-22.852m-18.582,13.7-1.44-4.005-.1-.273a.621.621,0,0,1,.581-.844l15.414-.54a1.958,1.958,0,0,1,2,2.232l-.575,3.92a1.484,1.484,0,0,1-1.586,1.266L30.6,46.373a.992.992,0,0,1-.629-.314.94.94,0,0,1-.206-.33" transform="translate(45.924 1.277)" fill="#383097"/><path d="M64.541,15.2c-2.753-.111-5.975-.339-9.681-.72-7.132-.753-13.634-1.707-20.954-2.748l-1.64-.241-.255-.037-1.675-.245c-7.31-1.1-13.812-2.058-20.86-3.385C5.818,7.128,2.666,6.422,0,5.738l5.321-3.11A19.071,19.071,0,0,1,17.755.2L49.12,4.8A19.072,19.072,0,0,1,60.335,10.7Z" transform="translate(13.947 48.149)" fill="#321e96"/><g transform="translate(11.701 19.967)" opacity="0.2"><g clip-path="url(#d)"><path d="M5.87,0,0,4.826S33.4,17.6,65.988,12.751A450.157,450.157,0,0,1,5.87,0" transform="translate(0 0)" fill="#fff"/></g></g></g></g></g><g transform="translate(0 17.332) rotate(-8)" opacity="0.6"><g clip-path="url(#a)"><g clip-path="url(#a)"><path d="M0,10.658,22.121,13.9l1.31-6.549S3.08-.1,3.065,0,0,10.658,0,10.658" transform="translate(3.417 27.587)" fill="#e9522a"/><path d="M1.46,0,.063,9.525a5.58,5.58,0,0,0,4.581,6.421l8.1,1.188A5.58,5.58,0,0,0,18.975,12.3l.565-3.849Z" transform="translate(1.274 45.199)" fill="#321e96"/><path d="M5.556,7.328a2.829,2.829,0,0,0,2.219-.544,5.881,5.881,0,0,1,.789,2.352l2.72-2.116-2-4.473s-.45-.918-.514-1.018A2.721,2.721,0,0,0,7.133.309C4.307-.336.5-.073.078,2.079-.392,4.5,1.238,6.5,5.556,7.328" transform="translate(6.029 7.888)" fill="#321e96"/><path d="M0,15.634,19.612,0,60.094,5.937,73.3,26.385Z" transform="translate(14.523 2.376)" fill="#cce9ff"/><g transform="translate(18.097 1.281)" opacity="0.1"><g clip-path="url(#c)"><path d="M2.229,14.6C18.2,10.666,44.61,10.838,59.44,11.93c.318.023-2.761-5.993-2.761-5.993L16.2,0,0,14c.912-.086,1.336.816,2.229.6" transform="translate(0 0)" fill="#fff"/></g></g><path d="M54.479,1.277l-.334-.049-1.113-.163c-1.183-.158-2.462-.313-3.78-.44C45.763.305,42.936.074,40.57.015c-4.808-.122-7.728.48-10.455,2.556a145.128,145.128,0,0,0-11.623,10.1c-.205.2-.755.761-1.514,1.492-.687.661-1.544,1.46-2.469,2.247-.617.525-1.265,1.045-1.914,1.518a22.108,22.108,0,0,1-5.142,2.649C2.339,22.477,2.047,29.45.17,42.246c-.519,3.537.242,5.246,1.051,6.177a5.707,5.707,0,0,0,.917.848c1.849,1.406,5.558,3,11.811,4.616q2.911.746,6.608,1.518c.919.192,1.875.38,2.868.572,2.966.559,5.841,1.051,8.716,1.518,3.952.637,7.914,1.227,12.145,1.866l1.673.245.255.037,5.45-37.162-.67-.1c-4.47-.663-8.919-1.47-13.354-2.393-5.789-1.2-11.555-2.6-17.306-4.106a.018.018,0,0,0,.006-.008c2.519-2.841,8.982-9.55,12.873-11.339,0,0,2.566.01,6.654.264,3.424.216,7.919.6,12.865,1.3l1.306.191.729-4.971ZM6.537,31.019A1.958,1.958,0,0,1,9.1,29.456L23.7,34.4a.621.621,0,0,1,.315.975l-.171.233-2.53,3.423a.952.952,0,0,1-.294.259,1,1,0,0,1-.69.118L7.12,36.608A1.484,1.484,0,0,1,5.962,34.94Z" transform="translate(0 0)" fill="#383097"/><path d="M22.121,11.094,0,7.849.626,1.2S22.261-.1,22.246.006s-.124,11.088-.124,11.088" transform="translate(70.942 40.299)" fill="#e9522a"/><path d="M20.372,0l-1.4,9.525a5.58,5.58,0,0,1-6.232,4.835l-8.1-1.188A5.58,5.58,0,0,1,.063,6.751L.628,2.9Z" transform="translate(71.348 58.25)" fill="#321e96"/><path d="M5.4,7.182A2.831,2.831,0,0,1,3.429,6.024,5.885,5.885,0,0,0,2,8.05L0,5.242l3.2-3.71S3.9.782,3.987.7A2.723,2.723,0,0,1,5.9.005C8.8.2,12.368,1.545,12.152,3.727c-.244,2.455-2.379,3.9-6.754,3.455" transform="translate(86.454 19.807)" fill="#321e96"/><path d="M48.347,32.029a22.1,22.1,0,0,1-4.164-4.014c-.485-.639-.957-1.323-1.4-2-.661-1.019-1.252-2.03-1.72-2.861-.517-.918-.882-1.617-1.022-1.864A145.159,145.159,0,0,0,31.81,8.278a12.023,12.023,0,0,0-1.448-1.659c-2.992-2.83-7.471-3.9-16.324-5.7-1.3-.257-2.569-.475-3.743-.663L9.177.091,8.843.042,8.554,0,7.825,4.971l1.306.192a161.082,161.082,0,0,1,19.146,4.11,10.943,10.943,0,0,1,.878.877,21.408,21.408,0,0,1,1.383,1.711,80.6,80.6,0,0,1,6.82,11.979c-4.235-.147-8.456-.352-12.665-.645-6.226-.428-12.42-1.041-18.572-1.934l-.67-.1L0,58.325l.034,0,.255.037,1.64.24c3.522.5,6.856.983,10.163,1.431,3.563.481,7.093.926,10.791,1.317,1.006.1,1.976.2,2.912.276,2.51.22,4.766.363,6.77.444,6.447.243,10.457-.215,12.634-1.032A5.6,5.6,0,0,0,46.32,60.5c1.042-.66,2.261-2.078,2.78-5.615,1.877-12.8,3.6-19.559-.754-22.852m-18.582,13.7-1.44-4.005-.1-.273a.621.621,0,0,1,.581-.844l15.414-.54a1.958,1.958,0,0,1,2,2.232l-.575,3.92a1.484,1.484,0,0,1-1.586,1.266L30.6,46.373a.992.992,0,0,1-.629-.314.94.94,0,0,1-.206-.33" transform="translate(45.924 1.277)" fill="#383097"/><path d="M64.541,15.2c-2.753-.111-5.975-.339-9.681-.72-7.132-.753-13.634-1.707-20.954-2.748l-1.64-.241-.255-.037-1.675-.245c-7.31-1.1-13.812-2.058-20.86-3.385C5.818,7.128,2.666,6.422,0,5.738l5.321-3.11A19.071,19.071,0,0,1,17.755.2L49.12,4.8A19.072,19.072,0,0,1,60.335,10.7Z" transform="translate(13.947 48.149)" fill="#321e96"/><g transform="translate(11.701 19.967)" opacity="0.2"><g clip-path="url(#d)"><path d="M5.87,0,0,4.826S33.4,17.6,65.988,12.751A450.157,450.157,0,0,1,5.87,0" transform="translate(0 0)" fill="#fff"/></g></g></g></g></g><g transform="translate(64.093 17.332) rotate(-8)"><g transform="translate(0 0)" clip-path="url(#i)"><g clip-path="url(#i)"><path d="M0,13.46l27.936,4.1,1.654-8.27S3.889-.128,3.87,0,0,13.46,0,13.46" transform="translate(4.315 34.838)" fill="#e9522a"/><path d="M1.844,0,.08,12.029a7.047,7.047,0,0,0,5.785,8.108l10.228,1.5a7.047,7.047,0,0,0,7.87-6.106l.713-4.861Z" transform="translate(1.609 57.081)" fill="#321e96"/><path d="M7.016,9.255a3.573,3.573,0,0,0,2.8-.687,7.427,7.427,0,0,1,1,2.97L14.25,8.866,11.722,3.217s-.569-1.16-.65-1.286A3.437,3.437,0,0,0,9.008.39C5.439-.425.63-.092.1,2.625-.5,5.684,1.563,8.207,7.016,9.255" transform="translate(7.614 9.962)" fill="#321e96"/><path d="M0,19.744,24.767,0,75.89,7.5,92.568,33.32Z" transform="translate(18.34 3)" fill="#cce9ff"/><g transform="translate(22.854 1.618)" opacity="0.1"><g clip-path="url(#k)"><path d="M2.815,18.438c20.165-4.969,53.522-4.752,72.25-3.372.4.03-3.487-7.568-3.487-7.568L20.456,0,0,17.686c1.151-.108,1.687,1.031,2.815.753" transform="translate(0 0)" fill="#fff"/></g></g><path d="M68.8,1.612l-.422-.062-1.406-.206c-1.494-.2-3.11-.4-4.774-.556-4.406-.4-7.975-.7-10.964-.77-6.072-.154-9.759.606-13.2,3.228A183.277,183.277,0,0,0,23.353,16c-.259.248-.953.961-1.912,1.884-.868.835-1.949,1.844-3.118,2.837-.779.663-1.6,1.32-2.417,1.917A27.919,27.919,0,0,1,9.413,25.98c-6.459,2.4-6.828,11.211-9.2,27.37-.655,4.467.305,6.625,1.327,7.8A7.207,7.207,0,0,0,2.7,62.222C5.034,64,9.718,66.006,17.614,68.051q3.677.942,8.345,1.917c1.161.243,2.368.48,3.622.722,3.746.706,7.377,1.328,11.007,1.918,4.991.8,9.994,1.55,15.338,2.357l2.113.31.322.047,6.883-46.931-.846-.124c-5.645-.837-11.264-1.857-16.864-3.022-7.311-1.52-14.592-3.282-21.856-5.185a.023.023,0,0,0,.008-.01c3.182-3.588,11.343-12.06,16.257-14.319,0,0,3.241.013,8.4.334,4.324.273,10,.761,16.247,1.637l1.649.242.92-6.278ZM8.256,39.173A2.472,2.472,0,0,1,11.487,37.2l18.449,6.243a.784.784,0,0,1,.4,1.232l-.216.295-3.195,4.323a1.2,1.2,0,0,1-.371.327,1.259,1.259,0,0,1-.872.15L8.992,46.231a1.875,1.875,0,0,1-1.463-2.107Z" transform="translate(0 0)" fill="#383097"/><path d="M27.936,14.01,0,9.913l.79-8.4S28.112-.122,28.093.007s-.157,14-.157,14" transform="translate(89.59 50.892)" fill="#e9522a"/><path d="M25.727,0,23.963,12.029a7.047,7.047,0,0,1-7.87,6.106l-10.228-1.5A7.047,7.047,0,0,1,.08,8.526L.793,3.665Z" transform="translate(90.103 73.562)" fill="#321e96"/><path d="M6.817,9.07A3.575,3.575,0,0,1,4.33,7.607a7.431,7.431,0,0,0-1.807,2.559L0,6.62,4.043,1.935S4.921.988,5.035.89A3.439,3.439,0,0,1,7.455.006c3.652.245,8.164,1.944,7.892,4.7-.309,3.1-3,4.926-8.529,4.364" transform="translate(109.179 25.014)" fill="#321e96"/><path d="M61.056,40.448A27.915,27.915,0,0,1,55.8,35.379c-.613-.806-1.208-1.671-1.764-2.53-.834-1.287-1.581-2.564-2.172-3.613-.654-1.159-1.114-2.042-1.29-2.354a183.31,183.31,0,0,0-10.4-16.428,15.183,15.183,0,0,0-1.829-2.095c-3.779-3.574-9.435-4.929-20.615-7.2C16.087.836,14.483.56,13,.323L11.589.116,11.168.054,10.8,0,9.882,6.278l1.649.242A203.425,203.425,0,0,1,35.71,11.71a13.816,13.816,0,0,1,1.109,1.108,27.031,27.031,0,0,1,1.747,2.161,101.779,101.779,0,0,1,8.612,15.128c-5.348-.186-10.679-.445-15.994-.814-7.862-.54-15.684-1.315-23.454-2.443l-.846-.124L0,73.656l.043.006.322.047,2.071.3c4.447.632,8.658,1.241,12.835,1.807,4.5.608,8.958,1.169,13.627,1.663,1.27.129,2.5.247,3.677.348,3.17.277,6.019.458,8.55.56,8.142.307,13.206-.271,15.956-1.3A7.074,7.074,0,0,0,58.5,76.4c1.316-.833,2.856-2.624,3.511-7.091,2.37-16.159,4.545-24.7-.952-28.859M37.589,57.75l-1.818-5.058-.123-.345a.785.785,0,0,1,.734-1.066L55.847,50.6a2.473,2.473,0,0,1,2.529,2.819l-.726,4.951a1.875,1.875,0,0,1-2,1.6l-17-1.4a1.253,1.253,0,0,1-.794-.4,1.187,1.187,0,0,1-.26-.417" transform="translate(57.996 1.612)" fill="#383097"/><path d="M81.507,19.2c-3.477-.14-7.546-.428-12.226-.909-9.007-.951-17.218-2.155-26.461-3.47l-2.071-.3-.322-.047-2.115-.31c-9.231-1.395-17.442-2.6-26.343-4.275C7.347,9,3.367,8.11,0,7.246L6.719,3.318A24.083,24.083,0,0,1,22.422.256L62.032,6.065a24.085,24.085,0,0,1,14.162,7.443Z" transform="translate(17.613 60.806)" fill="#321e96"/><g transform="translate(14.777 25.216)" opacity="0.2"><g clip-path="url(#l)"><path d="M7.413,0,0,6.094S42.176,22.23,83.334,16.1A568.488,568.488,0,0,1,7.413,0" transform="translate(0 0)" fill="#fff"/></g></g></g></g></g></svg>