<svg xmlns="http://www.w3.org/2000/svg" xmlns:xlink="http://www.w3.org/1999/xlink" width="187.305" height="388.568" viewBox="0 0 187.305 388.568"><defs><clipPath id="a"><rect width="187.305" height="388.568" fill="#333d45"/></clipPath></defs><g clip-path="url(#a)"><path d="M145.031,87.013s11.841.761,17.584.008,16.1-6.833,13.457-7.677-12.731,3.377-18.123,1.007-.412-1.985,2.17-3.98c2.333-1.8-2.03-2.058-11.623-.939-2.608.3-4.215,3-5.674,5.183l-2.282,3.415Z" transform="translate(10.809 5.75)" fill="#fcbca1"/><path d="M145.776,83.513l-26.247,25.3C94.8,86.541,84.654,77.286,84.654,77.286c-.35,8.075-7.972,20.844-7.972,20.844l42.324,33.605a3.9,3.9,0,0,0,5.085-.781,386.921,386.921,0,0,0,31.69-44.9Z" transform="translate(5.898 5.944)" fill="#fcbca1"/><path d="M42.393,30.862S35.487,56.033,37,69.493c0,0,34.1,9.321,55.53-5.226,0,0-12.98-23.507-13.663-34.548Z" transform="translate(2.829 2.286)" fill="#6b4d43"/><path d="M77.037,153.025l-8.891,91.744.275,24.04-4.2,18.778.756,72.5-15.811-.27s-17.375-70.935-6.875-88.674a18.7,18.7,0,0,0,1.864-14.338c-5.808-21.831-18.01-66.371-14.556-104.6Z" transform="translate(2.23 11.707)" fill="#333d45"/><path d="M43.667,151.534,96.4,267.142a18.671,18.671,0,0,1,1.251,10.837c-2.956,15.574,12.957,47.328,19.643,65.219,4.255,11.387,6.745,16.983,6.745,16.983l15.488.265c-6.3-37.9-12.27-62.019-18.224-89.515-10.247-47.33-16.85-76.585-27.914-119.763Z" transform="translate(3.359 11.627)" fill="#333d45"/><path d="M43.057,73.725l36.657.2,8.671,3.631,8.006,38.087a19.784,19.784,0,0,1,.254,6.653l-2.9,22.053a19.807,19.807,0,0,0,.653,8.228l4.4,14.795c-29.223,6.763-45.833,11.352-70.648,2.985l10.216-37.62A19.808,19.808,0,0,0,37.119,119a46.236,46.236,0,0,1-2.648-7.3L28.462,90.714l2.746-10.846c4.21-3.067,5.663-4.342,11.849-6.144" transform="translate(2.165 5.67)" fill="#383097"/><path d="M79.2,78.014S70.032,76.5,69.764,71.6c-.475-8.637-.751-15.688.865-22.364L56.635,22.664s-.079,20.625-1.294,44.7c-.4,7.845-9.83,9.935-13.347,10.285,0,0,9.145,7.455,19.56,7.16,14.032-.414,17.65-6.8,17.65-6.8" transform="translate(3.23 1.743)" fill="#fcbca1"/><path d="M78.475,39.917S78.9,68.258,62.259,68.261c-11.871,0-17.81-17.4-15.928-33.577C47.545,24.251,54.3,22.252,63.1,21.771c9.252-.506,13.61,5.787,15.372,18.146" transform="translate(3.537 1.672)" fill="#fcbca1"/><path d="M40.735,48.148c1.649,2.979,4.831,4.372,7.11,3.111s2.788-4.7,1.14-7.676-4.832-4.372-7.11-3.111-2.789,4.7-1.14,7.676" transform="translate(3.059 3.077)" fill="#fcbca1"/><path d="M81.537,46.731c-1.448,3.081-4.532,4.681-6.889,3.574S71.557,45.8,73,42.72s4.533-4.681,6.889-3.574,3.093,4.5,1.644,7.585" transform="translate(5.558 2.984)" fill="#fcbca1"/><path d="M33.267,79.43a307.1,307.1,0,0,0-31.9,39.564s5.707,10.243,16.042,7.349l20.345-19.036a9.289,9.289,0,0,0,2.815-8.386c-1.027-5.83-3.232-15.166-7.3-19.491" transform="translate(0.105 6.109)" fill="#fcbca1"/><path d="M39.528,163.564s.666-5.291-5.151-9.7l-6.628,7.667s-6.368,18.538-3.018,17.65c4.843-1.285,7.169,2.255,7.517-2.893,8.5-9.907,7.28-12.724,7.28-12.724" transform="translate(1.827 11.834)" fill="#fcbca1"/><path d="M24.938,177.842s-7.6.289-7.047-1.859c1.173-4.539,9.061-4.351,9.061-4.351Z" transform="translate(1.374 13.201)" fill="#fcbca1"/><path d="M17.889,176.392s1.289-9.371,3.231-10.045,2.795,6.83,2.795,6.83Z" transform="translate(1.376 12.791)" fill="#fcbca1"/><path d="M2.374,114.958s5.534-2.024,13.914,7.172l21.139,36.28-7.415,7.1S-10,127.534,2.374,114.958" transform="translate(0 8.827)" fill="#fcbca1"/><path d="M63.918,345.264l-15.811-.27s-3.566,3-5.294,16.474l33.05.565s1.035-7.962-7.6-11.178Z" transform="translate(3.293 26.535)" fill="#768aa6"/><path d="M118.33,345.253s-1.128,10.486.2,14.78l36.422.877s2.129-9.294-21.131-15.391Z" transform="translate(9.067 26.555)" fill="#768aa6"/><path d="M55.375,24.087S64.742,38.025,78.3,37.05c0,0,5.736-26.866-28.817-15.94a5.181,5.181,0,0,0-1.694.9c-1.745,1.413-6.972,6.665-6.274,16.724.244,3.529,2.45,2.223,2.45,2.223a8.334,8.334,0,0,1,3.64,3.089s-.565-.859.3-6.088c0,0,5.225-9.6,7.468-13.872" transform="translate(3.188 1.423)" fill="#6b4d43"/><path d="M54.155,21.983s.278,6.626,8.092,12.85" transform="translate(4.165 1.691)" fill="none" stroke="#6b4d43" stroke-miterlimit="10" stroke-width="1"/><path d="M48.59,51.149a2.34,2.34,0,1,1-2.34-2.34,2.34,2.34,0,0,1,2.34,2.34" transform="translate(3.377 3.754)" fill="#fff"/><path d="M79.42,50.6a2.34,2.34,0,1,1-2.34-2.34,2.34,2.34,0,0,1,2.34,2.34" transform="translate(5.748 3.712)" fill="#fff"/><path d="M52.974,347.316a14.076,14.076,0,0,1,9.465.162" transform="translate(4.074 26.656)" fill="none" stroke="#fff" stroke-miterlimit="10" stroke-width="1"/><path d="M53.963,349.57a14.076,14.076,0,0,1,9.465.162" transform="translate(4.15 26.829)" fill="none" stroke="#fff" stroke-miterlimit="10" stroke-width="1"/><path d="M54.953,351.824a14.076,14.076,0,0,1,9.465.162" transform="translate(4.227 27.002)" fill="none" stroke="#fff" stroke-miterlimit="10" stroke-width="1"/><path d="M45.049,350.052s4.7-3.515,5.336,11.034" transform="translate(3.465 26.895)" fill="none" stroke="#fff" stroke-miterlimit="10" stroke-width="1"/><path d="M136.361,346.051s-3.072-1.108-4.489,1.53" transform="translate(10.143 26.598)" fill="none" stroke="#fff" stroke-miterlimit="10" stroke-width="1"/><path d="M139.127,346.941s-3.072-1.108-4.489,1.53" transform="translate(10.355 26.667)" fill="none" stroke="#fff" stroke-miterlimit="10" stroke-width="1"/><path d="M142.516,348.353s-3.072-1.108-4.489,1.53" transform="translate(10.616 26.775)" fill="none" stroke="#fff" stroke-miterlimit="10" stroke-width="1"/><path d="M117.784,348.8s8.938-.047,9.557,11.174" transform="translate(9.059 26.827)" fill="none" stroke="#fff" stroke-miterlimit="10" stroke-width="1"/><path d="M42.559,44.042s2.332-1.765,4.172,1.148c0,0-3.85,2.013-.851,3.462" transform="translate(3.273 3.347)" fill="none" stroke="#020205" stroke-miterlimit="10" stroke-width="1"/><path d="M53.633,61.954a11.512,11.512,0,0,0,11.036,2.878" transform="translate(4.125 4.765)" fill="none" stroke="#020205" stroke-miterlimit="10" stroke-width="1"/><path d="M79.926,42.513S77.338,41.15,76,44.325c0,0,4.128,1.359,1.4,3.277" transform="translate(5.845 3.247)" fill="none" stroke="#020205" stroke-miterlimit="10" stroke-width="1"/><path d="M62.861,42.494a13.236,13.236,0,0,0,2.424,5.417c.792.988-1.268,2.393-4.132,2.577" transform="translate(4.703 3.268)" fill="none" stroke="#020205" stroke-miterlimit="10" stroke-width="1"/><path d="M54.024,44.266c.15.76.631,1.305,1.074,1.218s.681-.774.531-1.535S55,42.643,54.555,42.732s-.681.774-.531,1.535" transform="translate(4.152 3.286)" fill="#020205"/><path d="M68.034,43.392c.148.747.62,1.283,1.055,1.2s.669-.761.521-1.509-.62-1.283-1.055-1.2-.669.76-.521,1.508" transform="translate(5.229 3.221)" fill="#020205"/><path d="M57.152,36.673c-.822-.856-4.966.925-5.135,1.025-1.289.753-.836,1.626-.648,1.916.11.169.589-.09,1.777-.388,2.532-.633,3.618-.276,4.09-1.059a1.333,1.333,0,0,0-.084-1.495" transform="translate(3.933 2.803)" fill="#6b4d43"/><path d="M66.91,36.675c.53-.715,3.32.433,3.441.513a1.534,1.534,0,0,1,.641,1.82c-.068.14-.407-.066-1.233-.293-1.762-.484-2.492-.174-2.847-.81a1.276,1.276,0,0,1,0-1.23" transform="translate(5.134 2.803)" fill="#6b4d43"/><path d="M53.426,52.29s5.886-4.729,9.195,3.733Z" transform="translate(4.109 3.92)" fill="#020205"/><path d="M56.59,51.747a7.852,7.852,0,0,0-1.14-.521,6.945,6.945,0,0,0-2.024,1.045L59.4,54.7a6.331,6.331,0,0,0-2.808-2.949" transform="translate(4.109 3.94)" fill="#d96255"/><path d="M63.651,322.07a53,53,0,0,1-20.747-.054c2.586,14.086,5.2,24.746,5.2,24.746l15.811.27Z" transform="translate(3.3 24.767)" fill="#fcbca1"/><path d="M134.493,347.529c-1.9-11.443-3.267-19.023-5.119-28.425A33.84,33.84,0,0,1,109.1,322.32c1.174,2.856,2.252,5.539,3.158,7.962,4.255,11.387,6.745,16.983,6.745,16.983Z" transform="translate(8.391 24.543)" fill="#fcbca1"/><path d="M51.656,345.971l-2.032-4.79a22.367,22.367,0,0,1,14.306-.519l-.1,5.768Z" transform="translate(3.817 26.13)" fill="#768aa6"/><path d="M126.6,346.012l-1.307-4.725a7.758,7.758,0,0,1,8.065-.954l.137,5.768Z" transform="translate(9.637 26.119)" fill="#768aa6"/><path d="M137.872,0A33.995,33.995,0,0,0,109.49,52.711L105.515,60.5l8.931-1.878A33.994,33.994,0,1,0,137.872,0" transform="translate(7.989 0)" fill="#e9522a"/><path d="M127.671,19.759q3.229-3.354,9.042-3.354,5.413,0,8.42,2.384a8.02,8.02,0,0,1,3.006,6.656,7.472,7.472,0,0,1-1.218,4.348,22.19,22.19,0,0,1-3.5,3.8,23.305,23.305,0,0,0-2.782,2.93,4.513,4.513,0,0,0-.894,2.782h-8.3a9.686,9.686,0,0,1,.572-3.477,9.287,9.287,0,0,1,1.316-2.434,26.053,26.053,0,0,1,1.987-2.186,14.427,14.427,0,0,0,1.814-2.012,3.264,3.264,0,0,0,.571-1.913,2.255,2.255,0,0,0-.472-1.59,2.089,2.089,0,0,0-1.565-.5,2.3,2.3,0,0,0-2.036.943,5.379,5.379,0,0,0-.646,2.981h-8.544q0-6.011,3.229-9.364m11.4,23.6a4.944,4.944,0,0,1,1.416,3.652,4.86,4.86,0,0,1-5.117,5.116,4.937,4.937,0,0,1-3.651-1.416,5,5,0,0,1-1.416-3.7,4.852,4.852,0,0,1,5.067-5.068,5.007,5.007,0,0,1,3.7,1.416" transform="translate(9.571 1.262)" fill="#fff"/></g></svg>