<svg xmlns="http://www.w3.org/2000/svg" xmlns:xlink="http://www.w3.org/1999/xlink" width="72.358" height="57.53" viewBox="0 0 72.358 57.53"><defs><clipPath id="a"><rect width="66.213" height="48.79" fill="none"/></clipPath><clipPath id="c"><rect width="39.925" height="9.826" fill="none"/></clipPath><clipPath id="d"><rect width="44.306" height="9.3" fill="none"/></clipPath></defs><g transform="translate(0 9.215) rotate(-8)"><g clip-path="url(#a)"><g clip-path="url(#a)"><path d="M0,7.156,14.852,9.334l.879-4.4S2.068-.068,2.058,0,0,7.156,0,7.156" transform="translate(2.294 18.522)" fill="#e9522a"/><path d="M.98,0,.043,6.4a3.747,3.747,0,0,0,3.076,4.311l5.438.8A3.746,3.746,0,0,0,12.74,8.258l.379-2.585Z" transform="translate(0.856 30.348)" fill="#321e96"/><path d="M3.73,4.92a1.9,1.9,0,0,0,1.49-.365,3.949,3.949,0,0,1,.53,1.579L7.576,4.714l-1.344-3s-.3-.617-.345-.684a1.827,1.827,0,0,0-1.1-.819C2.892-.226.335-.049.053,1.4-.264,3.022.831,4.363,3.73,4.92" transform="translate(4.048 5.296)" fill="#321e96"/><path d="M0,10.5,13.168,0l27.18,3.986,8.867,13.729Z" transform="translate(9.751 1.595)" fill="#cce9ff"/><g transform="translate(12.151 0.86)" opacity="0.1"><g clip-path="url(#c)"><path d="M1.5,9.8C12.218,7.161,29.952,7.277,39.909,8.01a34.927,34.927,0,0,0-1.854-4.024L10.875,0,0,9.4c.612-.058.9.548,1.5.4" transform="translate(0 0)" fill="#fff"/></g></g><path d="M36.578.857,36.354.824l-.747-.11c-.794-.106-1.653-.21-2.538-.3C30.726.2,28.828.049,27.239.01c-3.228-.082-5.188.322-7.02,1.716a97.442,97.442,0,0,0-7.8,6.779c-.138.132-.507.511-1.017,1-.461.444-1.036.98-1.658,1.508-.414.353-.85.7-1.285,1.019A14.844,14.844,0,0,1,5,13.813c-3.434,1.279-3.63,5.96-4.89,14.552-.348,2.375.162,3.522.705,4.147a3.832,3.832,0,0,0,.615.57c1.241.944,3.732,2.012,7.93,3.1q1.955.5,4.437,1.019c.617.129,1.259.255,1.926.384,1.992.375,3.922.706,5.852,1.02,2.654.428,5.314.824,8.155,1.253l1.124.165.171.025,3.659-24.951-.45-.066c-3-.445-5.989-.987-8.966-1.607-3.887-.808-7.758-1.745-11.62-2.757a.012.012,0,0,0,0-.006c1.692-1.908,6.031-6.412,8.643-7.613,0,0,1.723.007,4.468.178,2.3.145,5.317.4,8.638.87l.877.129L36.772.886ZM4.389,20.827a1.314,1.314,0,0,1,1.718-1.049L15.916,23.1a.417.417,0,0,1,.211.655l-.115.157-1.7,2.3a.639.639,0,0,1-.2.174.67.67,0,0,1-.464.08L4.781,24.579A1,1,0,0,1,4,23.459Z" transform="translate(0 0)" fill="#383097"/><path d="M14.853,7.449,0,5.27.42.806S14.946-.065,14.936,0s-.084,7.445-.084,7.445" transform="translate(47.632 27.057)" fill="#e9522a"/><path d="M13.678,0,12.74,6.4A3.747,3.747,0,0,1,8.556,9.641l-5.438-.8A3.746,3.746,0,0,1,.043,4.533L.422,1.948Z" transform="translate(47.905 39.111)" fill="#321e96"/><path d="M3.625,4.822A1.9,1.9,0,0,1,2.3,4.044a3.952,3.952,0,0,0-.961,1.361L0,3.52,2.15,1.029s.467-.5.527-.556A1.828,1.828,0,0,1,3.964,0c1.942.13,4.34,1.034,4.2,2.5C8,4.15,6.562,5.121,3.625,4.822" transform="translate(58.047 13.299)" fill="#321e96"/><path d="M32.461,21.5a14.841,14.841,0,0,1-2.8-2.695c-.326-.429-.642-.889-.938-1.345-.444-.684-.84-1.363-1.155-1.921-.347-.616-.592-1.085-.686-1.251a97.457,97.457,0,0,0-5.528-8.734,8.072,8.072,0,0,0-.972-1.114c-2.009-1.9-5.016-2.621-10.96-3.828C8.553.444,7.7.3,6.912.172L6.162.061,5.937.028,5.743,0,5.254,3.338l.877.129a108.153,108.153,0,0,1,12.855,2.76,7.343,7.343,0,0,1,.59.589A14.37,14.37,0,0,1,20.5,7.963a54.112,54.112,0,0,1,4.579,8.043c-2.843-.1-5.678-.236-8.5-.433-4.18-.287-8.339-.7-12.47-1.3l-.45-.066L0,39.16l.023,0,.171.025,1.1.161c2.364.336,4.6.66,6.824.961,2.393.323,4.763.622,7.245.884.675.068,1.327.132,1.955.185,1.685.147,3.2.244,4.546.3,4.329.163,7.021-.144,8.483-.693a3.761,3.761,0,0,0,.753-.367c.7-.443,1.518-1.4,1.867-3.77,1.26-8.591,2.416-13.132-.506-15.343M19.985,30.7l-.967-2.689-.065-.183a.417.417,0,0,1,.39-.567L29.692,26.9a1.315,1.315,0,0,1,1.344,1.5l-.386,2.632a1,1,0,0,1-1.065.85l-9.04-.747a.666.666,0,0,1-.422-.211.631.631,0,0,1-.138-.222" transform="translate(30.834 0.857)" fill="#383097"/><path d="M43.334,10.208c-1.848-.074-4.012-.228-6.5-.483C32.046,9.219,27.68,8.579,22.766,7.88l-1.1-.162-.171-.025-1.124-.165C15.461,6.787,11.1,6.146,6.363,5.256,3.906,4.786,1.79,4.312,0,3.852L3.572,1.764A12.8,12.8,0,0,1,11.921.136L32.98,3.224a12.806,12.806,0,0,1,7.53,3.957Z" transform="translate(9.364 32.328)" fill="#321e96"/><g transform="translate(7.856 13.406)" opacity="0.2"><g clip-path="url(#d)"><path d="M3.941,0,0,3.24s22.424,8.579,44.306,5.321A302.245,302.245,0,0,1,3.941,0" transform="translate(0)" fill="#fff"/></g></g></g></g></g></svg>