<svg xmlns="http://www.w3.org/2000/svg" xmlns:xlink="http://www.w3.org/1999/xlink" width="30.061" height="51.077" viewBox="0 0 30.061 51.077"><defs><clipPath id="a"><rect width="51.077" height="30.061" fill="#cce9ff"/></clipPath></defs><g transform="translate(30.062) rotate(90)"><g transform="translate(0 0)" clip-path="url(#a)"><path d="M43.552,17.275h-.989q-19.892,0-39.785.006a2.7,2.7,0,0,1-2.05-.636,2.1,2.1,0,0,1-.6-2.311,2.19,2.19,0,0,1,1.924-1.54,7.4,7.4,0,0,1,.95-.02H43.534c-.224-.274-.355-.456-.508-.618q-3.476-3.694-6.957-7.384c-.29-.308-.589-.607-.864-.929A2.367,2.367,0,0,1,35.137.549a2.5,2.5,0,0,1,3.376.236c1.039,1.053,2.037,2.146,3.05,3.224Q45.881,8.6,50.2,13.188a2.345,2.345,0,0,1,.036,3.632q-5.751,6.124-11.514,12.237c-.055.058-.107.117-.164.172a2.492,2.492,0,0,1-3.371.308,2.466,2.466,0,0,1,.068-3.378c1.116-1.234,2.276-2.429,3.417-3.641q2.147-2.278,4.295-4.557c.172-.183.327-.382.587-.687" transform="translate(0 0)" fill="#cce9ff"/></g></g></svg>