<svg xmlns="http://www.w3.org/2000/svg" xmlns:xlink="http://www.w3.org/1999/xlink" width="161.957" height="478.634" viewBox="0 0 161.957 478.634"><defs><clipPath id="a"><rect width="161.957" height="478.634" fill="none"/></clipPath></defs><path d="M54.594,203.657,23.624,418.345l24.821,4.5,49.5-220.851Z" transform="translate(3.405 29.117)" fill="#333d45"/><path d="M117.342,200.476l.2,7.1L104.084,420.063H80l-9.1-216.59Z" transform="translate(10.221 28.899)" fill="#333d45"/><g clip-path="url(#a)"><path d="M115.528,152.756S148.68,97.691,147.422,75.21c0,0-9.637-7.954-18.407-2.807l-27.1,44.6s-7.581,25.963,13.615,35.755" transform="translate(14.501 10.187)" fill="#cce9ff"/><path d="M147.634,76S102.224,54.832,79.542,51.91c0,0,24.222,16.335,26.922,25.66l22.922,18.318S153.936,97.335,147.634,76" transform="translate(11.466 7.483)" fill="#cce9ff"/><path d="M115.026,62.3c-12.477-4.736-25.976-9.169-35.485-10.395,0,0,5.025,1.827,7.726,11.153l19.2,14.508c7.276-5.827,9.382-8.889,8.563-15.266" transform="translate(11.466 7.483)" fill="#edbda3"/><path d="M125.529,227.95l-.252-42.819.056-29.377c1.1-15.461-1.97-32.244-6.54-45.42l-26.868-9.081-.888,5.81-3.5,2.176-15.946-7.4-29.665,8.133-2.962,37.9,11.715,33.146L45.7,225.9Z" transform="translate(5.617 14.596)" fill="#cce9ff"/><path d="M68.952,108.189,67.828,105.7,65.087,79.2l16.66-4.73,8.7,36.338c.634,4.82-7.619,6.607-13.4,5.165-1.379-.344-3.59-2.055-5.286-3.729a13.453,13.453,0,0,1-2.8-4.051" transform="translate(9.382 10.734)" fill="#edbda3"/><path d="M84.618,102.208a7.824,7.824,0,0,0,2.749-.676c2.5-1.095,7.214-3.78,7.816-8.622,0,0,3.664-16.6-1.219-33.637a6.509,6.509,0,0,0-4.681-4.482,35.56,35.56,0,0,0-11.4-1.172c-7.873.708-13.431.613-14.264,9.178,0,0-1.374,12.558.5,15.909,0,0-1.681,24.606,20.492,23.5" transform="translate(9.101 7.716)" fill="#edbda3"/><path d="M67.809,75.926c2.039,2.875,1.9,6.472-.3,8.036s-5.646.5-7.684-2.374-1.9-6.472.3-8.036,5.645-.5,7.684,2.374" transform="translate(8.415 10.498)" fill="#edbda3"/><path d="M47.091,108.976S10.533,158.261,3.153,180.461c0,0,5.91,11.689,16,10.381l41.39-53.71s9.53-34.794-13.448-28.156" transform="translate(0.455 15.588)" fill="#cce9ff"/><path d="M4.8,175.812S29,204.967,48.918,217.243c0,0-7.657-24.623-8.291-29.007L29.278,164.25S7.073,152.619,4.8,175.812" transform="translate(0.693 23.256)" fill="#cce9ff"/><path d="M24.934,196.906c9.766,9.769,11.869,11.5,20.218,16.646,0,0,6.749,6.636,7.791-3.482L37.726,184.846c-7.247,3.287-10.308,5.979-12.792,12.06" transform="translate(3.594 26.645)" fill="#edbda3"/><path d="M50.532,206.679s1.791,2.65-5.422,14.542l-3.9-8.088Z" transform="translate(5.941 29.793)" fill="#edbda3"/><path d="M38.868,207.374s-2.743,18.75.382,17.3c4.921-2.28,7.91,1.57,6.623-5.7-1.707-9.646,6.3-17.081-7.006-11.6" transform="translate(5.442 29.624)" fill="#edbda3"/><path d="M40.084,223.047s-8.284,1.779-8.112-.418c.365-4.642,8.113-5.818,8.113-5.818Z" transform="translate(4.608 31.253)" fill="#edbda3"/><path d="M31.976,223.216s-.356-9.389,1.428-10.384,3.912,6.2,3.912,6.2Z" transform="translate(4.605 30.666)" fill="#edbda3"/><path d="M66.749,78.449s-1.474-13.166.906-15.546c0,0,15.652-11.936,27.589-.675,0,0,1.908-15.319-17.892-12.2C63.014,52.294,61.059,62.172,61.059,62.172l1.23,14.006Z" transform="translate(8.802 7.152)" fill="#2e3142"/><path d="M27.029,391.087S-.929,413.485.024,419.445c0,0,13.859,8.161,29.813-3.311,2.143-1.54,18.242-4.729,18.242-4.729a35.287,35.287,0,0,0,2.928-6.644c.9-2.723.843-9.178.843-9.178Z" transform="translate(0 56.375)" fill="#e9522a"/><path d="M78.929,392.4s-1.835,13.24,1.022,15.3l10.1.7c4.126,1.111,29.241,5.194,38.446,2.815,0,0-4.551-14.75-25.484-18.818Z" transform="translate(11.294 56.564)" fill="#e9522a"/><path d="M72.059,52.805s5.577,7.945,18.413,10.875,14.816-6.165.228-11.444c0,0,7.781,3.335,9.557-.714s-19.755-9.839-28.123.535" transform="translate(10.387 6.662)" fill="#2e3142"/><path d="M70.581,91.964s4.764,5.559,15.345,3.53" transform="translate(10.174 13.257)" fill="none" stroke="#020205" stroke-miterlimit="10" stroke-width="1"/><path d="M83.964,72.215a17.553,17.553,0,0,0,1.891,5.85c.7,1.246-1.435,2.707-4.676,2.915" transform="translate(11.702 10.41)" fill="none" stroke="#020205" stroke-miterlimit="10" stroke-width="1"/><path d="M73.273,73.962c.169.86.714,1.477,1.215,1.379s.77-.876.6-1.737-.713-1.477-1.214-1.379-.77.876-.6,1.737" transform="translate(10.555 10.41)" fill="#020205"/><path d="M86.845,73.029c.167.844.7,1.451,1.193,1.355s.756-.862.59-1.707-.7-1.451-1.193-1.354-.757.86-.59,1.706" transform="translate(12.511 10.28)" fill="#020205"/><path d="M73.727,83.289s4.848-1,9.133,4.372" transform="translate(10.628 11.996)" fill="none" stroke="#020205" stroke-miterlimit="10" stroke-width="1"/><path d="M77,65.789c-.929-.968-5.617,1.047-5.809,1.159-1.458.852-.945,1.841-.733,2.168.125.191.666-.1,2.009-.438,2.865-.717,4.094-.312,4.628-1.2A1.509,1.509,0,0,0,77,65.789" transform="translate(10.119 9.446)" fill="#2e3142"/><path d="M86.054,68.162c.6-.809,3.756.49,3.892.58a1.737,1.737,0,0,1,.725,2.058c-.078.158-.461-.074-1.4-.331-1.992-.548-2.819-.2-3.221-.916a1.444,1.444,0,0,1,0-1.391" transform="translate(12.379 9.787)" fill="#2e3142"/><path d="M60.762,76.316s2.637-2,4.72,1.3c0,0-4.356,2.278-.962,3.916" transform="translate(8.759 10.914)" fill="none" stroke="#020205" stroke-miterlimit="10" stroke-width="1"/><path d="M15.833,396.715s3.754-2.3,9.722,2.313" transform="translate(2.282 57.104)" fill="none" stroke="#fff" stroke-miterlimit="10" stroke-width="1"/><path d="M12.255,399.915s3.754-2.3,9.722,2.314" transform="translate(1.767 57.565)" fill="none" stroke="#fff" stroke-miterlimit="10" stroke-width="1"/><path d="M46.706,398.665s-11.526,1.653-11.849,13.407" transform="translate(5.025 57.467)" fill="none" stroke="#fff" stroke-miterlimit="10" stroke-width="1"/><path d="M78.534,395.46s9.461-.15,11.488,12.5" transform="translate(11.321 57.005)" fill="none" stroke="#fff" stroke-miterlimit="10" stroke-width="1"/><path d="M105.451,393.171s-2.477-.875-4.279,3.754" transform="translate(14.584 56.666)" fill="none" stroke="#fff" stroke-miterlimit="10" stroke-width="1"/><path d="M109.959,394.993a4.34,4.34,0,0,0-4.129,3.612" transform="translate(15.255 56.938)" fill="none" stroke="#fff" stroke-miterlimit="10" stroke-width="1"/><line x1="4.474" y1="19.091" transform="translate(126.659 141.987)" fill="none" stroke="#020205" stroke-miterlimit="10" stroke-width="1"/><line y1="11.919" x2="6.531" transform="translate(47.502 158.801)" fill="none" stroke="#020205" stroke-miterlimit="10" stroke-width="1"/></g></svg>