<svg xmlns="http://www.w3.org/2000/svg" xmlns:xlink="http://www.w3.org/1999/xlink" width="208.894" height="142.601" viewBox="0 0 208.894 142.601"><defs><clipPath id="a"><rect width="208.894" height="142.601" fill="none"/></clipPath></defs><g clip-path="url(#a)"><path d="M149.077,25.76H44.892a4.729,4.729,0,0,0-4.729,4.729v63.2a4.73,4.73,0,0,0,4.729,4.729H149.077a4.729,4.729,0,0,0,4.729-4.729v-63.2a4.729,4.729,0,0,0-4.729-4.729" fill="#383097"/><path d="M153.491,95.374l-44-28.809L153.315,28.4a4.675,4.675,0,0,0-.343-.59L97.01,76.548l-56-48.758a4.589,4.589,0,0,0-.346.587L84.5,66.548,40.479,95.374a4.624,4.624,0,0,0,.284.614L85.029,67,96.79,77.244l.22.192,11.958-10.414,44.239,28.966a4.623,4.623,0,0,0,.284-.614" fill="#cce9ff"/><path d="M112.854,142.6V84.591H98.314Z" fill="#383097"/><path d="M151.778,96.237H47.593a5.069,5.069,0,0,1-5.064-5.063v-63.2a5.07,5.07,0,0,1,5.064-5.063H151.778a5.07,5.07,0,0,1,5.063,5.063v63.2a5.069,5.069,0,0,1-5.063,5.063M47.593,23.582A4.4,4.4,0,0,0,43.2,27.975v63.2a4.4,4.4,0,0,0,4.394,4.393H151.778a4.4,4.4,0,0,0,4.393-4.393v-63.2a4.4,4.4,0,0,0-4.393-4.393Z" fill="#fff"/><path d="M179.065,68.78H132.553a13.091,13.091,0,0,0-13.091,13.091v22.917a13.091,13.091,0,0,0,13.091,13.091h46.512a13.091,13.091,0,0,0,13.091-13.091V81.871A13.091,13.091,0,0,0,179.065,68.78" fill="#383097"/><path d="M51.776,50.886H19.163A4.724,4.724,0,0,0,14.44,55.61V74.57a4.724,4.724,0,0,0,4.723,4.724H51.776A4.724,4.724,0,0,0,56.5,74.57V55.61a4.724,4.724,0,0,0-4.724-4.724" fill="#cce9ff"/><path d="M178.206,72.859H133.411a9.62,9.62,0,0,0-9.62,9.62v21.7a9.62,9.62,0,0,0,9.62,9.62h44.795a9.621,9.621,0,0,0,9.621-9.62v-21.7a9.621,9.621,0,0,0-9.621-9.62" fill="#cce9ff"/><path d="M155.809,101.142,125.067,74.374l.44-.5,30.3,26.384,30.3-26.384.439.5Z" fill="#383097"/><rect width="29.73" height="0.669" transform="matrix(0.837, -0.547, 0.547, 0.837, 124.407, 111.173)" fill="#383097"/><rect width="0.669" height="29.73" transform="matrix(0.548, -0.837, 0.837, 0.548, 161.938, 95.458)" fill="#383097"/><path d="M55.9,76.874,40.346,66.691,55.835,53.2a4.85,4.85,0,0,0-.383-.556L35.521,70,15.527,52.6a4.83,4.83,0,0,0-.388.551L30.67,66.669,15.054,76.894a4.727,4.727,0,0,0,.371.557L31.194,67.126l4.327,3.767,4.3-3.745L55.528,77.432a4.775,4.775,0,0,0,.37-.558" fill="#383097"/><path d="M150.438,67.294a9.7,9.7,0,1,1-9.7-9.7,9.7,9.7,0,0,1,9.7,9.7" fill="#e9522a"/><path d="M139.008,72.56a2.147,2.147,0,0,1,0-2.965A2.056,2.056,0,0,1,140.527,69,1.985,1.985,0,0,1,142,69.6a2.176,2.176,0,0,1,0,2.965,1.981,1.981,0,0,1-1.474.593,2.053,2.053,0,0,1-1.519-.593m.185-4.522-.612-7.339h3.8l-.593,7.339Z" fill="#fff"/></g></svg>