<svg xmlns="http://www.w3.org/2000/svg" xmlns:xlink="http://www.w3.org/1999/xlink" width="87.738" height="116.954" viewBox="0 0 87.738 116.954"><defs><clipPath id="a"><rect width="87.738" height="116.954" fill="none"/></clipPath></defs><g transform="translate(0)" clip-path="url(#a)"><path d="M261.512,28.148V21.561l-5.1-.739-1.572-4.149,3.373-4.326-3.9-4.972-4.912,2.2-3.58-2.506V1.681L239.96.02l-2.637,4.493H232.68L229.932,0l-6.289,2.207.781,5.37-3.876,2.7-4.817-2.064-3.75,5.405,3.806,4.2-1.424,4.273-5.2.981V29.8l5.209.958,1.649,4.5L212.574,39.3l4.135,5.458,4.776-2.645,3.632,2.567-.366,5.268,6.355,2.311,2.581-4.94,4.74-.063,2.647,4.485,6.309-2.158-.886-5.1,3.679-3.045,5.135,1.834,3.479-5.385-3.524-3.671,1.269-4.443ZM235.339,38.287A12.159,12.159,0,1,1,247.5,26.127a12.159,12.159,0,0,1-12.16,12.159" transform="translate(-180.564 0.001)" fill="#cce9ff"/><path d="M36.254,223.483v-4.047l-3.5-.507-1.268-3.348,2.334-2.993-2.384-3.044-3.4,1.522-2.875-2.012v-3.72l-3.585-1.014L19.75,207.43H16.03l-1.894-3.111-3.855,1.353.541,3.72-3.111,2.164L4.4,210.136,2.1,213.45l2.638,2.908-1.15,3.449L0,220.484v4.126l3.585.66,1.319,3.6-2.384,2.79,2.536,3.348,3.3-1.826,2.942,2.08-.254,3.652,3.906,1.421,1.775-3.4,3.8-.051,1.826,3.094,3.855-1.319-.609-3.5,2.942-2.435,3.551,1.268,2.131-3.3-2.435-2.537L32.8,224.61Zm-18.262,6.809A7.812,7.812,0,1,1,25.8,222.48a7.812,7.812,0,0,1-7.812,7.812" transform="translate(0 -176.38)" fill="#e9522a"/><path d="M101.545,132.989a11.046,11.046,0,0,1,3.9,2.165c.8.689,1.971-.472,1.166-1.166a13.069,13.069,0,0,0-4.626-2.589c-1.014-.321-1.448,1.27-.438,1.59" transform="translate(-87.164 -113.394)" fill="#383097"/><path d="M132.483,89.657a16.793,16.793,0,0,1,2.869,5.536c.307,1.012,1.9.581,1.59-.438a18.937,18.937,0,0,0-3.293-6.264c-.657-.832-1.816.341-1.166,1.166" transform="translate(-114.201 -76.144)" fill="#383097"/><path d="M185,99.155v3.627a.825.825,0,0,0,1.649,0V99.155a.825.825,0,0,0-1.649,0" transform="translate(-159.7 -84.909)" fill="#383097"/><path d="M206.587,391.055v-7.692l-6.653-.964-2.411-6.364,4.435-5.689-4.532-5.785-6.46,2.893-5.464-3.825v-7.071l-6.814-1.929-3.471,5.914h-7.071l-3.6-5.914-7.328,2.571,1.029,7.071-5.914,4.114-6.3-2.7-4.371,6.3,5.014,5.528-2.186,6.557-6.814,1.286V393.2l6.814,1.253L147,401.3l-4.532,5.3,4.821,6.364,6.268-3.471,5.593,3.953-.482,6.943,7.425,2.7,3.375-6.46,7.232-.1,3.471,5.882,7.328-2.507-1.157-6.653,5.593-4.628,6.75,2.411,4.05-6.268-4.628-4.821,1.928-6.75ZM171.875,404a14.849,14.849,0,1,1,14.849-14.849A14.849,14.849,0,0,1,171.875,404" transform="translate(-118.85 -306.135)" fill="#383097"/><path d="M39.888,295.712a11.378,11.378,0,0,0,4.381,14.236c.594.374,1.14-.567.549-.939a10.263,10.263,0,0,1-3.991-12.749c.273-.636-.663-1.19-.939-.549" transform="translate(-33.607 -255.029)" fill="#fff"/><path d="M57.541,269.763a.544.544,0,0,0,0-1.087.544.544,0,0,0,0,1.087" transform="translate(-49.22 -231.936)" fill="#fff"/><path d="M284.124,170.567a.438.438,0,0,0-.224-.4,14.485,14.485,0,0,1-5.632-17.993.518.518,0,0,0-.064-.531.581.581,0,0,0-.433-.242l-.04,0a.326.326,0,0,0-.26.227A15.519,15.519,0,0,0,283.431,171a.388.388,0,0,0,.409.034.572.572,0,0,0,.283-.468" transform="translate(-238.408 -130.695)" fill="#fff"/><path d="M299.893,113.862a.753.753,0,0,0,0-1.505.753.753,0,0,0,0,1.505" transform="translate(-258.257 -96.993)" fill="#fff"/><path d="M214.277,548.844c-1.1,1.533-1.156,3.424-1.249,5.24a28.343,28.343,0,0,0,.232,6.44,19.616,19.616,0,0,0,5.116,10.007c.482.509,1.25-.261.769-.769a18.592,18.592,0,0,1-4.772-9.181,23.907,23.907,0,0,1-.3-5.676c.079-1.866.007-3.929,1.139-5.514.407-.57-.535-1.114-.939-.549" transform="translate(-183.834 -473.587)" fill="#fff"/><path d="M273.653,716.533h.217a.544.544,0,1,0,0-1.087h-.217a.544.544,0,1,0,0,1.087" transform="translate(-235.763 -617.613)" fill="#fff"/></g></svg>