<svg xmlns="http://www.w3.org/2000/svg" xmlns:xlink="http://www.w3.org/1999/xlink" width="30" height="30" viewBox="0 0 30 30"><defs><clipPath id="a"><rect width="30" height="30" transform="translate(0 0)" fill="none"/></clipPath></defs><g transform="translate(0 0.001)"><g transform="translate(0 -0.001)" clip-path="url(#a)"><path d="M30,15A15,15,0,1,1,15,0,15,15,0,0,1,30,15" transform="translate(0 0.001)" fill="#333d45" fill-rule="evenodd"/><path d="M104.4,106.767a2.366,2.366,0,1,1,2.366,2.366,2.366,2.366,0,0,1-2.366-2.366m-1.279,0a3.645,3.645,0,1,0,3.645-3.645,3.645,3.645,0,0,0-3.645,3.645m6.582-3.789a.852.852,0,1,0,.852-.852.852.852,0,0,0-.852.852m-5.8,9.566a3.918,3.918,0,0,1-1.318-.244,2.352,2.352,0,0,1-1.347-1.347,3.93,3.93,0,0,1-.244-1.318c-.034-.748-.041-.973-.041-2.868s.007-2.12.041-2.868a3.93,3.93,0,0,1,.244-1.318,2.351,2.351,0,0,1,1.347-1.347,3.926,3.926,0,0,1,1.318-.244c.748-.034.973-.041,2.868-.041s2.12.007,2.868.041a3.928,3.928,0,0,1,1.318.244,2.349,2.349,0,0,1,1.347,1.347,3.928,3.928,0,0,1,.244,1.318c.034.749.041.973.041,2.868s-.007,2.12-.041,2.868a3.927,3.927,0,0,1-.244,1.318,2.351,2.351,0,0,1-1.347,1.347,3.92,3.92,0,0,1-1.318.244c-.748.034-.973.042-2.868.042s-2.12-.007-2.868-.042m-.058-12.832a5.2,5.2,0,0,0-1.723.33,3.629,3.629,0,0,0-2.076,2.076,5.2,5.2,0,0,0-.33,1.723c-.035.757-.043,1-.043,2.926s.008,2.169.043,2.926a5.2,5.2,0,0,0,.33,1.723,3.629,3.629,0,0,0,2.076,2.076,5.206,5.206,0,0,0,1.723.33c.757.035,1,.043,2.926.043s2.169-.008,2.926-.043a5.208,5.208,0,0,0,1.723-.33,3.629,3.629,0,0,0,2.076-2.076,5.2,5.2,0,0,0,.33-1.723c.035-.757.043-1,.043-2.926s-.008-2.169-.043-2.926a5.207,5.207,0,0,0-.33-1.723,3.629,3.629,0,0,0-2.076-2.076,5.206,5.206,0,0,0-1.723-.33c-.757-.035-1-.043-2.926-.043s-2.169.008-2.926.043" transform="translate(-91.768 -91.767)" fill="#fff"/></g></g></svg>