<svg xmlns="http://www.w3.org/2000/svg" xmlns:xlink="http://www.w3.org/1999/xlink" width="30" height="30" viewBox="0 0 30 30"><defs><clipPath id="a"><rect width="30" height="30" transform="translate(0 -0.458)" fill="none"/></clipPath></defs><g transform="translate(0 0.459)"><g transform="translate(0 -0.001)" clip-path="url(#a)"><path d="M29.542,14.77A14.771,14.771,0,1,1,14.771,0,14.771,14.771,0,0,1,29.542,14.77" transform="translate(0 0.001)" fill="#333d45" fill-rule="evenodd"/><path d="M115.809,118.286a2.024,2.024,0,0,0-1.424-1.433,47.825,47.825,0,0,0-6.293-.339,47.827,47.827,0,0,0-6.293.339,2.024,2.024,0,0,0-1.424,1.433,22.786,22.786,0,0,0,0,7.8,2.024,2.024,0,0,0,1.424,1.433,47.826,47.826,0,0,0,6.293.339,47.824,47.824,0,0,0,6.293-.339,2.024,2.024,0,0,0,1.424-1.433,22.791,22.791,0,0,0,0-7.8m-9.364,6.3v-4.79l4.21,2.395Z" transform="translate(-92.967 -107.417)" fill="#fff"/></g></g></svg>