<svg xmlns="http://www.w3.org/2000/svg" xmlns:xlink="http://www.w3.org/1999/xlink" width="36.422" height="36.516" viewBox="0 0 36.422 36.516"><defs><clipPath id="a"><rect width="36.422" height="36.516" fill="none"/></clipPath></defs><g clip-path="url(#a)"><path d="M359.774,361.048c.021,0,.055-.006.064-.029s-.007-.036-.028-.036-.055.006-.064.029.007.036.029.036" transform="translate(-341.581 -342.758)" fill="#f0e7d2"/><path d="M9.764,31.314,4.8,36.3A6.742,6.742,0,0,0,11,34.652a6.518,6.518,0,0,0,1.249-7.2L27.487,12.159a6.234,6.234,0,0,0,7.089-1.173A6.551,6.551,0,0,0,36.3,4.676L31.339,9.662,26.895,5.236,31.857.25A6.176,6.176,0,0,0,25.664,1.9a6.379,6.379,0,0,0-1.247,7.214L9.172,24.392A6.365,6.365,0,0,0,.355,31.874l5-5.023Z" transform="translate(-0.118 0)" fill="#383097"/><path d="M209.913,226.8a1.631,1.631,0,0,1,.018-2.3l11.819-11.819a1.616,1.616,0,1,1,2.285,2.285l-11.819,11.819a1.631,1.631,0,0,1-2.3.018m13.6-13.6a.878.878,0,0,0-1.24.01l-11.819,11.819a.87.87,0,1,0,1.231,1.23l11.819-11.819a.878.878,0,0,0,.01-1.24" transform="translate(-198.872 -201.476)" fill="#e9522a"/><path d="M227.339,244.949a.784.784,0,1,1-1.108-1.108l11.827-11.828a.784.784,0,0,1,1.108,1.108Z" transform="translate(-214.591 -220.081)" fill="#cce9ff"/><path d="M503.548,6.074l5.89,5.865,5.1-5.12a5.6,5.6,0,0,0-.2-1.242l-4.964,4.986-4.445-4.425,4.962-4.987a5.238,5.238,0,0,0-1.215-.229Z" transform="translate(-478.125 -0.875)" fill="#321e96"/><path d="M499.055,5.853l6.122,6.1,5.1-5.126-.012-.22-5.1,5.119-5.89-5.865,5.124-5.15c-.07-.006-.143-.01-.218-.013Z" transform="translate(-473.859 -0.659)" fill="#e9522a"/><path d="M11.219,510.694l-5.89-5.865-5.1,5.12a5.58,5.58,0,0,0,.2,1.242L5.4,506.2,9.84,510.63l-4.962,4.987a5.233,5.233,0,0,0,1.214.229Z" transform="translate(-0.22 -479.341)" fill="#321e96"/><path d="M11.226,506.439l-6.123-6.1L0,505.469l.012.22,5.1-5.119L11,506.435l-5.124,5.149c.07.006.143.01.218.014Z" transform="translate(0 -475.082)" fill="#e9522a"/><path d="M336.811,335.778c-1.125-1.175-10.569-12.458-10.569-12.458l-1.025.866s9.982,11.716,10.547,12.475c.97,1.306,1.327,2.2,2.048,3.053l3.209,3.8,1.667-1.408-3.21-3.8c-.72-.852-1.542-1.354-2.668-2.528" transform="translate(-308.798 -306.996)" fill="#fff"/><path d="M59.924,15.715c-1.049-1.327-7.109-8.3-7.109-8.3A2.078,2.078,0,0,0,50.74,6.6,7.7,7.7,0,0,0,48.056,7.94a7.7,7.7,0,0,0-1.767,2.424,2.079,2.079,0,0,0,.457,2.182s5.864,7.137,7,8.393a11.414,11.414,0,0,0,3.554,2.5,5.1,5.1,0,0,1,2.052,3.34c-.123.5.407,1.3,1.055,1.878.911.813,2.914-.261,3.859-.965.1-.073.193-.151.286-.232s.188-.159.276-.244c.852-.814,2.239-2.606,1.6-3.644-.439-.708-1.165-1.393-1.676-1.354a5.1,5.1,0,0,1-2.951-2.58,11.427,11.427,0,0,0-1.87-3.921" transform="translate(-43.802 -6.212)" fill="#321e96"/><path d="M82.363,57.56a1.629,1.629,0,0,1-2.489,2.1L71.73,50.026a1.629,1.629,0,1,1,2.489-2.1Z" transform="translate(-67.743 -44.954)" fill="#e9522a"/><path d="M407.871,317.207l1.38,1.633a2.022,2.022,0,0,0,.287-2c-.439-.708-1.165-1.393-1.675-1.354,0,0-.075-.025-.2-.075a1.629,1.629,0,0,0,.208,1.791" transform="translate(-386.913 -299.491)" fill="#383097"/><path d="M144.359,8.11l8.144,9.638a1.629,1.629,0,0,0,1.731.5,8,8,0,0,0-1.4-2.615c-1.049-1.327-7.109-8.3-7.109-8.3a2.2,2.2,0,0,0-1.638-.873,1.629,1.629,0,0,0,.273,1.646" transform="translate(-136.705 -6.137)" fill="#383097"/><path d="M337.735,359.751a1.629,1.629,0,0,0-2.489,2.1l1.4,1.653a7.959,7.959,0,0,0,1.774-.99c.1-.073.193-.151.286-.232s.188-.159.276-.244c.116-.11.241-.239.37-.381Z" transform="translate(-317.955 -341.039)" fill="#e9522a"/></g></svg>