<svg xmlns="http://www.w3.org/2000/svg" xmlns:xlink="http://www.w3.org/1999/xlink" width="30" height="30" viewBox="0 0 30 30"><defs><clipPath id="a"><rect width="30" height="30" transform="translate(0 0)" fill="none"/></clipPath></defs><g transform="translate(0 0.001)"><g transform="translate(0 -0.001)" clip-path="url(#a)"><path d="M30,15A15,15,0,1,1,15,0,15,15,0,0,1,30,15" transform="translate(0 0.001)" fill="#333d45" fill-rule="evenodd"/><path d="M138.041,90.326c0-1.4-.005-2.808.005-4.211,0-.237-.065-.311-.3-.3-.437.018-.876,0-1.314.008-.177,0-.243-.045-.241-.233q.013-1.314,0-2.628c0-.168.049-.224.22-.22.448.01.9-.013,1.344.01.259.013.313-.079.307-.32q-.023-1,0-2a3.838,3.838,0,0,1,.721-2.236,3.11,3.11,0,0,1,2.493-1.267c1.034-.046,2.07-.02,3.105-.032.144,0,.187.05.187.19q-.007,1.329,0,2.658c0,.158-.05.206-.2.2-.5-.008-1,0-1.493,0a.986.986,0,0,0-1.1,1c-.033.526-.009,1.055-.021,1.582,0,.188.107.175.232.175.756,0,1.513.007,2.27-.005.222,0,.3.047.27.281-.1.88-.177,1.762-.252,2.645-.017.2-.108.237-.287.234-.6-.009-1.194-.006-1.792,0-.429,0-.387-.063-.387.375,0,2.748-.006,5.5.006,8.243,0,.29-.073.362-.36.357q-1.538-.028-3.076,0c-.289.006-.336-.092-.334-.35.011-1.384.005-2.767.005-4.151" transform="translate(-125.392 -70.799)" fill="#fff" fill-rule="evenodd"/></g></g></svg>