<svg xmlns="http://www.w3.org/2000/svg" xmlns:xlink="http://www.w3.org/1999/xlink" width="856.706" height="570.264" viewBox="0 0 856.706 570.264"><defs><clipPath id="a"><rect width="856.706" height="570.264" fill="#f6f6fa"/></clipPath><clipPath id="b"><rect width="856.704" height="570.263" fill="none"/></clipPath><clipPath id="c"><path d="M1602.9,402.323c3.9,3.228,7.64,14.654,7.64,14.654l2.6,1.826v7.316l-1.788-1.2s-36.09-16.122-35.928-28.546c.046-3.509,1.948-4.819,4.74-4.82,7.092,0,19.935,8.449,22.734,10.765" transform="translate(-1575.425 -391.558)" fill="none"/></clipPath><linearGradient id="d" x1="19.746" y1="11.394" x2="19.734" y2="11.394" gradientUnits="objectBoundingBox"><stop offset="0" stop-color="#191468"/><stop offset="1" stop-color="#383097"/></linearGradient><clipPath id="f"><path d="M557.529,526.565a29.436,29.436,0,0,0,10.091-3.791,49.072,49.072,0,0,0,10.091-7.862,60.215,60.215,0,0,0,8.244-10.318,53.953,53.953,0,0,0,5.56-11.454,35.236,35.236,0,0,0,2.035-11.267,18.106,18.106,0,0,0-2.035-8.916,11.314,11.314,0,0,0-5.56-5.034,15.053,15.053,0,0,0-8.244-.8,29.432,29.432,0,0,0-10.091,3.791,49.117,49.117,0,0,0-10.091,7.861,60.229,60.229,0,0,0-8.244,10.319,53.912,53.912,0,0,0-5.559,11.454,35.244,35.244,0,0,0-2.035,11.267,18.106,18.106,0,0,0,2.035,8.916,11.307,11.307,0,0,0,5.559,5.034,13.717,13.717,0,0,0,5.38,1.029,18.821,18.821,0,0,0,2.865-.228m49.938-52.727c0,22.007-17.84,50.147-39.846,62.852-17.434,10.066-32.251,7.422-37.657-5.051a6.944,6.944,0,0,0,4.047-2.034,8.291,8.291,0,0,0,2.155-5.2c.07-.783.159-1.565.255-2.345.839-5.693,2.054-11.317,2.695-17.043q-.054.4-.108.8c.193-1.608.3-3.217.458-4.824a16.2,16.2,0,0,1,.719-2.449c1.277-2.763,2.872-5.372,4.1-8.159.958-2.173,1.968-4.31,3.059-6.412a9.119,9.119,0,0,0,.741-.955c1.123-1.666,2.161-3.391,3.331-5.025a18.508,18.508,0,0,1,1.8-1.856c1.091-.727,2.256-1.34,3.381-2.012q2.354-1.4,4.651-2.9c3.021-1.959,5.981-4.009,8.927-6.078a10.887,10.887,0,0,0,1.7-1.451c.153-.073.3-.149.459-.219a101.484,101.484,0,0,1,13.05-3.521c2.581-.618,5.136-1.157,7.761-1.558a43.433,43.433,0,0,0,8-1.781c.161-.057.32-.118.477-.181,3.7,3.911,5.84,9.791,5.84,17.4" transform="translate(-529.964 -456.434)" fill="none"/></clipPath><linearGradient id="g" x1="4.082" y1="2.276" x2="4.076" y2="2.276" gradientUnits="objectBoundingBox"><stop offset="0" stop-color="#d0d4f9"/><stop offset="1" stop-color="#636c9e"/></linearGradient><clipPath id="i"><path d="M554.706,546.649a31.7,31.7,0,0,0,10.873-4.085,52.9,52.9,0,0,0,10.873-8.471,64.842,64.842,0,0,0,8.882-11.118,58.092,58.092,0,0,0,5.99-12.34,37.962,37.962,0,0,0,2.193-12.139,19.508,19.508,0,0,0-2.193-9.607,12.187,12.187,0,0,0-5.99-5.424,16.226,16.226,0,0,0-8.882-.862,31.716,31.716,0,0,0-10.873,4.085,52.912,52.912,0,0,0-10.873,8.47,64.842,64.842,0,0,0-8.883,11.119,58.122,58.122,0,0,0-5.989,12.341,37.977,37.977,0,0,0-2.193,12.14,19.513,19.513,0,0,0,2.193,9.606,12.191,12.191,0,0,0,5.989,5.425,14.772,14.772,0,0,0,5.794,1.108,20.292,20.292,0,0,0,3.089-.247M599.224,495.2c0,18.582-15.064,42.342-33.646,53.071s-33.645,4.362-33.645-14.22S547,491.709,565.578,480.98c6.118-3.532,11.855-5.211,16.8-5.211,10.071,0,16.847,6.967,16.847,19.432" transform="translate(-531.933 -475.769)" fill="none"/></clipPath><linearGradient id="j" x1="-3.146" y1="4.018" x2="-3.14" y2="4.018" xlink:href="#g"/><clipPath id="k"><path d="M568.064,581.7h0m8.5-10.74c.452-.716.682-1.123.682-1.123a2.5,2.5,0,0,1-.682,1.123m-3.189-.636c1.633,1.344,2.621,1.134,3.189.636-.689,1.092-1.893,2.9-3.58,5.082a57.082,57.082,0,0,1-4.924,5.658c.012-.012,2.758-2.786.257-4.844s-7.481-3.975-7.481-3.975l7.121-9.2a27.565,27.565,0,0,0,5.417,6.64" transform="translate(-560.841 -563.68)" fill="none"/></clipPath><linearGradient id="l" x1="-13.948" y1="16.247" x2="-13.923" y2="16.247" xlink:href="#g"/><clipPath id="m"><path d="M620.4,581.424a136.678,136.678,0,0,0-7.484,12.612,28.638,28.638,0,0,1-9.03,9.908,16.762,16.762,0,0,1-4.924.025,11.834,11.834,0,0,1-4.26-1.286s10.651-4.386,13.158-9.342,5.42-12.895,5.42-12.895Z" transform="translate(-594.7 -580.447)" fill="none"/></clipPath><linearGradient id="n" x1="-9.576" y1="11.797" x2="-9.56" y2="11.797" xlink:href="#g"/><clipPath id="o"><path d="M630.659,570.4a47.453,47.453,0,0,0-10.27,1.538c-5.1,1.423-16.277,2.684-16.277,2.684a33.149,33.149,0,0,1,3.271-12.65s10.653,4.136,14.784,2.985a93.988,93.988,0,0,0,11-4.388Z" transform="translate(-604.113 -560.569)" fill="none"/></clipPath><linearGradient id="p" x1="-8.976" y1="19.012" x2="-8.961" y2="19.012" xlink:href="#g"/><clipPath id="q"><path d="M600.554,510.1a58.63,58.63,0,0,0,1.71,10.051l-8.745,5.4a69.351,69.351,0,0,0,.825-11.615c-.213-5.2-7.619-12.4-7.619-12.4a45.774,45.774,0,0,1,5.617-4.038A34.358,34.358,0,0,1,598,494.573s2.379,11.316,2.55,15.526" transform="translate(-586.726 -494.573)" fill="none"/></clipPath><linearGradient id="r" x1="-14.261" y1="10.767" x2="-14.236" y2="10.767" xlink:href="#g"/><clipPath id="s"><path d="M563.373,501.43a15.9,15.9,0,0,1,1.509,4.6s-2.6,7.4-6.621,11.28-9.887,10.9-9.887,10.9l-3.165-6.331a120.006,120.006,0,0,0,10.8-9.069c4.966-4.794,4.787-14.951,4.787-14.951a11.472,11.472,0,0,1,2.573,3.57" transform="translate(-545.209 -497.86)" fill="none"/></clipPath><linearGradient id="t" x1="-10.86" y1="10.802" x2="-10.84" y2="10.802" xlink:href="#g"/><clipPath id="u"><path d="M594.231,550.3c0,5.184-4.2,11.811-9.385,14.8s-9.385,1.217-9.385-3.966,4.2-11.811,9.385-14.8a9.587,9.587,0,0,1,4.686-1.454c2.809,0,4.7,1.943,4.7,5.42" transform="translate(-575.461 -544.877)" fill="none"/></clipPath><linearGradient id="v" x1="8.318" y1="8.734" x2="8.305" y2="8.734" xlink:href="#g"/><clipPath id="w"><path d="M589.054,565.181c2.3-1.33,4.25-4.369,4.25-6.635a1.824,1.824,0,0,0-.7-1.646,1.51,1.51,0,0,0-.762-.182,3.974,3.974,0,0,0-1.9.609c-2.3,1.33-4.25,4.369-4.25,6.635a1.824,1.824,0,0,0,.7,1.646,1.507,1.507,0,0,0,.762.182,3.982,3.982,0,0,0,1.9-.608m4.428-9.807a3.455,3.455,0,0,1,1.583,3.172c0,2.915-2.253,6.5-5.13,8.161a5.675,5.675,0,0,1-2.788.841,3.236,3.236,0,0,1-1.639-.416,3.45,3.45,0,0,1-1.584-3.171c0-2.915,2.253-6.5,5.13-8.16a5.675,5.675,0,0,1,2.789-.842,3.246,3.246,0,0,1,1.639.415" transform="translate(-583.924 -554.959)" fill="none"/></clipPath><linearGradient id="x" x1="-18.828" y1="21.493" x2="-18.796" y2="21.493" xlink:href="#g"/><clipPath id="z"><rect width="78.511" height="100.933" fill="none"/></clipPath><clipPath id="aa"><path d="M986.39,0s43.4.976,91.2,34.625,64.374,46.33,64.861,83.394V198l-10.241,13.655s.975-38.837-39.015-10.153-44.378,63.8-47.3,75.014c-17.556,8.778-230.672,139.964-230.672,139.964s13.655-51.206-15.606-43.4S732.8,399.9,732.8,476.952c-15.118,4.877-55.6,17.556-107.777-10.241s-101.925-71.518-101.925-84.039V332.111s-5.853-34.625,26.821-62.911,72.665-54.62,89.246-70.225,62.423-72.665,82.905-88.27S888.854,7.8,909.823,5.854c9.626-.9,19.971,1.086,29.479,3.068,11.205,2.336,21.248,4.671,27.58,2.3A69.665,69.665,0,0,0,986.39,0Z" transform="translate(-522.687 -0.001)" fill="none"/></clipPath><linearGradient id="ab" x1="-0.404" y1="0.955" x2="-0.403" y2="0.955" xlink:href="#d"/><clipPath id="ad"><rect width="77.499" height="12.096" fill="none"/></clipPath><clipPath id="ae"><rect width="41.004" height="38.154" fill="none"/></clipPath><clipPath id="af"><rect width="40.546" height="78.407" fill="none"/></clipPath><clipPath id="ag"><rect width="104.618" height="37.565" fill="none"/></clipPath><clipPath id="ah"><rect width="87.117" height="37.356" fill="none"/></clipPath><clipPath id="ai"><rect width="27.272" height="72.686" fill="none"/></clipPath><clipPath id="aj"><rect width="61.454" height="51.41" fill="none"/></clipPath><clipPath id="ak"><path d="M722.2,289.071l-8.831,4.142-21.244-44.75,8.831-4.142Z" transform="translate(-692.126 -244.322)" fill="none"/></clipPath><linearGradient id="al" x1="-5.442" y1="10.933" x2="-5.433" y2="10.933" xlink:href="#d"/><clipPath id="an"><rect width="152.906" height="110.139" fill="none"/></clipPath><clipPath id="ao"><rect width="27.655" height="35.455" fill="none"/></clipPath><clipPath id="ap"><rect width="23.338" height="37.218" fill="none"/></clipPath><clipPath id="aq"><rect width="73.731" height="66.017" fill="none"/></clipPath><clipPath id="ar"><rect width="81.162" height="9.754" transform="translate(34.463 77.624) rotate(-115.126)" fill="none"/></clipPath><linearGradient id="as" x1="-4.192" y1="6.789" x2="-4.186" y2="6.789" xlink:href="#d"/><clipPath id="au"><rect width="300.21" height="219.405" fill="none"/></clipPath><clipPath id="av"><path d="M1746.632,869.207v13.545L1687.485,848.6V835.058Z" transform="translate(-1687.485 -835.058)" fill="none"/></clipPath><linearGradient id="aw" x1="13.859" y1="4.065" x2="13.851" y2="4.065" gradientUnits="objectBoundingBox"><stop offset="0" stop-color="#cfd5f7"/><stop offset="1" stop-color="#bcc2e6"/></linearGradient><clipPath id="ay"><rect width="619.352" height="336.4" fill="none"/></clipPath><clipPath id="az"><rect width="4.809" height="27.741" fill="none"/></clipPath><clipPath id="ba"><rect width="35.272" height="16.965" fill="none"/></clipPath><clipPath id="bb"><path d="M1315.957,849.8c-9.91,6.091-15.806,9.72-15.806,9.72s13.655-51.206-15.607-43.4-66.812,26.823-66.812,103.876c-2.267.731-5.11,1.639-8.474,2.558-1-20.149.322-88.62,61.616-110.817,9.974-3.612,17.956-5.169,24.305-5.169,25.618,0,24.651,25.344,20.778,43.235" transform="translate(-1209.086 -806.566)" fill="none"/></clipPath><linearGradient id="bc" x1="5.818" y1="1.782" x2="5.814" y2="1.782" gradientUnits="objectBoundingBox"><stop offset="0" stop-color="#191468"/><stop offset="0.197" stop-color="#2a2381"/><stop offset="0.374" stop-color="#342c91"/><stop offset="0.514" stop-color="#383097"/><stop offset="0.651" stop-color="#352d92"/><stop offset="0.8" stop-color="#2c2585"/><stop offset="0.955" stop-color="#1e186f"/><stop offset="1" stop-color="#191468"/></linearGradient><clipPath id="bd"><path d="M629.138,419.363l-9.226,12.3s.975-38.838-39.015-10.154-44.378,63.8-47.3,75.015c-1.515.757-4.488,2.427-8.653,4.846,2.993-17.919,14.25-67.637,49.13-87.72,15.894-9.152,27.549-13.119,35.986-13.118,11.428,0,16.949,7.286,19.083,18.829" transform="translate(-524.939 -400.534)" fill="none"/></clipPath><linearGradient id="be" x1="3.271" y1="3.662" x2="3.266" y2="3.662" xlink:href="#bc"/><clipPath id="bl"><path d="M576.711,570.817c.362-.628.539-.984.539-.984a2.576,2.576,0,0,1-.539.984m-3.332-.5c1.779,1.464,2.792,1.084,3.332.5a47.709,47.709,0,0,1-3.571,5.266,52.607,52.607,0,0,1-5.09,5.749s2.485-3.116.271-4.98c-2.482-2.091-7.481-3.975-7.481-3.975l7.121-9.2a27.565,27.565,0,0,0,5.417,6.64" transform="translate(-560.841 -563.68)" fill="none"/></clipPath><linearGradient id="bm" x1="-13.937" y1="16.135" x2="-13.912" y2="16.135" xlink:href="#g"/><clipPath id="bn"><path d="M620.694,581.424a136.7,136.7,0,0,0-7.484,12.612c-3.1,6.122-9.181,10.358-9.181,10.358a17.664,17.664,0,0,1-4.954,0,10.474,10.474,0,0,1-4.375-1.522s10.947-4.575,13.454-9.53,5.42-12.895,5.42-12.895Z" transform="translate(-594.7 -580.447)" fill="none"/></clipPath><linearGradient id="bo" x1="-9.462" y1="11.599" x2="-9.446" y2="11.599" xlink:href="#g"/><clipPath id="by"><path d="M589.812,566.1c2.465-1.422,4.47-4.57,4.47-7.017a2.2,2.2,0,0,0-.922-2.027,1.957,1.957,0,0,0-.986-.242,4.382,4.382,0,0,0-2.121.668c-2.465,1.423-4.471,4.571-4.471,7.017a2.2,2.2,0,0,0,.924,2.027,1.949,1.949,0,0,0,.985.242,4.379,4.379,0,0,0,2.121-.669m3.987-9.806a3.033,3.033,0,0,1,1.363,2.79c0,2.727-2.2,6.217-4.909,7.779a5.242,5.242,0,0,1-2.567.783,2.81,2.81,0,0,1-1.42-.357,3.032,3.032,0,0,1-1.363-2.79c0-2.726,2.2-6.216,4.91-7.779a5.245,5.245,0,0,1,2.567-.784,2.812,2.812,0,0,1,1.42.357" transform="translate(-584.902 -555.934)" fill="none"/></clipPath><linearGradient id="bz" x1="-20.441" y1="23.111" x2="-20.406" y2="23.111" xlink:href="#g"/><clipPath id="cb"><path d="M1260.061,962.276a29.438,29.438,0,0,0,10.091-3.791,49.047,49.047,0,0,0,10.092-7.862,60.209,60.209,0,0,0,8.244-10.319,53.982,53.982,0,0,0,5.56-11.454,35.239,35.239,0,0,0,2.034-11.266,18.108,18.108,0,0,0-2.034-8.916,11.312,11.312,0,0,0-5.56-5.034,15.052,15.052,0,0,0-8.244-.8,29.455,29.455,0,0,0-10.092,3.792,49.1,49.1,0,0,0-10.091,7.861,60.209,60.209,0,0,0-8.244,10.319,53.929,53.929,0,0,0-5.559,11.454,35.223,35.223,0,0,0-2.035,11.267,18.1,18.1,0,0,0,2.035,8.916,11.309,11.309,0,0,0,5.559,5.034,13.724,13.724,0,0,0,5.379,1.029,18.714,18.714,0,0,0,2.865-.229M1310,909.55c0,22.007-17.84,50.146-39.847,62.851-17.434,10.066-32.25,7.423-37.656-5.051a6.951,6.951,0,0,0,4.047-2.034,8.3,8.3,0,0,0,2.155-5.2c.071-.783.159-1.565.255-2.345.839-5.693,2.055-11.317,2.694-17.043q-.053.4-.107.8c.193-1.608.295-3.216.457-4.824a16.293,16.293,0,0,1,.719-2.448c1.277-2.765,2.871-5.372,4.1-8.16.958-2.172,1.968-4.311,3.059-6.412a9.008,9.008,0,0,0,.741-.955c1.123-1.666,2.161-3.391,3.331-5.024a18.379,18.379,0,0,1,1.8-1.856c1.091-.727,2.255-1.341,3.38-2.012q2.354-1.4,4.651-2.9c3.02-1.959,5.981-4.008,8.927-6.078a10.852,10.852,0,0,0,1.7-1.451c.153-.074.305-.149.459-.22a101.589,101.589,0,0,1,13.05-3.521c2.581-.618,5.136-1.157,7.761-1.558a43.371,43.371,0,0,0,8-1.78c.161-.057.319-.117.476-.181,3.7,3.911,5.84,9.791,5.84,17.4" transform="translate(-1232.496 -892.145)" fill="none"/></clipPath><linearGradient id="cc" x1="8.167" y1="1.184" x2="8.162" y2="1.184" xlink:href="#g"/><clipPath id="ce"><path d="M1257.238,982.36a31.7,31.7,0,0,0,10.873-4.085,52.894,52.894,0,0,0,10.874-8.471,64.859,64.859,0,0,0,8.882-11.118,58.11,58.11,0,0,0,5.99-12.34,37.963,37.963,0,0,0,2.193-12.14,19.5,19.5,0,0,0-2.193-9.607,12.183,12.183,0,0,0-5.99-5.424,16.222,16.222,0,0,0-8.882-.862,31.723,31.723,0,0,0-10.874,4.085,52.943,52.943,0,0,0-10.873,8.471,64.833,64.833,0,0,0-8.882,11.118,58.114,58.114,0,0,0-5.99,12.34,37.972,37.972,0,0,0-2.193,12.14,19.507,19.507,0,0,0,2.193,9.607,12.187,12.187,0,0,0,5.99,5.424,14.772,14.772,0,0,0,5.795,1.108,20.254,20.254,0,0,0,3.087-.247m44.518-51.448c0,18.582-15.063,42.343-33.645,53.071s-33.645,4.361-33.645-14.22,15.063-42.343,33.645-53.071c6.118-3.532,11.855-5.211,16.8-5.211,10.071,0,16.847,6.968,16.847,19.432" transform="translate(-1234.466 -911.48)" fill="none"/></clipPath><linearGradient id="cf" x1="-7.37" y1="1.819" x2="-7.364" y2="1.819" xlink:href="#g"/><clipPath id="cg"><path d="M1270.6,1017.408h0m8.5-10.74c.451-.716.681-1.124.681-1.124a2.5,2.5,0,0,1-.681,1.124m-3.189-.636c1.633,1.344,2.621,1.134,3.189.636-.689,1.092-1.893,2.9-3.58,5.081a56.957,56.957,0,0,1-4.924,5.659c.012-.012,2.758-2.786.257-4.845s-7.482-3.974-7.482-3.974l7.122-9.2a27.568,27.568,0,0,0,5.417,6.64" transform="translate(-1263.374 -999.392)" fill="none"/></clipPath><linearGradient id="ch" x1="-31.476" y1="6.181" x2="-31.451" y2="6.181" xlink:href="#g"/><clipPath id="ci"><path d="M1322.93,1017.135a136.625,136.625,0,0,0-7.484,12.612,28.637,28.637,0,0,1-9.031,9.908,16.741,16.741,0,0,1-4.924.025,11.822,11.822,0,0,1-4.259-1.285s10.65-4.386,13.157-9.342,5.42-12.895,5.42-12.895Z" transform="translate(-1297.232 -1016.158)" fill="none"/></clipPath><linearGradient id="cj" x1="-20.936" y1="4.32" x2="-20.919" y2="4.32" xlink:href="#g"/><clipPath id="ck"><path d="M1333.192,1006.111a47.459,47.459,0,0,0-10.27,1.539c-5.1,1.422-16.278,2.682-16.278,2.682a33.194,33.194,0,0,1,3.271-12.649s10.654,4.136,14.785,2.985a93.9,93.9,0,0,0,11-4.387Z" transform="translate(-1306.645 -996.281)" fill="none"/></clipPath><linearGradient id="cl" x1="-19.437" y1="7.308" x2="-19.422" y2="7.308" xlink:href="#g"/><clipPath id="cm"><path d="M1303.087,945.81a58.585,58.585,0,0,0,1.71,10.051l-8.744,5.4a69.483,69.483,0,0,0,.825-11.616c-.212-5.2-7.619-12.4-7.619-12.4a45.761,45.761,0,0,1,5.616-4.038,34.219,34.219,0,0,1,5.662-2.923s2.378,11.316,2.55,15.525" transform="translate(-1289.258 -930.285)" fill="none"/></clipPath><linearGradient id="cn" x1="-31.43" y1="4.692" x2="-31.406" y2="4.692" xlink:href="#g"/><clipPath id="co"><path d="M1265.906,937.141a15.886,15.886,0,0,1,1.509,4.6s-2.6,7.4-6.621,11.281-9.887,10.9-9.887,10.9l-3.165-6.331a120.024,120.024,0,0,0,10.8-9.069c4.967-4.794,4.786-14.951,4.786-14.951a11.487,11.487,0,0,1,2.574,3.57" transform="translate(-1247.742 -933.571)" fill="none"/></clipPath><linearGradient id="cp" x1="-24.935" y1="4.685" x2="-24.915" y2="4.685" xlink:href="#g"/><clipPath id="cq"><path d="M1296.763,986.008c0,5.183-4.2,11.811-9.386,14.8s-9.384,1.217-9.384-3.967,4.2-11.811,9.384-14.8a9.586,9.586,0,0,1,4.687-1.454c2.809,0,4.7,1.944,4.7,5.42" transform="translate(-1277.993 -980.588)" fill="none"/></clipPath><linearGradient id="cr" x1="17.53" y1="3.569" x2="17.517" y2="3.569" xlink:href="#g"/><clipPath id="cs"><path d="M1291.588,1000.892c2.3-1.328,4.25-4.367,4.25-6.634a1.824,1.824,0,0,0-.7-1.646,1.507,1.507,0,0,0-.762-.183,3.981,3.981,0,0,0-1.9.609c-2.3,1.33-4.251,4.369-4.251,6.635a1.825,1.825,0,0,0,.7,1.646,1.513,1.513,0,0,0,.762.181,3.975,3.975,0,0,0,1.9-.609m4.428-9.806a3.453,3.453,0,0,1,1.583,3.172c0,2.915-2.253,6.5-5.13,8.16a5.676,5.676,0,0,1-2.789.842,3.238,3.238,0,0,1-1.639-.415,3.453,3.453,0,0,1-1.585-3.171c0-2.915,2.254-6.5,5.131-8.161a5.671,5.671,0,0,1,2.789-.841,3.25,3.25,0,0,1,1.639.415" transform="translate(-1286.457 -990.671)" fill="none"/></clipPath><linearGradient id="ct" x1="-41.599" y1="8.357" x2="-41.566" y2="8.357" xlink:href="#g"/><clipPath id="cv"><rect width="78.513" height="100.933" fill="none"/></clipPath><clipPath id="db"><path d="M1279.244,1006.529c.362-.628.54-.984.54-.984a2.564,2.564,0,0,1-.54.984m-3.331-.5c1.779,1.464,2.792,1.084,3.331.5a47.468,47.468,0,0,1-3.569,5.265,52.713,52.713,0,0,1-5.09,5.75s2.484-3.117.272-4.981c-2.483-2.091-7.482-3.974-7.482-3.974l7.122-9.2a27.568,27.568,0,0,0,5.417,6.64" transform="translate(-1263.374 -999.392)" fill="none"/></clipPath><linearGradient id="dc" x1="-31.452" y1="6.138" x2="-31.428" y2="6.138" xlink:href="#g"/><clipPath id="dd"><path d="M1323.226,1017.135a136.678,136.678,0,0,0-7.484,12.612c-3.1,6.122-9.181,10.359-9.181,10.359a17.648,17.648,0,0,1-4.954,0,10.469,10.469,0,0,1-4.375-1.522s10.946-4.575,13.453-9.531,5.421-12.895,5.421-12.895Z" transform="translate(-1297.232 -1016.158)" fill="none"/></clipPath><linearGradient id="de" x1="-20.686" y1="4.247" x2="-20.67" y2="4.247" xlink:href="#g"/><clipPath id="do"><path d="M1292.344,1001.809c2.465-1.422,4.47-4.57,4.47-7.016a2.2,2.2,0,0,0-.924-2.027,1.948,1.948,0,0,0-.985-.242,4.389,4.389,0,0,0-2.121.669c-2.465,1.423-4.469,4.571-4.469,7.017a2.2,2.2,0,0,0,.923,2.027,1.952,1.952,0,0,0,.986.242,4.379,4.379,0,0,0,2.12-.669m3.987-9.806a3.03,3.03,0,0,1,1.363,2.79c0,2.727-2.2,6.216-4.91,7.779a5.238,5.238,0,0,1-2.566.783,2.8,2.8,0,0,1-1.42-.357,3.032,3.032,0,0,1-1.364-2.789c0-2.727,2.2-6.217,4.91-7.779a5.243,5.243,0,0,1,2.567-.784,2.808,2.808,0,0,1,1.42.357" transform="translate(-1287.434 -991.646)" fill="none"/></clipPath><linearGradient id="dp" x1="-45.113" y1="8.963" x2="-45.077" y2="8.963" xlink:href="#g"/></defs><g clip-path="url(#a)"><path d="M529.963,366.7l6.436,37.546,35.59,10.144-6.871-37.781-8.751-28.4Z" transform="translate(45.859 -191.266)" fill="#383097"/><g transform="translate(0.001 0.001)"><g clip-path="url(#b)"><path d="M1695.09,874.117c-12.5,1.34-42.1-2.929-94.133-41.735-37.517-27.979-48.527-53.005-51.751-64.793V792.4c11.765,17.2,30.9,39.448,48.2,52.056,41.266,30.077,79.6,39.643,96.442,43.151s14.88-14.956,1.241-13.495" transform="translate(-1547.434 -421.633)" fill="#191468"/></g></g><g transform="translate(108.937 176.477)"><g clip-path="url(#c)"><rect width="37.878" height="34.562" transform="translate(-0.162 -0.001)" fill="url(#d)"/></g></g><g transform="translate(0.001 0.001)"><g clip-path="url(#b)"><path d="M613.082,421.924l-.142-.083c-8.141-4.651-20.094-3.643-33.423,4.052-24.445,14.113-44.261,45.371-44.261,69.816,0,10.947,3.976,18.668,10.56,22.593,0,0,.146.088.146.088l.147.086,23.579,13.737L624.78,496.88l9.68-62.4Z" transform="translate(-18.998 -230.178)" fill="#0e0e49"/></g></g><g transform="translate(540.345 205.717)"><g transform="translate(0)" clip-path="url(#f)"><path d="M529.964,401.9l77.5-44.75V492.217l-77.5,44.75Z" transform="translate(-529.964 -401.895)" fill="url(#g)"/></g></g><g transform="translate(0.001 0.001)"><g clip-path="url(#b)"><path d="M552.639,466.265a63.269,63.269,0,0,0-13,10.13,76.569,76.569,0,0,0-5.672,6.354,79.076,79.076,0,0,0-4.954,6.947,74.788,74.788,0,0,0-4.087,7.313,64.942,64.942,0,0,0-3.079,7.45,45.4,45.4,0,0,0-2.622,14.518,23.333,23.333,0,0,0,2.622,11.491,15.279,15.279,0,0,0,3.079,3.9,14.522,14.522,0,0,0,4.087,2.593,16.983,16.983,0,0,0,4.954,1.227,22.714,22.714,0,0,0,5.672-.2,37.932,37.932,0,0,0,13-4.886,63.245,63.245,0,0,0,13-10.13,76.607,76.607,0,0,0,5.672-6.354,78.969,78.969,0,0,0,4.954-6.946,74.821,74.821,0,0,0,4.087-7.313,65.05,65.05,0,0,0,3.079-7.451,45.4,45.4,0,0,0,2.621-14.518,23.337,23.337,0,0,0-2.621-11.491A15.268,15.268,0,0,0,580.357,465a14.5,14.5,0,0,0-4.087-2.593,16.963,16.963,0,0,0-4.954-1.227,22.707,22.707,0,0,0-5.672.2,37.935,37.935,0,0,0-13,4.886m0-10.843c24.445-14.113,44.262-5.738,44.262,18.707s-19.817,55.7-44.262,69.817-44.261,5.738-44.261-18.707,19.816-55.7,44.261-69.816" transform="translate(30.674 -246.396)" fill="#191468"/></g></g><g transform="translate(549.67 214.432)"><g transform="translate(0)" clip-path="url(#i)"><rect width="74.974" height="89.31" transform="translate(66.67 89.664) rotate(-174.489)" fill="url(#j)"/></g></g><g transform="translate(587.522 254.054)"><g transform="translate(0)" clip-path="url(#k)"><rect width="18.064" height="19.509" transform="translate(16.258 19.585) rotate(-174.489)" fill="url(#l)"/></g></g><g transform="translate(562.973 261.611)"><g transform="translate(0)" clip-path="url(#m)"><rect width="27.876" height="26.264" transform="matrix(-0.995, -0.096, 0.096, -0.995, 25.461, 26.363)" fill="url(#n)"/></g></g><g transform="translate(555.377 252.651)"><g transform="translate(0)" clip-path="url(#o)"><rect width="30.267" height="16.777" transform="matrix(-0.995, -0.096, 0.096, -0.995, 28.784, 16.829)" fill="url(#p)"/></g></g><g transform="translate(576.726 222.907)"><g transform="translate(0)" clip-path="url(#q)"><rect width="18.442" height="32.323" transform="translate(15.395 32.459) rotate(-174.489)" fill="url(#r)"/></g></g><g transform="translate(591.303 224.388)"><g transform="translate(0)" clip-path="url(#s)"><rect width="22.497" height="32.1" transform="translate(19.492 32.232) rotate(-174.489)" fill="url(#t)"/></g></g><g transform="translate(578.572 245.579)"><g transform="translate(0)" clip-path="url(#u)"><path d="M592.524,528.447l-7.8,30.621-26.572,7.4,7.8-30.621Z" transform="translate(-565.953 -535.852)" fill="url(#v)"/></g></g><g transform="translate(582.387 250.123)"><g transform="translate(0)" clip-path="url(#w)"><rect width="13.904" height="14.95" transform="translate(10.462 15.255) rotate(-165.706)" fill="url(#x)"/></g></g><g transform="translate(0.001 0.001)"><g clip-path="url(#b)"><g transform="translate(536.944 200.063)" opacity="0.2"><g transform="translate(0)"><g clip-path="url(#z)"><path d="M537.377,522.669c0-24.445,19.816-55.7,44.261-69.816,8.049-4.648,15.6-6.856,22.1-6.856a23.1,23.1,0,0,1,10.044,2.131l-6.934-4.073a29.057,29.057,0,0,0-3.11-.165c-7.057,0-15.064,2.469-23.152,7.138-12.112,6.993-23.485,18.262-32.023,31.731-8.571,13.52-13.292,27.694-13.292,39.911,0,7.174,1.662,13.329,4.832,18l7.13,4.154c-6.162-4.048-9.854-11.6-9.854-22.154" transform="translate(-535.269 -443.89)" fill="#d1d4f8"/></g></g></g><path d="M1330.4,846.644,1306,832.218s-25.624-9.7-58.838,25.686c-40.725,43.392-23.747-30.119-23.747-30.119l55.6-44.662,59.175,8.128,5.2,30.888Z" transform="translate(-1036.507 -430.165)" fill="#191468"/><path d="M1315.615,857.635l-.142-.083c-8.141-4.651-20.094-3.643-33.423,4.052-24.444,14.113-44.261,45.371-44.261,69.816,0,10.947,3.976,18.668,10.56,22.593,0,0,.145.088.145.088l.148.086,23.578,13.737,55.092-35.333,9.68-62.4Z" transform="translate(-1038.167 -469.512)" fill="#0e0e49"/></g></g><g transform="translate(1.368 0)"><g clip-path="url(#aa)"><rect width="606.533" height="709.353" transform="translate(18.145 613.639) rotate(-101.201)" fill="url(#ab)"/></g></g><g transform="translate(0.001 0.001)"><g clip-path="url(#b)"><g transform="translate(117.169 433.532)" opacity="0.5"><g clip-path="url(#ad)"><path d="M1468.889,961.9c6.466,1.892,12.906,3.5,19.381,4.811a150.665,150.665,0,0,0,19.495,2.714l2.444.145c.815.046,1.63.045,2.445.074.407.012.816.035,1.223.038l1.221,0c.814-.01,1.631.015,2.443-.024a89.782,89.782,0,0,0,9.74-.742l2.424-.349c.8-.136,1.6-.309,2.409-.449.4-.078.81-.138,1.208-.23l1.195-.285,1.2-.277c.4-.09.8-.182,1.2-.3a91.7,91.7,0,0,0,9.474-3.145,42.293,42.293,0,0,1-4.216,2.822l-1.1.642c-.369.211-.737.431-1.122.609l-2.305,1.111c-.383.195-.78.346-1.177.5l-1.19.476-1.2.468c-.4.151-.811.27-1.216.407-.814.264-1.631.531-2.455.77l-2.493.635c-.831.226-1.678.353-2.519.53s-1.688.324-2.539.427-1.7.244-2.553.336l-2.563.218c-.856.092-1.712.08-2.568.121l-1.286.043c-.429.011-.856,0-1.284,0-.856-.014-1.714-.011-2.568-.048l-2.562-.127a90.3,90.3,0,0,1-20.044-3.762,93.441,93.441,0,0,1-9.538-3.495c-1.548-.685-3.088-1.377-4.587-2.162a50.5,50.5,0,0,1-4.409-2.5" transform="translate(-1468.888 -961.898)" fill="#191468"/></g></g><path d="M693.18,418.512l-.87-.137c.04-.253,4.049-25.534,9.86-46.941,5.576-20.545,23.122-36,24.861-37.491,1.339-12.642-2.213-39.93-2.427-41.556l-25.2-49.575.786-.4,25.272,49.709c.049.363,3.869,29.1,2.431,42.091l-.02.177-.137.114c-.189.156-18.946,15.918-24.711,37.161-5.8,21.36-9.8,46.6-9.84,46.847" transform="translate(-183.535 -133.157)" fill="#191468"/><path d="M557.648,13.771c3.68.068,7.357.347,11.023.743,1.828.233,3.664.431,5.482.746l2.734.436c.908.16,1.812.344,2.719.515a157.2,157.2,0,0,1,21.375,5.794,166.02,166.02,0,0,1,20.435,8.6c.828.411,1.67.8,2.487,1.23l2.438,1.323,2.438,1.323c.812.442,1.631.871,2.418,1.358l4.767,2.838,1.192.709,1.163.756,2.325,1.513A292.911,292.911,0,0,1,675.662,68.7,173.335,173.335,0,0,1,691.031,84.64l1.765,2.134c.571.725,1.122,1.468,1.684,2.2,1.143,1.45,2.184,2.979,3.229,4.5.524.76.992,1.559,1.489,2.335s.948,1.583,1.4,2.385a34.094,34.094,0,0,1,2.352,5,33.921,33.921,0,0,0-2.638-4.83c-.5-.772-.972-1.554-1.512-2.3s-1.035-1.513-1.593-2.241l-1.669-2.185c-.539-.741-1.155-1.423-1.73-2.136s-1.162-1.416-1.758-2.112l-1.838-2.044c-.618-.676-1.208-1.376-1.841-2.039l-1.908-1.978-1.906-1.978-1.978-1.909L680.6,75.537l-.986-.957-1.02-.921-4.082-3.681c-1.367-1.218-2.8-2.369-4.191-3.557s-2.777-2.391-4.232-3.507c-2.885-2.263-5.71-4.6-8.69-6.74l-4.406-3.291c-.728-.558-1.477-1.087-2.23-1.609l-2.251-1.58-4.5-3.162-1.126-.789-1.15-.749-2.3-1.5-2.292-1.509L636,41.234l-1.175-.707-4.7-2.829c-.776-.485-1.585-.914-2.386-1.354l-2.4-1.32L622.924,33.7c-.808-.428-1.63-.827-2.445-1.243-1.638-.813-3.255-1.673-4.911-2.449l-4.991-2.282c-1.669-.749-3.378-1.405-5.061-2.121-1.677-.734-3.4-1.342-5.115-1.992a173.608,173.608,0,0,0-21.022-6.353c-.893-.207-1.784-.426-2.679-.622l-2.7-.544c-1.794-.39-3.61-.651-5.416-.981-3.627-.561-7.272-1.046-10.941-1.344" transform="translate(-97.584 -7.565)" fill="#191468"/><g transform="translate(580.122 113.207)" opacity="0.8"><g transform="translate(0)"><g clip-path="url(#ae)"><path d="M563.691,255.99q-.032-2.477-.164-4.812a29.868,29.868,0,0,1-9.135,13.28c-26.128,22.862-31.705,23.733-31.705,23.733a58.007,58.007,0,0,0,41-6.967Z" transform="translate(-522.687 -251.179)" fill="#191468"/></g></g></g><g transform="translate(63.445 232.135)" opacity="0.5"><g clip-path="url(#af)"><path d="M1710.63,518.866s-39.078,49.369-40.546,74.591c0-7.281,10.275-44.06,39.338-78.407a6.582,6.582,0,0,0,1.208,3.816" transform="translate(-1670.087 -515.05)" fill="#191468"/></g></g><g transform="translate(123.591 306.413)" opacity="0.5"><g clip-path="url(#ag)"><path d="M1394.473,717.286s66.084-3.226,103.954-37.432l.66,6.086s-46.958,33.848-104.614,31.346" transform="translate(-1394.471 -679.853)" fill="#191468"/></g></g><path d="M593.686,455.493c115.853-67.884,289.142-201.231,291.34-202.925a4.815,4.815,0,0,0,2.016-4.609,4.728,4.728,0,0,0-3.166-3.89c-6.943-2.444-23.208-8.17-48.906-7.453-30.411.848-65.327,10.271-103.777,28.008-38.946,17.966-73.291,50.067-102.081,95.41-16.893,26.607-31.665,57.7-42.719,89.916-.827,2.414-.336,4.941,1.2,6.145a3.583,3.583,0,0,0,2.257.744,7.223,7.223,0,0,0,3.839-1.348M883.584,244.9a3.942,3.942,0,0,1,.929,6.951c-1.757,1.354-175.313,134.935-291.288,202.891-2.108,1.35-3.916,1.585-5.092.662-1.242-.977-1.615-3.1-.907-5.166,14.49-42.233,57.56-144.784,144.335-184.813,47.7-22,83-28.041,107.975-28.041,22.695,0,36.866,4.988,44.047,7.517" transform="translate(-294.494 -129.939)" fill="#191468"/><path d="M887.585,268.248S734.837,386.032,631.827,446.39c-4.9,3.135-7.049-.886-5.84-4.407,10.447-30.451,46.251-116.866,126.023-153.665C830.75,252,872.153,256.35,886.676,261.463a3.847,3.847,0,0,1,.909,6.784" transform="translate(-314.519 -141.763)" fill="#191468"/><path d="M1222.41,261.052l-73.06,76.323a25.334,25.334,0,0,0,1.107,36.126c33.915,31.333,109.647,67.06,121.283,69.207,16.964,3.132,29.193-3.519,35.49-13.377l52.475-82.154a5.543,5.543,0,0,0-2.158-7.926c-21.509-10.93-100.481-51.948-127.251-78.323a5.538,5.538,0,0,0-7.887.124" transform="translate(-1018.722 -142.455)" fill="#191468"/><path d="M1226.416,262.421a2.447,2.447,0,0,0-1.781.761l-73.06,76.324a22.252,22.252,0,0,0,.972,31.73c33.76,31.188,108.913,66.44,119.751,68.441a42.376,42.376,0,0,0,7.665.73,30.642,30.642,0,0,0,14.956-3.628,27.029,27.029,0,0,0,9.713-9.108l52.475-82.154a2.46,2.46,0,0,0-.958-3.519c-23.233-11.806-101.129-52.384-128.017-78.874a2.43,2.43,0,0,0-1.715-.7m0-3.082a5.508,5.508,0,0,1,3.879,1.589c26.771,26.375,105.742,67.394,127.25,78.323a5.542,5.542,0,0,1,2.159,7.926l-52.475,82.154c-5.229,8.185-14.545,14.159-27.267,14.159a45.255,45.255,0,0,1-8.224-.782c-11.636-2.147-87.368-37.875-121.284-69.207a25.334,25.334,0,0,1-1.106-36.126l73.06-76.323a5.532,5.532,0,0,1,4.008-1.713" transform="translate(-1018.721 -142.454)" fill="#0f0f59"/><path d="M622.018,23.724l44.618,5.611q.515.064,1.032.105c6.807.545,85.049,8.042,127.163,67.438a6.9,6.9,0,0,1-5.877,10.878c-14.111-.461-29.071-1.491-37.148-2.1a15.5,15.5,0,0,1-9.87-4.559c-11.649-11.788-50.151-46.775-120.694-74.334a1.582,1.582,0,0,1,.775-3.042" transform="translate(-218.95 -13.024)" fill="#191468"/><g transform="translate(117.078 381.005)" opacity="0.5" style="mix-blend-mode:overlay;isolation:isolate"><g clip-path="url(#ah)"><path d="M1448.289,866.146s2.121-6.744,10.142-11.827,66.6-8.893,66.6-8.893a8.732,8.732,0,0,1,8.08,13.889l-6.151,8.24c-7.9,10.588-17.869,14.61-34.906,15.134s-39.669-8.648-39.669-8.648a5.589,5.589,0,0,1-4.093-7.894" transform="translate(-1447.748 -845.354)" fill="#fff"/></g></g><path d="M1513.8,835.735a9.228,9.228,0,0,0-1.153.073s-58.575,3.809-66.6,8.893-10.142,11.827-10.142,11.827a5.589,5.589,0,0,0,4.092,7.894s21.393,8.669,38.238,8.669c.48,0,.959-.008,1.431-.022,17.038-.524,27-4.546,34.907-15.134l6.151-8.24a8.737,8.737,0,0,0-6.929-13.961m0-1.951a10.589,10.589,0,0,1,9.489,5.916,10.482,10.482,0,0,1-1,11.164l-6.151,8.24a35.285,35.285,0,0,1-14.825,11.968c-5.657,2.415-12.516,3.669-21.585,3.948-.486.015-.987.023-1.49.023-16.4,0-36.521-7.834-38.789-8.739a7.54,7.54,0,0,1-5.356-10.5c.369-1.065,2.925-7.69,10.913-12.753,1.329-.842,4.28-2.153,14.522-3.812,5.894-.955,13.509-1.908,22.632-2.834,15.019-1.524,29.3-2.476,30.3-2.543a11.28,11.28,0,0,1,1.334-.08" transform="translate(-1313.791 -457.993)" fill="#191468"/><path d="M1438.308,858.9s2.12-6.744,10.142-11.827,66.6-8.893,66.6-8.893a8.732,8.732,0,0,1,8.081,13.888l-6.151,8.24c-7.9,10.587-17.869,14.609-34.907,15.133s-39.67-8.648-39.67-8.648a5.589,5.589,0,0,1-4.091-7.894" transform="translate(-1316.191 -460.371)" fill="#fff"/><path d="M1893.3,685.186q-.14.557-.267,1.1.128-.548.267-1.1" transform="translate(-1889.798 -376.37)" fill="#191468"/><path d="M1892.632,682.539c-.1.372-.2.74-.289,1.107.094-.367.188-.735.289-1.107" transform="translate(-1888.817 -374.916)" fill="#191468"/><path d="M1891.9,679.85c-.109.376-.213.75-.314,1.121.1-.371.2-.745.314-1.121" transform="translate(-1887.751 -373.439)" fill="#191468"/><path d="M1893.916,687.789q-.129.557-.249,1.105.121-.549.249-1.105" transform="translate(-1890.698 -377.8)" fill="#191468"/><g transform="translate(1.635 274.321)" opacity="0.5" style="mix-blend-mode:overlay;isolation:isolate"><g clip-path="url(#ai)"><path d="M1858.233,608.65c-.232.218-.454.436-.68.654-15.494,16.2-19.87,33.513-20.887,44.783,6.461,12.778,18.351,24.759,18.351,24.759a5.59,5.59,0,0,0,8.875.563,187.972,187.972,0,0,0-.978-23.2c-1.054-10.874-3.608-36.713-4.68-47.556" transform="translate(-1836.664 -608.65)" fill="#fff"/></g></g><path d="M1852.355,600.687l-.144-1.45a79.694,79.694,0,0,0-19,24.76,79,79,0,0,1,17.205-23.118c1.073,10.843,3.627,36.683,4.68,47.556a187.923,187.923,0,0,1,.979,23.2,5.591,5.591,0,0,1-8.875-.563s-14.337-14.445-20.079-28.53c.068-.367.138-.737.214-1.111-.326,1.623-.577,3.178-.771,4.653,6.106,12.748,17.7,24.777,19.127,26.234a7.54,7.54,0,0,0,11.858.6l.448-.516.028-.684a188.3,188.3,0,0,0-.985-23.469c-1.06-10.934-3.627-36.9-4.681-47.56" transform="translate(-1824.608 -329.159)" fill="#191468"/><path d="M1891.117,677.126c-.118.381-.23.76-.339,1.137.109-.377.221-.756.339-1.137" transform="translate(-1886.597 -371.942)" fill="#191468"/><path d="M1894.474,690.348q-.121.559-.231,1.109.11-.55.231-1.109" transform="translate(-1891.516 -379.205)" fill="#191468"/><path d="M1888.369,668.74q-.222.6-.43,1.2.208-.6.43-1.2" transform="translate(-1882.569 -367.336)" fill="#191468"/><path d="M1883.715,657.156q-.3.644-.576,1.283.28-.639.576-1.283" transform="translate(-1875.753 -360.973)" fill="#191468"/><path d="M1884.988,660.087q-.276.63-.534,1.255.259-.626.534-1.255" transform="translate(-1877.617 -362.583)" fill="#191468"/><path d="M1882.357,654.2q-.316.652-.614,1.3.3-.648.614-1.3" transform="translate(-1873.766 -359.35)" fill="#191468"/><path d="M1887.313,665.883q-.238.609-.461,1.21.223-.6.461-1.21" transform="translate(-1881.024 -365.767)" fill="#191468"/><path d="M1886.187,663c-.171.413-.335.824-.5,1.233.161-.409.326-.821.5-1.233" transform="translate(-1879.374 -364.183)" fill="#191468"/><path d="M1889.348,671.565q-.2.587-.4,1.168.192-.581.4-1.168" transform="translate(-1884.005 -368.888)" fill="#191468"/><path d="M1890.265,674.365q-.19.577-.365,1.148.177-.57.365-1.148" transform="translate(-1885.349 -370.426)" fill="#191468"/><path d="M1854.189,602.879c-15.221,14.313-21.137,29.908-23.3,41.666,5.743,14.085,20.079,28.53,20.079,28.53a5.59,5.59,0,0,0,8.874.563,188.053,188.053,0,0,0-.978-23.2c-1.053-10.873-3.608-36.713-4.68-47.556" transform="translate(-1828.385 -331.159)" fill="#fff"/><g transform="translate(34.694 375.035)" opacity="0.5" style="mix-blend-mode:overlay;isolation:isolate"><g clip-path="url(#aj)"><path d="M1748.935,883.518l-61.451-35.479V832.108l61.451,35.479Z" transform="translate(-1687.483 -832.108)" fill="#fff"/></g></g><path d="M862.193,261.163c-20.055,0-55.224,5.2-108.894,29.955C719.523,306.7,690,332.99,665.556,369.256A324.225,324.225,0,0,0,628.9,442.985a2.522,2.522,0,0,0-.1,1.432,4.059,4.059,0,0,0,1.364-.622c53.2-31.179,119.816-77.888,166.345-111.595,50.445-36.543,88.81-66.1,89.192-66.393a.827.827,0,0,0,.444-.827.714.714,0,0,0-.494-.609c-3.4-1.2-10.975-3.209-23.458-3.209m0-3.082c11.531,0,19.555,1.648,24.484,3.383a3.848,3.848,0,0,1,.909,6.784S734.837,386.033,631.827,446.391a6.074,6.074,0,0,1-3.183,1.129c-2.588,0-3.559-2.906-2.657-5.535,10.448-30.451,46.251-116.866,126.023-153.665,52.014-23.994,87.74-30.238,110.182-30.239" transform="translate(-314.518 -141.763)" fill="#0f0f59"/></g></g><g transform="translate(514.685 110.117)"><g transform="translate(0)" clip-path="url(#ak)"><rect width="55.033" height="41.762" transform="matrix(-0.26, -0.966, 0.966, -0.26, 2.037, 56.448)" fill="url(#al)"/></g></g><g transform="translate(0.001 0.001)"><g clip-path="url(#b)"><path d="M633.039,28.218c63.257,26.531,98.489,57.964,111.09,70.716a12.423,12.423,0,0,0,7.909,3.652c7.743.582,22.849,1.627,37.017,2.09l.142,0a3.821,3.821,0,0,0,3.12-6.016,139.91,139.91,0,0,0-35.894-34.75,180.481,180.481,0,0,0-39.469-19.925,200.889,200.889,0,0,0-49.531-11.473c-.4-.032-.794-.072-1.172-.12Zm-11.25-4.508a1.761,1.761,0,0,1,.23.015l44.618,5.61q.515.065,1.033.105c6.807.545,85.049,8.042,127.163,67.438a6.9,6.9,0,0,1-5.635,10.882c-.08,0-.161,0-.242,0-14.111-.461-29.071-1.49-37.148-2.1a15.5,15.5,0,0,1-9.87-4.56c-11.649-11.788-50.151-46.775-120.693-74.334a1.583,1.583,0,0,1,.546-3.056" transform="translate(-218.95 -13.025)" fill="#0f0f59"/><g transform="translate(1.775 356.284)" opacity="0.5" style="mix-blend-mode:overlay;isolation:isolate"><g clip-path="url(#an)"><path d="M1699.706,886.7c-12.5,1.34-42.1-2.929-94.132-41.735-28.73-21.426-41.916-41.12-47.963-54.465V810.35c11.831,16.246,28.863,35.366,44.413,46.7,41.266,30.077,79.6,39.643,96.442,43.15s14.88-14.956,1.241-13.495" transform="translate(-1557.611 -790.505)" fill="#fff"/></g></g><path d="M1695.09,874.117c-12.5,1.34-42.1-2.929-94.133-41.735-37.517-27.979-48.527-53.005-51.751-64.793V792.4c11.765,17.2,30.9,39.448,48.2,52.056,41.266,30.077,79.6,39.643,96.442,43.151s14.88-14.956,1.241-13.495" transform="translate(-1547.434 -421.633)" fill="#191468"/><path d="M883.379,546.884v4.878l11.38-6.57v4.173l9.266-5.35v-9.05Z" transform="translate(-445.465 -293.854)" fill="#0f0f59"/><g transform="translate(181.038 377.741)" style="isolation:isolate"><g transform="translate(0)"><g clip-path="url(#ao)"><path d="M1437.768,873.568a33.569,33.569,0,0,0,19.745-13.254l6.151-8.24a8.732,8.732,0,0,0-8.081-13.888s-4.863.316-11.976.888c3.45,8.1,4.9,20.32-5.839,34.495" transform="translate(-1437.767 -838.113)" fill="#e9522a"/></g></g></g><g transform="translate(3.474 271.72)" style="isolation:isolate"><g clip-path="url(#ap)"><path d="M1864.654,613.081c-.4-4-.746-7.552-1.009-10.2-13.371,12.574-19.561,26.136-22.331,37.218,6.417-18.355,17.183-24.786,23.339-27.016" transform="translate(-1841.315 -602.879)" fill="#e9522a"/></g></g><g transform="translate(39.273 332.252)" opacity="0.5" style="mix-blend-mode:overlay;isolation:isolate"><g clip-path="url(#aq)"><path d="M1654.5,737.987c-3.08-1.818-5-.441-4.262,3.058l6.632,31.509a16.9,16.9,0,0,0,6.941,9.666l33.837,19.949a8.559,8.559,0,0,0,10.065-1.427l14.543-15.4a4.974,4.974,0,0,0-1.136-8.034Z" transform="translate(-1650.076 -737.185)" fill="#fff"/></g></g><path d="M1650.89,736.545c-3.08-1.818-5-.442-4.261,3.058l6.632,31.509a16.9,16.9,0,0,0,6.941,9.665l33.837,19.948a8.559,8.559,0,0,0,10.066-1.426l14.542-15.4a4.973,4.973,0,0,0-1.136-8.033Z" transform="translate(-1605.571 -404.14)" fill="#191468"/><path d="M1681.064,812.511l.162.77a10.68,10.68,0,0,0,.4,1.4l49.725,27.436a7,7,0,0,0,.714-.648l.506-.535Z" transform="translate(-1633.536 -446.309)" fill="#0e0e49"/><path d="M1727.29,825.921l1.152-1.221-58.358-32.2.443,2.1Z" transform="translate(-1624.455 -435.317)" fill="#0e0e49"/><path d="M1659.549,774.592l63.609,35.1,1.152-1.221-65.2-35.977Z" transform="translate(-1615.375 -424.326)" fill="#0e0e49"/><path d="M1648.348,752.481l.442,2.1,70.455,38.875.345-.365a6.249,6.249,0,0,0,.708-.909Z" transform="translate(-1606.514 -413.335)" fill="#0e0e49"/></g></g><g transform="translate(430.575 141.499)"><g transform="translate(0 0)" clip-path="url(#ar)"><rect width="86.215" height="62.004" transform="matrix(-0.26, -0.966, 0.966, -0.26, 2.931, 88.502)" fill="url(#as)"/></g></g><g transform="translate(0.001 0.001)"><g clip-path="url(#b)"><g transform="translate(291.943 107.055)" opacity="0.4"><g clip-path="url(#au)"><path d="M885.3,252.747S711.326,386.9,594,455.647c-5.577,3.571-8.028-1.008-6.652-5.019,11.9-34.682,53.708-143.157,144.567-185.069C821.6,224.188,867.726,239.2,884.267,245.02a4.382,4.382,0,0,1,1.035,7.727" transform="translate(-586.973 -237.529)" fill="#191468"/></g></g></g></g><g transform="translate(36.999 376.365)"><g clip-path="url(#av)"><rect width="59.148" height="47.694" transform="translate(0)" fill="url(#aw)"/></g></g><g transform="translate(0.001 0.001)"><g clip-path="url(#b)"><g transform="translate(1.774 147.699)" opacity="0.4"><g clip-path="url(#ay)"><path d="M1553.621,844.83c-30.671,7.3-125.59-45.558-168.817-90.8v42.824c0,12.522,49.744,56.241,101.926,84.039s92.659,15.118,107.777,10.241c0-37.19,8.749-60.86,21.09-76.275-26.767,15.373-49.564,27.013-61.975,29.968" transform="translate(-1384.805 -561.885)" fill="#191468"/><path d="M854.54,391.662l10.241-13.656v-50.3C826.644,354.176,677.8,457.23,645.949,475.51,626.5,486.671,573.885,521.363,522.687,552.9c28.282-6.738,14.861,43.59,14.861,43.59S750.664,465.3,768.22,456.523c2.927-11.216,7.316-46.329,47.305-75.014s39.014,10.154,39.014,10.154" transform="translate(-245.429 -327.708)" fill="#191468"/></g></g><g transform="translate(1.774 347.848)" style="isolation:isolate"><g clip-path="url(#az)"><path d="M1891.008,782.4a75.358,75.358,0,0,1-4.129-10.2l-.681-.408v22.924q1.607,2.351,3.393,4.817a121.121,121.121,0,0,1,1.417-17.132" transform="translate(-1886.198 -771.787)" fill="#e9522a"/></g></g><g transform="translate(123.195 449.458)" style="isolation:isolate"><g transform="translate(0)"><g clip-path="url(#ba)"><path d="M1573.669,1000.259c-5.046.542-12.883.166-23.857-3.026-.738,3.188-1.063,7.275.583,10.858,9.124,2.813,16.67,4.546,22.034,5.663,16.841,3.508,14.879-14.956,1.24-13.495" transform="translate(-1549.208 -997.233)" fill="#e9522a"/></g></g></g><path d="M939.652,738.594l3.282-2.36,3.3-2.333,6.6-4.663q6.625-4.627,13.277-9.209c4.427-3.067,8.892-6.081,13.337-9.12l13.392-9.038,13.447-8.96,3.372-2.224.844-.556.193-.129.212-.154.421-.3c.562-.393,1.13-.771,1.706-1.141a45.431,45.431,0,0,1,7.248-3.833,26.744,26.744,0,0,1,3.931-1.294,14.534,14.534,0,0,1,4.176-.442,7.994,7.994,0,0,1,4.082,1.277,7.684,7.684,0,0,1,2.667,3.3,14.089,14.089,0,0,1,1.018,4.014,28.718,28.718,0,0,1,.143,4.076,50.385,50.385,0,0,1-.422,8.071,27.994,27.994,0,0,0,.109-4.03l-.154-4.038a27.861,27.861,0,0,0-.334-3.984,13.333,13.333,0,0,0-1.141-3.742,6.82,6.82,0,0,0-2.438-2.823,6.924,6.924,0,0,0-3.577-.97,14,14,0,0,0-3.819.521,25.524,25.524,0,0,0-3.7,1.327,48.378,48.378,0,0,0-6.942,3.861c-.553.367-1.1.744-1.636,1.131l-.4.292-.194.146-.224.156-.835.569-3.339,2.277-13.4,9.041L980.4,712.274c-4.5,2.963-8.989,5.948-13.511,8.883q-6.763,4.428-13.57,8.791l-6.823,4.337-3.412,2.168Z" transform="translate(-603.118 -375.071)" fill="#191468"/></g></g><g transform="translate(202.831 363.524)"><g transform="translate(0)" clip-path="url(#bb)"><rect width="112.535" height="115.986" transform="translate(-0.824 0)" fill="url(#bc)"/></g></g><g transform="translate(515.914 180.523)"><g clip-path="url(#bd)"><rect width="104.199" height="108.545" transform="translate(0 -7.707)" fill="url(#be)"/></g></g><g transform="translate(0.001 0.001)"><g clip-path="url(#b)"><path d="M1138.011,666.167s36.09,25.551,35.928,12.939-23.573-24.5-27.475-25.779-7.641,5.831-7.641,5.831l-2.6-1.177V665.3Z" transform="translate(-829.337 -358.785)" fill="#383097"/></g></g><g transform="translate(540.345 205.717)"><g transform="translate(0)" clip-path="url(#f)"><path d="M529.964,401.9l77.5-44.75V492.217l-77.5,44.75Z" transform="translate(-529.964 -401.895)" fill="url(#g)"/></g></g><g transform="translate(0.001 0.001)"><g clip-path="url(#b)"><path d="M552.639,466.265a63.269,63.269,0,0,0-13,10.13,76.569,76.569,0,0,0-5.672,6.354,79.076,79.076,0,0,0-4.954,6.947,74.788,74.788,0,0,0-4.087,7.313,64.942,64.942,0,0,0-3.079,7.45,45.4,45.4,0,0,0-2.622,14.518,23.333,23.333,0,0,0,2.622,11.491,15.279,15.279,0,0,0,3.079,3.9,14.522,14.522,0,0,0,4.087,2.593,16.983,16.983,0,0,0,4.954,1.227,22.714,22.714,0,0,0,5.672-.2,37.932,37.932,0,0,0,13-4.886,63.245,63.245,0,0,0,13-10.13,76.607,76.607,0,0,0,5.672-6.354,78.969,78.969,0,0,0,4.954-6.946,74.821,74.821,0,0,0,4.087-7.313,65.05,65.05,0,0,0,3.079-7.451,45.4,45.4,0,0,0,2.621-14.518,23.337,23.337,0,0,0-2.621-11.491A15.268,15.268,0,0,0,580.357,465a14.5,14.5,0,0,0-4.087-2.593,16.963,16.963,0,0,0-4.954-1.227,22.707,22.707,0,0,0-5.672.2,37.935,37.935,0,0,0-13,4.886m0-10.843c24.445-14.113,44.262-5.738,44.262,18.707s-19.817,55.7-44.262,69.817-44.261,5.738-44.261-18.707,19.816-55.7,44.261-69.816" transform="translate(30.674 -246.396)" fill="#191468"/><path d="M605.675,603.417a17.668,17.668,0,0,1-4.954,0,18.777,18.777,0,0,1-4.879-1.359s11.451-4.738,13.958-9.694,5.42-12.895,5.42-12.895l7.12.977a136.677,136.677,0,0,0-7.484,12.612c-3.1,6.122-9.18,10.358-9.18,10.358" transform="translate(-34.185 -318.301)" fill="#fff"/><path d="M604.114,572.911a33.153,33.153,0,0,1,3.271-12.649s10.653,4.136,14.784,2.985a93.926,93.926,0,0,0,11-4.387l-2.5,9.83a47.423,47.423,0,0,0-10.27,1.538c-5.1,1.422-16.277,2.683-16.277,2.683" transform="translate(-48.739 -306.98)" fill="#fff"/><path d="M588.475,502.011a45.717,45.717,0,0,1,5.617-4.037,34.26,34.26,0,0,1,5.662-2.924s2.378,11.316,2.55,15.526a58.662,58.662,0,0,0,1.709,10.051l-8.744,5.4a69.414,69.414,0,0,0,.825-11.615c-.212-5.2-7.619-12.4-7.619-12.4" transform="translate(-12.538 -271.929)" fill="#fff"/><path d="M562.753,495.905a11.485,11.485,0,0,1,2.574,3.57,15.927,15.927,0,0,1,1.509,4.6s-2.6,7.4-6.621,11.28-9.888,10.9-9.888,10.9l-3.165-6.331a120.1,120.1,0,0,0,10.8-9.069c4.966-4.793,4.786-14.951,4.786-14.951" transform="translate(43.26 -272.399)" fill="#fff"/><path d="M578.132,571.9s-2.351.535-5.142,4.14a65.845,65.845,0,0,0-4.626,6.817s2.465-3.941-.04-6-7.481-3.974-7.481-3.974l7.122-9.2a27.553,27.553,0,0,0,5.417,6.64c3.1,2.548,4.751,1.578,4.751,1.578" transform="translate(25.798 -309.628)" fill="#fff"/><path d="M655.333,543.414c-.623,2.12-1.189,4.257-1.757,6.409a60.791,60.791,0,0,1,4.234-7.944,15.921,15.921,0,0,1-2.478,1.535" transform="translate(-95.676 -297.652)" fill="#fff"/><path d="M594.957,489.58a16.1,16.1,0,0,1-6.754-.168,21.515,21.515,0,0,1-5.028-2.11c-1.952.069-3.9.311-5.861.342-2.337.037-4.655-.242-6.984-.253a33.558,33.558,0,0,1-8.61,3.245,15.628,15.628,0,0,1-1.428,3.681c1.121-.783,2.255-1.514,3.4-2.175a31.7,31.7,0,0,1,10.873-4.085,16.218,16.218,0,0,1,8.883.861,12.188,12.188,0,0,1,5.99,5.425,19.506,19.506,0,0,1,2.193,9.606,37.968,37.968,0,0,1-2.193,12.14,58.123,58.123,0,0,1-5.99,12.34,64.844,64.844,0,0,1-8.883,11.117,52.884,52.884,0,0,1-10.873,8.471,31.716,31.716,0,0,1-10.873,4.085,16.231,16.231,0,0,1-8.883-.862,12.187,12.187,0,0,1-5.99-5.424,19.51,19.51,0,0,1-2.193-9.607,32.3,32.3,0,0,1,.353-4.64c-.434,1.491-.831,2.994-1.138,4.532a38.6,38.6,0,0,0-.026,5.274,42.943,42.943,0,0,0,1.692,6.092,25.346,25.346,0,0,0,1.335,2.367,13.494,13.494,0,0,1,2.131,7.85c6.073,2.467,14.4,1.345,23.592-3.961,18.582-10.728,33.646-34.488,33.646-53.07a23.972,23.972,0,0,0-2.38-11.075" transform="translate(18.302 -267.674)" fill="#fff"/></g></g><g transform="translate(549.67 214.432)"><g transform="translate(0)" clip-path="url(#i)"><rect width="74.974" height="89.31" transform="translate(66.67 89.664) rotate(-174.489)" fill="url(#j)"/></g></g><g transform="translate(587.522 254.054)"><g transform="translate(0)" clip-path="url(#bl)"><rect width="18.077" height="19.644" transform="translate(16.258 19.721) rotate(-174.489)" fill="url(#bm)"/></g></g><g transform="translate(562.677 261.611)"><g transform="translate(0)" clip-path="url(#bn)"><rect width="28.211" height="26.714" transform="translate(25.754 26.815) rotate(-174.489)" fill="url(#bo)"/></g></g><g transform="translate(555.377 252.651)"><g transform="translate(0)" clip-path="url(#o)"><rect width="30.267" height="16.777" transform="matrix(-0.995, -0.096, 0.096, -0.995, 28.784, 16.829)" fill="url(#p)"/></g></g><g transform="translate(576.726 222.907)"><g transform="translate(0)" clip-path="url(#q)"><rect width="18.442" height="32.323" transform="translate(15.395 32.459) rotate(-174.489)" fill="url(#r)"/></g></g><g transform="translate(591.303 224.388)"><g transform="translate(0)" clip-path="url(#s)"><rect width="22.497" height="32.1" transform="translate(19.492 32.232) rotate(-174.489)" fill="url(#t)"/></g></g><g transform="translate(0.001 0.001)"><g clip-path="url(#b)"><path d="M596.186,548.342c0,5.183-4.2,11.811-9.385,14.8s-9.385,1.216-9.385-3.967,4.2-11.811,9.385-14.8,9.385-1.216,9.385,3.967" transform="translate(0.274 -298.225)" fill="#fff"/></g></g><g transform="translate(578.572 245.579)"><g transform="translate(0)" clip-path="url(#u)"><path d="M592.524,528.447l-7.8,30.621-26.572,7.4,7.8-30.621Z" transform="translate(-565.953 -535.852)" fill="url(#v)"/></g></g><g transform="translate(582.827 250.563)"><g clip-path="url(#by)"><rect width="12.834" height="13.88" transform="translate(9.635 14.164) rotate(-165.706)" fill="url(#bz)"/></g></g><g transform="translate(0.001 0.001)"><g clip-path="url(#b)"><path d="M537.377,522.669c0-24.445,19.816-55.7,44.261-69.816,8.049-4.648,15.6-6.856,22.1-6.856a23.1,23.1,0,0,1,10.044,2.131l-6.934-4.073a29.057,29.057,0,0,0-3.11-.165c-7.057,0-15.064,2.469-23.152,7.138-12.112,6.993-23.485,18.262-32.023,31.731-8.571,13.52-13.292,27.694-13.292,39.911,0,7.174,1.662,13.329,4.832,18l7.13,4.154c-6.162-4.048-9.854-11.6-9.854-22.154" transform="translate(1.675 -243.827)" fill="#545488"/></g></g><g transform="translate(223.71 402.095)"><g transform="translate(0)" clip-path="url(#cb)"><path d="M1232.5,837.606l77.5-44.75V927.928l-77.5,44.75Z" transform="translate(-1232.496 -837.606)" fill="url(#cc)"/></g></g><g transform="translate(0.001 0.001)"><g clip-path="url(#b)"><path d="M1255.172,901.977a63.3,63.3,0,0,0-13,10.13,76.714,76.714,0,0,0-5.672,6.354,78.9,78.9,0,0,0-4.953,6.947,74.779,74.779,0,0,0-4.087,7.313,64.99,64.99,0,0,0-3.08,7.45,45.423,45.423,0,0,0-2.621,14.518,23.34,23.34,0,0,0,2.621,11.491,15.279,15.279,0,0,0,3.08,3.895,14.528,14.528,0,0,0,4.087,2.594,16.965,16.965,0,0,0,4.953,1.227,22.706,22.706,0,0,0,5.672-.2,37.921,37.921,0,0,0,13-4.886,63.278,63.278,0,0,0,13-10.13,76.669,76.669,0,0,0,5.672-6.354,78.718,78.718,0,0,0,4.953-6.947,74.656,74.656,0,0,0,4.087-7.313,65.1,65.1,0,0,0,3.079-7.45,45.416,45.416,0,0,0,2.621-14.518,23.342,23.342,0,0,0-2.621-11.491,15.283,15.283,0,0,0-3.079-3.894,14.512,14.512,0,0,0-4.087-2.594,16.976,16.976,0,0,0-4.953-1.226,22.692,22.692,0,0,0-5.672.2,37.933,37.933,0,0,0-13,4.886m0-10.843c24.445-14.113,44.262-5.738,44.262,18.706s-19.817,55.7-44.262,69.817-44.261,5.737-44.261-18.708,19.817-55.7,44.261-69.816" transform="translate(-988.494 -485.73)" fill="#191468"/></g></g><g transform="translate(233.035 410.809)"><g transform="translate(0)" clip-path="url(#ce)"><rect width="74.973" height="89.309" transform="translate(66.67 89.664) rotate(-174.489)" fill="url(#cf)"/></g></g><g transform="translate(270.886 450.432)"><g transform="translate(0)" clip-path="url(#cg)"><rect width="18.064" height="19.509" transform="translate(16.258 19.585) rotate(-174.489)" fill="url(#ch)"/></g></g><g transform="translate(246.338 457.988)"><g transform="translate(0)" clip-path="url(#ci)"><rect width="27.875" height="26.264" transform="translate(25.461 26.363) rotate(-174.489)" fill="url(#cj)"/></g></g><g transform="translate(238.741 449.029)"><g transform="translate(0)" clip-path="url(#ck)"><rect width="30.268" height="16.777" transform="translate(28.785 16.829) rotate(-174.489)" fill="url(#cl)"/></g></g><g transform="translate(260.091 419.285)"><g transform="translate(0)" clip-path="url(#cm)"><rect width="18.442" height="32.323" transform="translate(15.395 32.459) rotate(-174.489)" fill="url(#cn)"/></g></g><g transform="translate(274.669 420.766)"><g transform="translate(0)" clip-path="url(#co)"><rect width="22.497" height="32.1" transform="translate(19.491 32.232) rotate(-174.489)" fill="url(#cp)"/></g></g><g transform="translate(261.937 441.957)"><g transform="translate(0)" clip-path="url(#cq)"><path d="M1295.056,964.159l-7.8,30.621-26.572,7.4,7.8-30.621Z" transform="translate(-1268.484 -971.564)" fill="url(#cr)"/></g></g><g transform="translate(265.751 446.501)"><g transform="translate(0)" clip-path="url(#cs)"><rect width="13.905" height="14.951" transform="translate(10.463 15.255) rotate(-165.705)" fill="url(#ct)"/></g></g><g transform="translate(0.001 0.001)"><g clip-path="url(#b)"><g transform="translate(220.308 396.441)" opacity="0.2"><g clip-path="url(#cv)"><path d="M1239.908,958.381c0-24.445,19.817-55.7,44.261-69.815,8.05-4.647,15.6-6.856,22.1-6.856a23.1,23.1,0,0,1,10.043,2.13l-6.934-4.073a28.942,28.942,0,0,0-3.11-.165c-7.058,0-15.064,2.469-23.152,7.138-12.112,6.993-23.485,18.262-32.024,31.73-8.571,13.52-13.291,27.694-13.291,39.91,0,7.174,1.661,13.329,4.831,18l7.13,4.154c-6.162-4.048-9.854-11.6-9.854-22.154" transform="translate(-1237.799 -879.602)" fill="#d1d4f8"/></g></g></g></g><g transform="translate(223.71 402.095)"><g transform="translate(0)" clip-path="url(#cb)"><path d="M1232.5,837.606l77.5-44.75V927.928l-77.5,44.75Z" transform="translate(-1232.496 -837.606)" fill="url(#cc)"/></g></g><g transform="translate(0.001 0.001)"><g clip-path="url(#b)"><path d="M1255.172,901.977a63.3,63.3,0,0,0-13,10.13,76.714,76.714,0,0,0-5.672,6.354,78.9,78.9,0,0,0-4.953,6.947,74.779,74.779,0,0,0-4.087,7.313,64.99,64.99,0,0,0-3.08,7.45,45.423,45.423,0,0,0-2.621,14.518,23.34,23.34,0,0,0,2.621,11.491,15.279,15.279,0,0,0,3.08,3.895,14.528,14.528,0,0,0,4.087,2.594,16.965,16.965,0,0,0,4.953,1.227,22.706,22.706,0,0,0,5.672-.2,37.921,37.921,0,0,0,13-4.886,63.278,63.278,0,0,0,13-10.13,76.669,76.669,0,0,0,5.672-6.354,78.718,78.718,0,0,0,4.953-6.947,74.656,74.656,0,0,0,4.087-7.313,65.1,65.1,0,0,0,3.079-7.45,45.416,45.416,0,0,0,2.621-14.518,23.342,23.342,0,0,0-2.621-11.491,15.283,15.283,0,0,0-3.079-3.894,14.512,14.512,0,0,0-4.087-2.594,16.976,16.976,0,0,0-4.953-1.226,22.692,22.692,0,0,0-5.672.2,37.933,37.933,0,0,0-13,4.886m0-10.843c24.445-14.113,44.262-5.738,44.262,18.706s-19.817,55.7-44.262,69.817-44.261,5.737-44.261-18.708,19.817-55.7,44.261-69.816" transform="translate(-988.494 -485.73)" fill="#191468"/><path d="M1308.208,1039.129a17.654,17.654,0,0,1-4.954,0,18.777,18.777,0,0,1-4.879-1.359s11.451-4.738,13.958-9.693,5.42-12.9,5.42-12.9l7.12.977a136.419,136.419,0,0,0-7.484,12.612c-3.1,6.122-9.181,10.358-9.181,10.358" transform="translate(-1053.354 -557.635)" fill="#fff"/><path d="M1306.646,1008.623a33.164,33.164,0,0,1,3.272-12.649s10.654,4.136,14.784,2.985a93.893,93.893,0,0,0,11-4.388l-2.5,9.831a47.414,47.414,0,0,0-10.269,1.538c-5.1,1.422-16.278,2.683-16.278,2.683" transform="translate(-1067.906 -546.313)" fill="#fff"/><path d="M1291.008,937.722a45.8,45.8,0,0,1,5.617-4.037,34.289,34.289,0,0,1,5.662-2.924s2.378,11.316,2.55,15.526a58.626,58.626,0,0,0,1.71,10.051l-8.744,5.4a69.344,69.344,0,0,0,.825-11.615c-.212-5.2-7.619-12.4-7.619-12.4" transform="translate(-1031.706 -511.262)" fill="#fff"/><path d="M1265.286,931.617a11.491,11.491,0,0,1,2.573,3.569,15.9,15.9,0,0,1,1.509,4.6s-2.6,7.4-6.62,11.28-9.888,10.9-9.888,10.9l-3.165-6.332a120.044,120.044,0,0,0,10.8-9.069c4.966-4.793,4.786-14.951,4.786-14.951" transform="translate(-975.908 -511.733)" fill="#fff"/><path d="M1280.664,1007.611s-2.35.535-5.141,4.138a65.717,65.717,0,0,0-4.627,6.818s2.466-3.941-.04-6-7.481-3.974-7.481-3.974l7.121-9.2a27.565,27.565,0,0,0,5.417,6.639c3.1,2.548,4.751,1.578,4.751,1.578" transform="translate(-993.37 -548.962)" fill="#fff"/><path d="M1357.866,979.126c-.624,2.12-1.191,4.257-1.758,6.408a60.8,60.8,0,0,1,4.234-7.944,15.867,15.867,0,0,1-2.477,1.536" transform="translate(-1114.844 -536.986)" fill="#fff"/><path d="M1297.489,925.292a16.1,16.1,0,0,1-6.755-.167,21.572,21.572,0,0,1-5.028-2.11c-1.952.069-3.9.31-5.862.341-2.336.037-4.655-.242-6.984-.253a33.531,33.531,0,0,1-8.609,3.245,15.635,15.635,0,0,1-1.429,3.681c1.122-.783,2.255-1.514,3.4-2.175a31.719,31.719,0,0,1,10.874-4.084,16.218,16.218,0,0,1,8.881.861,12.183,12.183,0,0,1,5.99,5.425,19.51,19.51,0,0,1,2.193,9.607,37.977,37.977,0,0,1-2.193,12.139,58.058,58.058,0,0,1-5.99,12.341,64.856,64.856,0,0,1-8.881,11.118,52.9,52.9,0,0,1-10.874,8.471,31.7,31.7,0,0,1-10.873,4.084,16.214,16.214,0,0,1-8.882-.861,12.183,12.183,0,0,1-5.99-5.424,19.5,19.5,0,0,1-2.193-9.607,32.22,32.22,0,0,1,.353-4.639c-.434,1.491-.831,2.993-1.138,4.532a38.622,38.622,0,0,0-.026,5.274,42.887,42.887,0,0,0,1.691,6.092,25.749,25.749,0,0,0,1.335,2.367,13.5,13.5,0,0,1,2.131,7.85c6.072,2.468,14.4,1.346,23.591-3.961,18.582-10.728,33.645-34.489,33.645-53.07a23.964,23.964,0,0,0-2.38-11.076" transform="translate(-1000.866 -507.009)" fill="#fff"/></g></g><g transform="translate(233.035 410.809)"><g transform="translate(0)" clip-path="url(#ce)"><rect width="74.973" height="89.309" transform="translate(66.67 89.664) rotate(-174.489)" fill="url(#cf)"/></g></g><g transform="translate(270.886 450.432)"><g transform="translate(0)" clip-path="url(#db)"><rect width="18.077" height="19.644" transform="translate(16.258 19.721) rotate(-174.489)" fill="url(#dc)"/></g></g><g transform="translate(246.042 457.988)"><g transform="translate(0)" clip-path="url(#dd)"><rect width="28.211" height="26.715" transform="translate(25.754 26.815) rotate(-174.489)" fill="url(#de)"/></g></g><g transform="translate(238.741 449.029)"><g transform="translate(0)" clip-path="url(#ck)"><rect width="30.268" height="16.777" transform="translate(28.785 16.829) rotate(-174.489)" fill="url(#cl)"/></g></g><g transform="translate(260.091 419.285)"><g transform="translate(0)" clip-path="url(#cm)"><rect width="18.442" height="32.323" transform="translate(15.395 32.459) rotate(-174.489)" fill="url(#cn)"/></g></g><g transform="translate(274.669 420.766)"><g transform="translate(0)" clip-path="url(#co)"><rect width="22.497" height="32.1" transform="translate(19.491 32.232) rotate(-174.489)" fill="url(#cp)"/></g></g><g transform="translate(0.001 0.001)"><g clip-path="url(#b)"><path d="M1298.717,984.054c0,5.184-4.2,11.811-9.385,14.8s-9.384,1.217-9.384-3.967,4.2-11.811,9.384-14.8,9.385-1.216,9.385,3.966" transform="translate(-1018.892 -537.559)" fill="#fff"/></g></g><g transform="translate(261.937 441.957)"><g transform="translate(0)" clip-path="url(#cq)"><path d="M1295.056,964.159l-7.8,30.621-26.572,7.4,7.8-30.621Z" transform="translate(-1268.484 -971.564)" fill="url(#cr)"/></g></g><g transform="translate(266.192 446.94)"><g transform="translate(0)" clip-path="url(#do)"><rect width="12.834" height="13.88" transform="translate(9.635 14.164) rotate(-165.706)" fill="url(#dp)"/></g></g><g transform="translate(0.001 0.001)"><g clip-path="url(#b)"><path d="M1239.908,958.381c0-24.445,19.817-55.7,44.261-69.815,8.05-4.647,15.6-6.856,22.1-6.856a23.1,23.1,0,0,1,10.043,2.13l-6.934-4.073a28.942,28.942,0,0,0-3.11-.165c-7.058,0-15.064,2.469-23.152,7.138-12.112,6.993-23.485,18.262-32.024,31.73-8.571,13.52-13.291,27.694-13.291,39.91,0,7.174,1.661,13.329,4.831,18l7.13,4.154c-6.162-4.048-9.854-11.6-9.854-22.154" transform="translate(-1017.491 -483.161)" fill="#545488"/><path d="M885.5,473.292l-.88-.046c.023-.419,2.218-42.052,2.218-60.423,0-18.235-6.422-28.691-6.488-28.794-.028-.053-36.43-80.192-36.43-80.192l.8-.364,36.391,80.115c.373.614,6.606,11.19,6.606,29.235,0,18.394-2.2,60.05-2.219,60.469" transform="translate(-411.369 -166.697)" fill="#191468"/></g></g></g></svg>