<svg xmlns="http://www.w3.org/2000/svg" xmlns:xlink="http://www.w3.org/1999/xlink" width="63.462" height="75.159" viewBox="0 0 63.462 75.159"><defs><clipPath id="a"><rect width="63.462" height="75.159" fill="#e9522a"/></clipPath></defs><g clip-path="url(#a)"><path d="M41.747,64.321a10.092,10.092,0,0,1-3.042,8,9.985,9.985,0,0,1-11.952,1.513,10.142,10.142,0,0,1-3.872-4,11.266,11.266,0,0,1-1.2-5.515H20.568c-4.171,0-8.342-.018-12.513.005A7.58,7.58,0,0,1,.826,60.2,7.486,7.486,0,0,1,4.941,49.784a1.114,1.114,0,0,0,.914-1.292c0-5.2-.241-10.416.122-15.591.713-10.134,5.889-17.349,15.142-21.59.953-.437,1.964-.749,2.961-1.124-.775-3.724.228-6.817,3.511-8.9a7.389,7.389,0,0,1,8.68.248,7.767,7.767,0,0,1,3.111,8.494c1.933.9,3.925,1.636,5.729,2.694A24.312,24.312,0,0,1,57.295,30.744a30.527,30.527,0,0,1,.311,4.474c.039,4.464.024,8.929,0,13.394,0,.61.133.925.773,1.128a7.446,7.446,0,0,1,5.07,7.278,7.583,7.583,0,0,1-5.982,7.149,12.214,12.214,0,0,1-2.282.147c-4.083.013-8.166.006-12.249.006ZM9.263,49.206H54.281c.015-.227.036-.4.036-.569,0-4.992.148-9.991-.053-14.976-.368-9.12-4.846-15.844-13.207-19.234-9.251-3.75-18.051-2.46-25.5,4.682a19.5,19.5,0,0,0-6.211,13.6c-.222,5.366-.108,10.745-.139,16.118a2.67,2.67,0,0,0,.059.378m22.458,11.75q6.343,0,12.686,0c3.935,0,7.871.041,11.8-.041a4.024,4.024,0,0,0,3.8-4.955c-.467-2.2-2.056-3.333-4.7-3.334q-23.565,0-47.131,0a8.815,8.815,0,0,0-1.227.084,4.131,4.131,0,0,0-2.725,6.641,4.356,4.356,0,0,0,3.8,1.613c7.9-.021,15.8-.01,23.7-.01m.007,3.365H26.8c-1.887,0-1.887,0-1.614,1.875a6.588,6.588,0,0,0,7.163,5.6,6.788,6.788,0,0,0,6.079-6.643c0-.648-.234-.854-.884-.841-1.937.039-3.875.014-5.813.014m4.336-55a4.534,4.534,0,0,0-7.129-4.939,4.3,4.3,0,0,0-1.5,4.939Z" transform="translate(0 0)" fill="#e9522a"/></g></svg>