<svg xmlns="http://www.w3.org/2000/svg" xmlns:xlink="http://www.w3.org/1999/xlink" width="101.265" height="92.288" viewBox="0 0 101.265 92.288"><defs><clipPath id="a"><rect width="101.265" height="92.287" fill="none"/></clipPath><clipPath id="c"><rect width="22.058" height="29.265" fill="none"/></clipPath><clipPath id="d"><rect width="21.153" height="28.542" fill="none"/></clipPath><clipPath id="e"><rect width="20.371" height="27.888" fill="none"/></clipPath><clipPath id="f"><rect width="19.725" height="27.33" fill="none"/></clipPath></defs><g clip-path="url(#a)"><rect width="1.495" height="22.817" transform="translate(0 39.829) rotate(-6.671)" fill="#e9522a"/><rect width="1.495" height="11.507" transform="translate(3.635 70.914) rotate(-6.672)" fill="#e9522a"/><g clip-path="url(#a)"><path d="M78.5,251.6l-.568-1.592a5.144,5.144,0,0,0-5.443-3.382L49.87,249.274a5.144,5.144,0,0,0-4.512,5.707L51.8,310.034a3.528,3.528,0,0,0,3.914,3.094l80.939-9.466a3.528,3.528,0,0,0,3.094-3.914l-5.566-47.591a3.528,3.528,0,0,0-3.914-3.094l-47,5.5A4.5,4.5,0,0,1,78.5,251.6" transform="translate(-40.594 -220.865)" fill="#191467"/><rect width="26.077" height="35.926" transform="translate(14.596 11.892) rotate(-11.271)" fill="#cce9ff"/><g transform="translate(19.315 12.481)" opacity="0.4"><g clip-path="url(#c)"><path d="M202.567,122.417l-15.754,3.14a1.411,1.411,0,1,1-.551-2.767l15.753-3.14a1.41,1.41,0,1,1,.551,2.766" transform="translate(-185.127 -119.623)" fill="#007cff"/><path d="M213.695,178.256l-15.754,3.14a1.41,1.41,0,1,1-.551-2.766l15.754-3.14A1.41,1.41,0,0,1,214.8,176.6h0a1.411,1.411,0,0,1-1.108,1.659" transform="translate(-195.094 -169.636)" fill="#007cff"/><path d="M224.824,234.094l-15.754,3.14a1.41,1.41,0,0,1-.551-2.766l15.754-3.14a1.41,1.41,0,1,1,.551,2.767" transform="translate(-205.062 -219.649)" fill="#007cff"/><path d="M235.952,289.934l-15.754,3.14a1.41,1.41,0,1,1-.551-2.767l15.754-3.14a1.41,1.41,0,1,1,.551,2.766" transform="translate(-215.029 -269.662)" fill="#007cff"/><path d="M242.775,354l-11.448,2.282a1.41,1.41,0,1,1-.551-2.766l11.448-2.282a1.41,1.41,0,1,1,.551,2.766" transform="translate(-224.996 -327.042)" fill="#007cff"/></g></g><rect width="26.077" height="35.926" transform="matrix(0.991, -0.136, 0.136, 0.991, 50.774, 3.536)" fill="#cce9ff"/><g transform="translate(55.169 5.449)" opacity="0.4"><g clip-path="url(#d)"><path d="M546.3,55.034l-15.915,2.178A1.41,1.41,0,0,1,530,54.417l15.915-2.178a1.41,1.41,0,0,1,.383,2.795" transform="translate(-528.783 -52.226)" fill="#e9522a"/><path d="M554.021,111.445l-15.915,2.178a1.41,1.41,0,1,1-.382-2.795l15.915-2.178a1.41,1.41,0,1,1,.382,2.795" transform="translate(-535.699 -102.751)" fill="#007cff"/><path d="M550.212,182.982l-4.385.6a1.41,1.41,0,1,1-.383-2.795l4.385-.6a1.41,1.41,0,0,1,.382,2.795" transform="translate(-542.614 -166.824)" fill="#007cff"/><path d="M631.716,171.826l-4.385.6a1.41,1.41,0,1,1-.383-2.795l4.385-.6a1.41,1.41,0,1,1,.383,2.795" transform="translate(-615.614 -156.832)" fill="#007cff"/><path d="M569.463,224.268l-15.915,2.178a1.41,1.41,0,1,1-.383-2.795l15.915-2.178a1.41,1.41,0,0,1,.382,2.795" transform="translate(-549.529 -203.803)" fill="#007cff"/><path d="M572.833,286.386l-11.565,1.583a1.41,1.41,0,1,1-.383-2.795l11.565-1.583a1.41,1.41,0,0,1,.383,2.795" transform="translate(-556.443 -259.44)" fill="#007cff"/></g></g><rect width="26.077" height="35.926" transform="translate(26.252 7.465) rotate(-4.981)" fill="#007cff"/><rect width="26.077" height="35.926" transform="translate(26.252 7.465) rotate(-4.981)" fill="#bedcff"/><g transform="translate(30.371 10.439)" opacity="0.4"><g clip-path="url(#e)"><path d="M308.635,102.874l-16,1.395a1.41,1.41,0,0,1-.245-2.81l16-1.395a1.41,1.41,0,0,1,.245,2.81" transform="translate(-291.099 -100.058)" fill="#e9522a"/><path d="M313.578,159.6l-16,1.395a1.41,1.41,0,1,1-.245-2.81l16-1.395a1.41,1.41,0,0,1,.245,2.81" transform="translate(-295.526 -150.862)" fill="#007cff"/><path d="M318.522,216.319l-16,1.395a1.41,1.41,0,1,1-.245-2.81l16-1.395a1.41,1.41,0,0,1,.245,2.81" transform="translate(-299.955 -201.667)" fill="#007cff"/><path d="M323.465,273.041l-16,1.395a1.41,1.41,0,0,1-.245-2.81l16-1.395a1.41,1.41,0,0,1,.245,2.81" transform="translate(-304.382 -252.471)" fill="#007cff"/><path d="M324.034,333.417l-11.629,1.014a1.41,1.41,0,1,1-.245-2.81l11.629-1.014a1.41,1.41,0,0,1,.245,2.81" transform="translate(-308.809 -306.548)" fill="#007cff"/></g></g><rect width="26.077" height="35.926" transform="translate(57.845 4.712) rotate(-2.764)" fill="#007cff"/><rect width="26.077" height="35.926" transform="translate(57.845 4.712) rotate(-2.764)" fill="#e9522a"/><g transform="translate(61.736 8.516)" opacity="0.4"><g clip-path="url(#f)"><path d="M609.248,84.447l-16.045.775a1.41,1.41,0,1,1-.136-2.818l16.045-.775a1.41,1.41,0,0,1,.136,2.818" transform="translate(-591.725 -81.628)" fill="#fff"/><path d="M611.994,141.318l-16.045.775a1.41,1.41,0,0,1-.136-2.818l16.045-.775a1.41,1.41,0,0,1,.136,2.818" transform="translate(-594.185 -132.565)" fill="#fff"/><path d="M603.116,203.567l-4.421.213a1.41,1.41,0,0,1-.136-2.818l4.421-.213a1.41,1.41,0,1,1,.136,2.818" transform="translate(-596.644 -188.32)" fill="#fff"/><path d="M685.285,199.6l-4.421.213a1.411,1.411,0,0,1-.136-2.818l4.421-.213a1.41,1.41,0,0,1,.136,2.818" transform="translate(-670.239 -184.768)" fill="#fff"/><path d="M617.485,255.06l-16.045.775a1.411,1.411,0,0,1-.136-2.818l16.045-.774a1.41,1.41,0,1,1,.136,2.818" transform="translate(-599.103 -234.44)" fill="#fff"/><path d="M615.845,313.96l-11.66.563a1.41,1.41,0,1,1-.136-2.818l11.66-.563a1.41,1.41,0,0,1,.136,2.818" transform="translate(-601.561 -287.195)" fill="#007cff"/></g></g><path d="M148.432,262.379l-.415-1.558a4.557,4.557,0,0,0-5.072-3.3l-22.622,2.646a5.676,5.676,0,0,0-4.99,5.6l1.283,53.889a3.112,3.112,0,0,0,3.586,3.02l80.939-9.466a3.892,3.892,0,0,0,3.422-3.84l-1.11-46.585a3.112,3.112,0,0,0-3.586-3.02l-47,5.5a3.986,3.986,0,0,1-4.436-2.884" transform="translate(-103.299 -230.623)" fill="#007cff"/><path d="M148.432,262.379l-.415-1.558a4.557,4.557,0,0,0-5.072-3.3l-22.622,2.646a5.676,5.676,0,0,0-4.99,5.6l1.283,53.889a3.112,3.112,0,0,0,3.586,3.02l80.939-9.466a3.892,3.892,0,0,0,3.422-3.84l-1.11-46.585a3.112,3.112,0,0,0-3.586-3.02l-47,5.5a3.986,3.986,0,0,1-4.436-2.884" transform="translate(-103.299 -230.623)" fill="#383097"/></g></g></svg>