<svg xmlns="http://www.w3.org/2000/svg" xmlns:xlink="http://www.w3.org/1999/xlink" width="96.135" height="60.139" viewBox="0 0 96.135 60.139"><defs><clipPath id="a"><rect width="96.135" height="60.139" fill="#e9522a"/></clipPath></defs><g clip-path="url(#a)"><path d="M.014,45.26a4.956,4.956,0,0,0,5.057,5.083c.762.011,1.522.008,2.272.006l1.334,0,.107.309c2.159,6.2,5.815,9.379,10.868,9.449,6.1.1,10.165-3.075,12.035-9.394l.1-.33H65.348l.112.3c2.514,6.65,6.32,9.656,11.969,9.452,4.015-.144,9.27-2.7,10.869-9.432l.084-.354h.364c.279,0,.552,0,.82,0,.562,0,1.1.007,1.641-.008,2.96-.086,4.71-1.769,4.8-4.619.144-4.463.164-8.108.062-11.471-.113-3.709-1.8-5.94-5.484-7.235L88.551,26.3c-4.482-1.577-9.116-3.206-13.657-4.859a3.554,3.554,0,0,1-1.726-1.461C70.981,16.181,68.8,12.3,66.69,8.544l-1.5-2.672A10.82,10.82,0,0,0,55.015,0h-.182C47.685.078,40.417.062,33.389.046Q28.982.037,24.575.034c-4.154,0-6.067,1.411-7.314,5.392q-.722,2.307-1.45,4.613c-1.038,3.3-2.112,6.709-3.143,10.07a2.408,2.408,0,0,1-1.5,1.627c-2.778,1.19-5.54,2.424-7.875,3.475A5.1,5.1,0,0,0,0,30.3c.023,3.14.018,6.332.014,9.419q0,2.772,0,5.542m25.942,9.07a7.984,7.984,0,0,1-5.7,2.38h-.023a8.1,8.1,0,1,1,5.724-2.38m56.579.1a7.936,7.936,0,0,1-5.58,2.28h-.117a8.086,8.086,0,0,1,.077-16.171h0A7.987,7.987,0,0,1,82.635,42.9a8.161,8.161,0,0,1-.1,11.529m5.942-24.146.476.017c2.25.08,3.575,1.547,3.633,4.024l.011.471h-4.12ZM3.523,29.943c.011-.666.8-1.385,1.358-1.649,2.96-1.387,5.927-2.712,8.821-3.941a3.137,3.137,0,0,0,1.912-2.173c1.494-4.853,3.062-9.77,4.579-14.526l.539-1.689c.6-1.894,1.477-2.534,3.461-2.535q4.973,0,9.947,0c6.733.007,13.7.013,20.543-.031a7.829,7.829,0,0,1,7.638,4.349c1.486,2.718,3.037,5.463,4.537,8.117,1.225,2.166,2.491,4.406,3.716,6.622a3.826,3.826,0,0,0,2.3,1.911c2.828.96,5.7,1.987,8.485,2.981q1.645.587,3.308,1.179l.306.108v5.721c0,3.986,0,3.986,4.039,3.986H92.56l0,2.018c0,1.845.008,3.587-.042,5.365-.017.575-.84,1.038-1.265,1.089a12.692,12.692,0,0,1-1.785.045c-.24-.006-.484-.011-.733-.011h-.366l-.083-.357a11.77,11.77,0,0,0-5.077-7.546,11.4,11.4,0,0,0-6.7-1.882A11.743,11.743,0,0,0,65.528,46.47l-.085.352H31.806l-.115-.293c-2.634-6.747-6.315-9.656-11.966-9.431A11.691,11.691,0,0,0,8.849,46.527l-.085.353H8.4c-.3,0-.611.01-.919.02s-.646.022-.972.022a8.652,8.652,0,0,1-1.459-.107A2.167,2.167,0,0,1,3.5,45.147c-.07-4.93-.062-10.045.026-15.2" transform="translate(0 0)" fill="#e9522a"/><path d="M110.535,24.842q-2.051-3.509-4.084-7.028a2.226,2.226,0,0,0-2.116-1.238h-.006q-2.377,0-4.752,0l-2.74,0q-2.461,0-4.921.013a1.729,1.729,0,0,0-1.962,1.974c-.028,4.111-.029,8.326,0,12.528.009,1.414.6,1.993,2.028,2q3.51.011,7.021,0h5.854q3.507,0,7.011,0a2.214,2.214,0,0,0,2.025-.841,2.153,2.153,0,0,0-.278-2.119q-1.532-2.647-3.078-5.285M93.461,29.605V20.049l3.966,0c1.7,0,3.462-.006,5.193.019.19,0,1.154.044,1.485.593,1.268,2.1,2.48,4.193,3.763,6.413l1.467,2.533Z" transform="translate(-48.545 -8.947)" fill="#e9522a"/><path d="M59.435,16.577c-1.446-.014-2.918-.021-4.434-.021-1.532,0-3.111.007-4.758.022-1.2.011-1.683.405-1.989,1.623-1.262,5.008-2.224,8.856-3.116,12.476a2.026,2.026,0,0,0,.214,1.761,1.994,1.994,0,0,0,1.627.638c1.461.014,2.922.011,4.382.007l1.939,0h1.793q2.151,0,4.3,0c1.553,0,2.162-.6,2.175-2.117.035-4.324.034-8.348,0-12.3-.014-1.446-.651-2.07-2.13-2.084M58.043,29.616H49.011l.278-1.216c.1-.441.193-.858.3-1.273q.231-.932.468-1.862c.325-1.285.662-2.614.957-3.926a1.426,1.426,0,0,1,1.6-1.312c1.152.033,2.288.027,3.492.02.489,0,.982-.006,1.48-.006h.46Z" transform="translate(-24.313 -8.937)" fill="#e9522a"/><path d="M37.945,102.433a2.822,2.822,0,0,0,2.8,2.726,2.758,2.758,0,0,0,1.956-.848,2.806,2.806,0,0,0-.067-4.021,2.74,2.74,0,0,0-1.9-.779h-.082a2.8,2.8,0,0,0-2.707,2.92" transform="translate(-20.482 -53.716)" fill="#e9522a"/><path d="M163.852,99.517h0a2.822,2.822,0,0,0-.064,5.643,2.689,2.689,0,0,0,1.959-.775,2.84,2.84,0,0,0,.055-4.05,2.726,2.726,0,0,0-1.949-.818" transform="translate(-86.935 -53.719)" fill="#e9522a"/></g></svg>