<svg xmlns="http://www.w3.org/2000/svg" xmlns:xlink="http://www.w3.org/1999/xlink" width="68.434" height="87.942" viewBox="0 0 68.434 87.942"><defs><clipPath id="a"><rect width="47.925" height="77.308" fill="#e9522a"/></clipPath></defs><g transform="translate(22.603) rotate(17)"><g clip-path="url(#a)"><path d="M33.58,0A12.493,12.493,0,0,1,34.954.64Q40.729,4.206,46.487,7.8c1.6.994,1.823,1.878.882,3.635Q39.784,25.6,32.187,39.748,24.258,54.526,16.339,69.31A4.543,4.543,0,0,1,14.362,71.3c-3.529,1.853-7.035,3.755-10.554,5.63-1.729.921-2.942.123-3.056-1.951C.527,70.859.3,66.74.018,62.626a5.974,5.974,0,0,1,.73-3.415Q16.215,30.483,31.621,1.719C32.059.9,32.474.066,33.58,0M14.127,65.589,40.008,17.352l-9.436-5.871L4.7,59.761l9.431,5.828M43.649,10.594l-9.43-5.872L32.4,8.111l9.431,5.822,1.814-3.339M11.423,68.436,3.736,63.662c.179,2.989.344,5.739.517,8.63l7.169-3.855" transform="translate(0 0.001)" fill="#e9522a"/></g></g></svg>