<svg xmlns="http://www.w3.org/2000/svg" xmlns:xlink="http://www.w3.org/1999/xlink" width="57.65" height="58.708" viewBox="0 0 57.65 58.708"><defs><clipPath id="a"><rect width="57.65" height="58.708" fill="none"/></clipPath><clipPath id="b"><path d="M115.442,69.873a.448.448,0,0,0-.448.448v36.147a.939.939,0,0,0,.939.94h20.932a.939.939,0,0,0,.939-.94V70.577a.7.7,0,0,0-.7-.7Z" transform="translate(-114.994 -69.873)" fill="none"/></clipPath><clipPath id="c"><rect width="22.013" height="36.223" fill="none"/></clipPath><clipPath id="e"><path d="M133.621,207.07a1.629,1.629,0,0,0,0,3.257h.092a1.629,1.629,0,0,0,0-3.257Z" transform="translate(-131.992 -207.07)" fill="none"/></clipPath><linearGradient id="f" x1="-4.175" y1="6.03" x2="-4.143" y2="6.03" gradientUnits="objectBoundingBox"><stop offset="0" stop-color="#fe7062"/><stop offset="1" stop-color="#ff928e"/></linearGradient><clipPath id="h"><path d="M133.93,175.786h0a1.629,1.629,0,0,0,0,3.257h.092a1.629,1.629,0,0,0,0-3.257Z" transform="translate(-132.302 -175.786)" fill="none"/></clipPath><linearGradient id="i" x1="-4.185" y1="7.049" x2="-4.153" y2="7.049" xlink:href="#f"/><clipPath id="k"><path d="M133.712,269.635h-.092a1.628,1.628,0,0,0-1.629,1.628h0a1.628,1.628,0,0,0,1.629,1.628h.093a1.628,1.628,0,0,0,1.628-1.629h0a1.628,1.628,0,0,0-1.628-1.628h0" transform="translate(-131.992 -269.635)" fill="none"/></clipPath><linearGradient id="l" x1="-4.175" y1="3.992" x2="-4.143" y2="3.992" xlink:href="#f"/><clipPath id="n"><path d="M133.93,238.351a1.629,1.629,0,0,0,0,3.257h.092a1.629,1.629,0,0,0,0-3.257Z" transform="translate(-132.302 -238.351)" fill="none"/></clipPath><linearGradient id="o" x1="-4.186" y1="5.011" x2="-4.153" y2="5.011" xlink:href="#f"/><clipPath id="q"><path d="M133.93,144.506a1.629,1.629,0,0,0,0,3.257h.092a1.629,1.629,0,0,0,0-3.257Z" transform="translate(-132.302 -144.506)" fill="none"/></clipPath><linearGradient id="r" x1="-4.186" y1="8.069" x2="-4.153" y2="8.069" xlink:href="#f"/></defs><g clip-path="url(#a)"><path d="M103.24,85.022a2.077,2.077,0,0,0-1.9,2.065c-.019,6.574-.049,29.251.379,37.278a1.615,1.615,0,0,0,1.594,1.527c4.211.046,16.325.129,23.2-.311a2.716,2.716,0,0,0,2.545-2.713c-.008-6.9-.118-26.306-1.064-35.175a2.216,2.216,0,0,0-2.033-1.975c-4.593-.358-16.791-1.212-22.729-.695" transform="translate(-85.985 -72.005)" fill="#bdd0fb"/><path d="M111.758,99.842c-.083,5.624-.318,24.332.093,31.237a1.919,1.919,0,0,0,1.812,1.84c3.986.139,14.206.408,20.029-.233a2.157,2.157,0,0,0,1.878-2.125c.146-5.739.538-23.163.14-29.991a2.123,2.123,0,0,0-1.939-2.029c-4.315-.29-15.4-.961-20.349-.549a1.853,1.853,0,0,0-1.664,1.85" transform="translate(-94.708 -83.037)" fill="#321e8c"/><path d="M176.122,90.627a.29.29,0,0,0,.283.286c.767.023,2.927.089,3.892.124a.289.289,0,0,0,.3-.354.3.3,0,0,0-.272-.262,37.312,37.312,0,0,0-3.926-.093.3.3,0,0,0-.273.3" transform="translate(-149.442 -76.632)" fill="#1f5aa9"/></g><g transform="translate(17.419 10.584)"><g clip-path="url(#b)"><rect width="43.872" height="39.925" transform="matrix(0.56, -0.828, 0.828, 0.56, -17.419, 25.755)" fill="#321e8c"/></g></g><g transform="translate(17.818 11.207)"><g clip-path="url(#c)"><path d="M138.7,110.2H118.564a.94.94,0,0,1-.939-.939V74.4a.422.422,0,0,1,.422-.422H138.7a.94.94,0,0,1,.939.939V109.26a.94.94,0,0,1-.939.939" transform="translate(-117.625 -73.977)" fill="#383097"/></g></g><g clip-path="url(#a)"><path d="M160.032,96.325H146.943a.21.21,0,0,1-.209-.21V93.164a.21.21,0,0,1,.209-.209h13.088a.21.21,0,0,1,.21.209v2.951a.21.21,0,0,1-.21.209" transform="translate(-124.507 -78.873)" fill="#fff"/><path d="M174.794,213.55H162.165a.2.2,0,0,1-.2-.2v-1.466a.2.2,0,0,1,.2-.2h12.629a.2.2,0,0,1,.2.2v1.466a.2.2,0,0,1-.2.2" transform="translate(-137.435 -179.625)" fill="#fff"/></g><g transform="translate(19.994 31.367)"><g clip-path="url(#e)"><rect width="4.635" height="4.649" transform="translate(-1.588 1.993) rotate(-51.459)" fill="url(#f)"/></g></g><g clip-path="url(#a)"><path d="M175.1,182.269H162.474a.2.2,0,0,1-.2-.2v-1.466a.2.2,0,0,1,.2-.2H175.1a.2.2,0,0,1,.2.2v1.466a.2.2,0,0,1-.2.2" transform="translate(-137.697 -153.083)" fill="#fff"/></g><g transform="translate(20.041 26.628)"><g clip-path="url(#h)"><rect width="4.635" height="4.65" transform="matrix(0.623, -0.782, 0.782, 0.623, -1.588, 1.993)" fill="url(#i)"/></g></g><g clip-path="url(#a)"><path d="M174.794,276.114H162.165a.2.2,0,0,1-.2-.2v-1.466a.2.2,0,0,1,.2-.2h12.629a.2.2,0,0,1,.2.2v1.466a.2.2,0,0,1-.2.2" transform="translate(-137.435 -232.712)" fill="#fff"/></g><g transform="translate(19.994 40.845)"><g clip-path="url(#k)"><rect width="4.635" height="4.649" transform="matrix(0.623, -0.782, 0.782, 0.623, -1.587, 1.993)" fill="url(#l)"/></g></g><g clip-path="url(#a)"><path d="M175.1,244.833H162.474a.2.2,0,0,1-.2-.2v-1.466a.2.2,0,0,1,.2-.2H175.1a.2.2,0,0,1,.2.2v1.466a.2.2,0,0,1-.2.2" transform="translate(-137.697 -206.17)" fill="#fff"/></g><g transform="translate(20.041 36.106)"><g clip-path="url(#n)"><rect width="4.635" height="4.649" transform="translate(-1.587 1.993) rotate(-51.457)" fill="url(#o)"/></g></g><g clip-path="url(#a)"><path d="M175.1,150.985H162.474a.2.2,0,0,1-.2-.2v-1.466a.2.2,0,0,1,.2-.2H175.1a.2.2,0,0,1,.2.2v1.466a.2.2,0,0,1-.2.2" transform="translate(-137.697 -126.538)" fill="#fff"/></g><g transform="translate(20.041 21.89)"><g clip-path="url(#q)"><rect width="4.635" height="4.649" transform="matrix(0.623, -0.782, 0.782, 0.623, -1.587, 1.993)" fill="url(#r)"/></g></g></svg>